<svg width="30" height="31" viewBox="0 0 30 31" fill="none" xmlns="http://www.w3.org/2000/svg">
<path d="M15 10.1786C12.2375 10.1786 10 12.456 10 15.2679C10 18.0797 12.2375 20.3571 15 20.3571C17.7625 20.3571 20 18.0797 20 15.2679C20 12.456 17.7625 10.1786 15 10.1786ZM26.175 13.9955C25.6 8.68996 21.4625 4.47857 16.25 3.89331V1.27232H13.75V3.89331C8.5375 4.47857 4.4 8.68996 3.825 13.9955H1.25V16.5402H3.825C4.4 21.8458 8.5375 26.0571 13.75 26.6424V29.2634H16.25V26.6424C21.4625 26.0571 25.6 21.8458 26.175 16.5402H28.75V13.9955H26.175ZM15 24.1741C10.1625 24.1741 6.25 20.1917 6.25 15.2679C6.25 10.344 10.1625 6.36161 15 6.36161C19.8375 6.36161 23.75 10.344 23.75 15.2679C23.75 20.1917 19.8375 24.1741 15 24.1741Z" fill="#FBAF1E"/>
</svg>
