<svg width="219" height="340" viewBox="0 0 219 340" fill="none" xmlns="http://www.w3.org/2000/svg">
<path fill-rule="evenodd" clip-rule="evenodd" d="M75.6571 142.781C77.1456 163.075 173.041 222.824 173.601 224.501C173.85 225.246 163.9 248.798 143.752 295.158L152.135 298.412C183.038 249.314 197.696 222.148 196.109 216.917C193.836 209.427 169.035 184.787 121.705 142.997L75.6571 142.781Z" fill="#B28B67"/>
<path fill-rule="evenodd" clip-rule="evenodd" d="M145.958 284.688L159.644 289.665C188.504 257.139 199.816 230.301 197.753 216.628C196.378 207.512 171.662 182.913 123.605 142.831L74.6756 142.831C76.3451 189.829 165.229 224.68 166.417 226.682C167.606 228.685 155.907 248.301 145.958 284.688Z" fill="#2F3676"/>
<path fill-rule="evenodd" clip-rule="evenodd" d="M140.639 293.601C138.929 295.604 137.865 297.182 137.447 298.334C136.939 299.736 136.43 301.866 135.922 304.724C137.545 305.317 152.134 310.645 179.688 320.708C182.191 317.358 182.272 315.086 179.93 313.891C177.589 312.695 175.651 311.681 174.118 310.847L157.07 294.336C156.742 294.019 156.22 294.027 155.903 294.356C155.898 294.361 155.892 294.367 155.887 294.373L153.427 297.071C150.774 297.303 148.739 297.16 147.321 296.642C146.168 296.221 144.746 295.174 143.054 293.5L143.054 293.5C142.404 292.858 141.359 292.864 140.719 293.514C140.691 293.542 140.665 293.571 140.639 293.601Z" fill="#E4E4E4"/>
<path fill-rule="evenodd" clip-rule="evenodd" d="M86.6831 142.781L43.9641 245.225L1.97787 331.832H11.8838L120.261 142.781H86.6831Z" fill="#997659"/>
<path fill-rule="evenodd" clip-rule="evenodd" d="M1.38539 327.915C0.461796 330.387 0 332.237 0 333.465C0 334.958 0.248008 337.136 0.744024 340C2.47103 340 17.9919 340 47.3067 340C48.5167 335.989 47.8182 333.823 45.2113 333.503C42.6043 333.183 40.4387 332.895 38.7143 332.637L17.0724 322.962C16.656 322.776 16.1679 322.964 15.9823 323.381C15.9791 323.388 15.976 323.395 15.9731 323.403L14.5819 326.787C12.1686 327.916 10.2074 328.48 8.69859 328.48C7.47268 328.48 5.77969 327.984 3.61962 326.991L3.61962 326.991C2.79069 326.61 1.81065 326.975 1.43065 327.806C1.41427 327.842 1.39917 327.878 1.38539 327.915Z" fill="#E4E4E4"/>
<path fill-rule="evenodd" clip-rule="evenodd" d="M5.76942 313.84L27.7804 317.964C44.7993 292.97 116.024 190.488 123.833 142.781H74.8315C48.753 177.269 21.9919 288.433 5.76942 313.84Z" fill="#5C63AB"/>
<path fill-rule="evenodd" clip-rule="evenodd" d="M101.954 43.0856C99.3266 37.8558 98.1345 31.9545 100.019 26.1487C105.449 9.4205 128.409 19.1514 130.923 28.9108C133.437 38.6701 127.475 60.3342 121.088 60.3658C118.541 60.3785 113.811 57.5996 109.389 53.1927L106.97 76.8921L87.7234 72.0707L101.954 43.0856Z" fill="#B28B67"/>
<path fill-rule="evenodd" clip-rule="evenodd" d="M131.785 33.2218C131.871 32.0602 131.713 30.7066 131.599 29.5587C131.452 28.0789 131.023 26.6705 130.503 25.3141C129.524 22.7605 128.19 20.3417 126.583 18.2092C123.648 14.3138 119.397 11.4267 114.66 10.8326C112.268 10.5326 109.796 10.8476 107.514 11.831C105.452 12.7195 103.302 14.2489 101.023 13.8268C98.5426 13.3674 96.8354 10.6667 95.2049 8.85444C93.3666 6.81134 91.2869 5.13729 88.8107 4.06897C84.6624 2.27952 80.2403 2.71297 76.3859 5.48911C72.2843 8.44335 68.6145 13.3629 69.4639 18.8506C69.6218 19.8708 69.9265 20.7737 70.481 21.5977C70.9896 22.3533 71.8344 23.2333 71.8655 24.245C71.8983 25.3203 70.7333 26.4053 70.1813 27.2299C69.3904 28.4114 68.6673 29.6784 68.4535 31.1244C68.1026 33.4989 69.0204 36.0795 70.1915 37.9912C71.3833 39.9366 73.1031 41.3117 75.0741 42.2405C76.3902 42.8607 77.7671 43.3659 79.1993 43.6153C79.9102 43.7392 80.5742 43.7009 81.2888 43.7171C81.9837 43.7329 82.3083 43.9984 82.7776 44.4964C84.9574 46.8102 87.5857 48.1522 90.6413 48.6544C93.2202 49.0781 96.2837 49.1993 98.772 47.9963C101.535 46.6603 102.143 44.016 102.303 41.0682C102.804 41.492 104.34 42.0612 103.674 40.7055C103.411 40.1686 102.749 39.8113 102.334 39.4305C101.851 38.987 101.382 38.4526 101.071 37.8488C99.8166 35.4106 102.596 31.7835 104.963 31.6639C108.48 31.4862 108.072 36.2607 110.111 38.0328C111.284 39.0517 112.919 38.4698 114.162 37.7686C115.825 36.8291 117.163 35.3676 118.383 33.8449C119.388 32.591 120.352 31.3058 121.368 30.0621C121.842 29.4812 123.38 27.8887 123.025 27.0088C125.482 27.1315 127.85 28.7509 129.553 30.5231C130.256 31.2557 130.748 31.9924 130.963 33.0285C131.01 33.2506 131.071 33.8916 131.325 33.9809C131.799 34.1473 131.764 33.5136 131.785 33.2218Z" fill="#191847"/>
<path fill-rule="evenodd" clip-rule="evenodd" d="M154.398 135.621L180.393 155.373C187.501 157.421 193.426 159.918 198.167 162.863C199.281 163.912 200.613 166.02 195.925 165.577C191.238 165.135 186.287 164.88 185.612 166.466C184.937 168.052 187.744 170.012 186.397 172.144C185.499 173.566 181.439 169.89 174.214 161.119L148.328 149.874L154.398 135.621ZM53.2912 134.512L70.5397 134.883C59.2933 169 53.2274 187.1 52.3421 189.184C50.3501 193.873 54.2671 201.137 55.9284 205.032C50.2552 207.447 51.0167 198.15 43.8579 201.321C37.3237 204.216 32.2982 209.581 24.8893 204.84C23.9784 204.257 23.0065 202.105 25.4732 200.48C31.6188 196.432 40.4972 189.313 41.7213 186.94C43.3906 183.705 47.2472 166.229 53.2912 134.512Z" fill="#B28B67"/>
<path fill-rule="evenodd" clip-rule="evenodd" d="M103.567 63.1454L110.726 62.0491C136.814 85.3407 146.93 129.385 178.989 153.185L171.008 162.711C114.812 154.766 101.782 101.031 103.567 63.1454Z" fill="#E87613"/>
<path fill-rule="evenodd" clip-rule="evenodd" d="M70.8986 152.101C99.5195 152.604 120.573 152.973 134.058 153.21C136.944 153.26 136.472 149.093 136.091 146.988C131.697 122.688 113.354 96.2563 113.952 61.7873L95.7839 58.6173C80.2955 82.5329 74.5677 112.212 70.8986 152.101Z" fill="#DDE3E9"/>
<path fill-rule="evenodd" clip-rule="evenodd" d="M72.6243 81.9874C69.9915 81.1821 67.9269 79.3754 66.4304 76.5674C59.9797 64.4626 62.4991 57.9046 69.653 55.86C76.8068 53.8153 83.0753 58.3955 94.4133 58.5945C95.0299 58.6054 95.5941 58.6538 96.1057 58.74L101.803 59.1648C117.206 114.783 121.078 151.778 113.419 170.151L63.7077 169.278C60.6434 176.079 57.7248 181.795 54.952 186.426L41.4065 186.188C40.8456 145.04 51.2515 110.306 72.6243 81.9874Z" fill="#FF9B21"/>
<path fill-rule="evenodd" clip-rule="evenodd" d="M75.025 141.053C76.3618 154.132 78.7384 163.648 82.1548 169.603L63.7067 169.279C67.2811 161.347 71.0539 151.938 75.025 141.053Z" fill="black" fill-opacity="0.1"/>
</svg>
