<svg width="17" height="17" viewBox="0 0 17 17" fill="none" xmlns="http://www.w3.org/2000/svg">
<path d="M16.8888 7.1228C16.8843 7.08355 16.8819 7.04388 16.875 7.00518C16.1985 3.23861 13.0634 0.296679 9.10383 0.0223587C6.96007 -0.126302 5.02492 0.467457 3.31058 1.77072C2.91641 2.07038 2.56953 2.42087 2.21121 2.75936C2.08639 2.90963 1.95759 3.05692 1.83747 3.2109C1.40754 3.76236 1.02245 4.34115 0.760681 4.99364C0.917515 4.99639 1.07404 5.00853 1.22942 5.03001C1.40039 5.00318 1.57013 5.00664 1.73503 5.13092C1.76387 5.14837 1.79232 5.16625 1.82141 5.18299C1.84456 5.19201 1.86768 5.20006 1.89069 5.20983C1.89577 5.21205 1.9007 5.21478 1.90579 5.217C1.96307 5.22763 2.02134 5.23307 2.07417 5.25954C2.09519 5.27093 2.11647 5.28255 2.13826 5.29244C2.17206 5.31061 2.20737 5.32583 2.24378 5.33795C2.26953 5.3458 2.29589 5.35151 2.32258 5.35502C2.36476 5.36125 2.40727 5.36488 2.44989 5.36589C2.6869 5.3644 2.89995 5.53905 3.14169 5.47597C3.42252 5.40275 3.57122 5.53496 3.66339 5.77416C3.773 6.05884 4.12719 6.07332 4.27169 6.32908C4.3056 6.38905 4.44642 6.3653 4.51267 6.29544C4.57058 6.23446 4.64295 6.21301 4.71223 6.17981C5.06938 6.03733 5.46985 5.9959 5.75056 5.67868C5.87019 5.54338 6.07369 5.53583 6.21694 5.63564C6.36255 5.73693 6.42949 5.66408 6.51499 5.57987C6.61766 5.47882 6.72194 5.44371 6.88054 5.45682C7.10014 5.47499 7.32665 5.45497 7.54228 5.34935C7.71659 5.26402 7.9305 5.28478 8.11222 5.19327C8.15838 5.17002 8.22754 5.19117 8.28616 5.19402C8.39294 5.19922 8.51269 5.39152 8.60721 5.16754C8.61899 5.13948 8.67153 5.18128 8.69703 5.2138C8.72771 5.25305 8.69691 5.31558 8.75046 5.34378C8.84697 5.40438 8.94407 5.3758 9.04101 5.34539C9.09867 5.31681 9.09496 5.21527 9.18897 5.22716C9.40015 5.25376 9.62024 5.24905 9.82042 5.31039C9.94585 5.34886 10.09 5.36381 10.2001 5.44742C10.4006 5.59979 10.465 5.6056 10.7094 5.46918L10.7081 5.47191C10.8591 5.65211 11.0313 5.62031 11.2103 5.52262C11.2188 5.51751 11.228 5.5138 11.2377 5.51161C11.351 5.49318 11.4531 5.48255 11.4701 5.64541C11.4819 5.75924 11.5722 5.76438 11.6702 5.76501C11.8582 5.76625 12.0353 5.6986 12.2238 5.69575C12.3718 5.69365 12.4692 5.80124 12.6046 5.82449C12.6869 5.83847 12.5898 5.92158 12.6061 5.97204C12.6224 6.02249 12.6637 6.01643 12.6992 5.99851C12.8785 5.90786 13.0464 5.99262 13.1911 6.06579C13.4404 6.19194 13.668 6.3615 13.9721 6.29736C14.0073 6.28994 14.0811 6.30788 14.081 6.31381C14.0795 6.57339 14.2369 6.39231 14.3256 6.40842C14.4441 6.42981 14.6262 6.44059 14.6618 6.51379C14.755 6.70523 14.9001 6.64958 15.0369 6.65705C15.2899 6.67079 15.2962 6.67807 15.2283 6.93593C15.3163 7.02312 15.389 6.976 15.4597 6.90896C15.4771 6.88125 15.4761 6.84367 15.5057 6.82288C15.5275 6.82363 15.5507 6.82449 15.5741 6.82412C15.5912 6.82981 15.6076 6.83723 15.6232 6.84626C15.6992 6.87717 15.6346 6.97005 15.6943 7.00815C15.7916 7.04936 15.8237 7.23484 15.9397 7.18265C16.1149 7.10362 16.2927 7.20244 16.4503 7.10264C16.4697 7.16937 16.4792 7.20579 16.456 7.24394C16.4372 7.27462 16.4025 7.31024 16.4448 7.34403C16.4853 7.37618 16.5491 7.39089 16.5767 7.34699C16.6965 7.15641 16.7824 7.31137 16.8788 7.36901C16.9259 7.28865 16.9131 7.20589 16.8888 7.1228Z" fill="#D81921"/>
<path d="M1.20566 12.89C0.985215 12.5153 0.774903 12.1355 0.632751 11.7223C0.814598 11.6542 1.00092 11.5933 1.08962 11.394C1.1015 11.3669 1.1234 11.3455 1.15073 11.3343C1.53017 11.2286 1.81231 10.8706 2.24756 10.9108C2.48795 10.7755 2.78362 10.9333 3.01908 10.7645C3.04357 10.7466 3.07299 10.7367 3.10331 10.7362C3.13363 10.7357 3.16336 10.7446 3.18844 10.7617C3.36512 10.8967 3.49862 10.8095 3.62638 10.687C3.68119 10.6343 3.75826 10.6318 3.77165 10.6905C3.82002 10.901 3.98838 10.8421 4.11978 10.8636C4.16838 10.8736 4.21884 10.8693 4.26505 10.8512C4.3859 10.7922 4.46529 10.8498 4.55069 10.9243C4.66946 11.0279 4.79045 11.1346 4.95598 10.9888C4.99132 10.9577 5.08576 10.9872 5.08329 11.0146C5.06115 11.2519 5.21046 11.1188 5.29188 11.1134C5.55203 11.0961 5.81996 11.0358 6.0202 11.2792C6.16351 11.3579 6.26923 11.0708 6.42165 11.2382C6.41694 11.3211 6.41509 11.4022 6.53237 11.4036C6.54211 11.4052 6.55197 11.4058 6.56182 11.4055C6.8504 11.3484 7.10394 11.4929 7.3725 11.5496C7.42225 11.5601 7.46642 11.571 7.51516 11.5544C7.55246 11.5417 7.60325 11.5098 7.62626 11.5232C7.91957 11.6958 8.26265 11.5591 8.56623 11.6835C8.79127 11.7758 9.03003 11.8223 9.27886 11.7551C9.39217 11.7245 9.38204 11.9068 9.54102 11.9038C9.72139 11.9003 9.90375 11.9212 10.0896 11.8938C10.291 11.8639 10.5067 11.7456 10.6883 11.9687C10.7316 12.0219 10.8331 11.9914 10.9127 11.9623C11.0555 11.9101 11.1997 11.812 11.3587 11.9267C11.3676 11.9309 11.3772 11.9332 11.387 11.9334C11.3969 11.9336 11.4066 11.9317 11.4156 11.9279C11.6505 11.8329 11.8783 11.8457 12.125 11.9104C12.4239 11.9889 12.731 11.8798 13.0355 11.8766C13.086 11.876 13.1307 11.8635 13.1623 11.8165C13.2831 11.6374 13.4301 11.6626 13.584 11.7676C13.617 11.7901 13.6646 11.8275 13.6841 11.7878C13.7575 11.6391 13.8863 11.709 13.9943 11.6932C14.0621 11.6834 14.1376 11.6773 14.1934 11.6431C14.4187 11.5054 14.6869 11.4602 14.9021 11.3001C15.0708 11.1747 15.2915 11.1632 15.4736 11.0633C15.4894 11.0547 15.513 11.0621 15.5321 11.0574C15.765 11.0016 15.8338 10.6833 16.158 10.7254C16.4155 10.7589 16.5664 10.4819 16.7447 10.3146C16.7575 10.3029 16.7807 10.3022 16.8134 10.2916C16.7276 10.7594 16.5902 11.2162 16.4037 11.6536C15.1447 14.5892 12.9528 16.4293 9.79456 16.891C6.2784 17.4052 3.46589 16.0919 1.40545 13.1896C1.37688 13.1494 1.34822 13.1092 1.31948 13.069C1.23883 13.0366 1.25419 12.943 1.20566 12.89Z" fill="#D81921"/>
<path d="M15.1095 7.41242C15.2592 7.47858 15.3588 7.62416 15.5287 7.66372C15.6429 7.69032 15.7427 7.75451 15.8546 7.64518C15.9428 7.5591 16.0318 7.60985 16.0531 7.71369C16.087 7.87903 16.2039 7.88164 16.3308 7.90044C16.5108 7.92703 16.6722 8.03562 16.8667 8.01262C16.9629 8.00124 17.0012 8.07542 17 8.1687C16.9963 8.4555 16.9954 8.7423 16.9912 9.02897C16.9892 9.16352 16.9051 9.24465 16.7968 9.30488C16.4629 9.49213 16.1155 9.65416 15.7574 9.78962C15.5733 9.8583 15.3805 9.90637 15.2176 10.0247C15.1871 10.0469 15.1471 10.0769 15.1149 10.0732C14.7901 10.0363 14.4988 10.1684 14.1947 10.2412C14.0338 10.2795 13.8615 10.2783 13.6944 10.2795C13.3804 10.2818 13.0696 10.3622 12.7559 10.3281C12.0717 10.2536 11.3893 10.1848 10.7173 10.0082C10.1784 9.86647 9.66824 9.67261 9.15892 9.45403C8.86349 9.32713 8.562 9.21411 8.27809 9.06174C7.44489 8.61466 6.64083 8.12183 5.88549 7.5506C5.72843 7.43175 5.5543 7.33492 5.38618 7.23103C5.30985 7.18393 5.23511 7.13704 5.17871 7.03958C5.24848 6.93074 5.45298 6.88651 5.39432 6.68922C5.38912 6.67179 5.45184 6.64396 5.49195 6.67548C5.57001 6.7372 5.64845 6.80732 5.75757 6.75227C5.91379 6.67336 6.10173 6.63664 6.20244 6.47834C6.25564 6.39486 6.30202 6.34391 6.40743 6.3465C6.5293 6.34947 6.6702 6.39808 6.75112 6.24547C6.75618 6.23595 6.80889 6.24064 6.83161 6.25301C6.94788 6.31707 7.06208 6.26054 7.13393 6.19945C7.3326 6.03038 7.54423 6.07269 7.75429 6.13045C7.91672 6.1751 8.05997 6.19105 8.20275 6.08048C8.25161 6.04265 8.31965 6.04516 8.38856 6.04041C8.75981 6.01554 9.11722 6.14417 9.48861 6.11832C9.63657 6.10806 9.76918 6.03982 9.92309 6.05277C10.193 6.07528 10.4438 6.16136 10.6998 6.23529C10.8736 6.28551 11.0627 6.448 11.2178 6.19472C11.2252 6.18259 11.2932 6.18644 11.2966 6.19584C11.361 6.37702 11.5302 6.30417 11.6484 6.33251C11.9365 6.40151 12.224 6.46732 12.5005 6.57726C12.5983 6.61845 12.7023 6.64303 12.8082 6.64999C13.1117 6.66176 13.3831 6.78516 13.6274 6.93492C13.7182 6.9907 13.8006 6.98501 13.8819 7.01309C14.1437 7.10374 14.3899 7.2514 14.6784 7.25389C14.7937 7.3841 14.9537 7.39276 15.1095 7.41242Z" fill="#D81921"/>
<path d="M0.538745 11.4562C0.493357 11.4295 0.491238 11.3872 0.497678 11.3419C0.677581 11.3214 0.745033 11.1361 0.709598 11.0485C0.61199 10.806 0.741264 10.8229 0.895783 10.8272C0.91298 10.8277 0.930667 10.8138 0.948787 10.8063C0.993449 10.746 0.946549 10.6964 0.929156 10.6431C0.916278 10.6039 0.930629 10.5359 0.952518 10.545C1.12251 10.6143 1.05421 10.4037 1.14577 10.388L1.14255 10.3916C1.25445 10.3233 1.36784 10.265 1.40803 10.1175C1.47085 9.88714 1.70358 9.80158 1.86741 9.68159C2.0839 9.52316 2.20589 9.31576 2.33764 9.10551C2.41198 8.98678 2.47643 8.86473 2.61413 8.80845C2.73698 8.75823 2.71087 8.61094 2.82654 8.52573C3.04551 8.36459 3.27797 8.21394 3.4785 8.02684C3.58059 7.93173 3.65032 7.79681 3.83046 7.83304C3.8985 7.84664 3.94612 7.78914 3.9804 7.71641C4.05535 7.55744 4.15259 7.42007 4.36204 7.4196C4.49677 7.41934 4.56666 7.28026 4.68951 7.23512C4.75242 7.21314 4.81327 7.18566 4.87136 7.15301C4.94596 7.10885 5.00436 7.12852 5.04123 7.20403C5.06251 7.24782 5.06871 7.3031 5.11879 7.32412C5.45742 7.46672 5.71064 7.73768 6.02241 7.92481C6.32216 8.10463 6.63267 8.27788 6.9062 8.50149C6.99874 8.57719 7.09466 8.6478 7.2035 8.69443C7.50932 8.82527 7.7278 9.09698 8.04993 9.20407C8.29081 9.28408 8.54417 9.34733 8.72504 9.55036C8.74942 9.57769 8.79247 9.59339 8.82983 9.60317C9.31498 9.73083 9.76525 9.9491 10.2302 10.13C10.5095 10.2389 10.7952 10.3722 11.1152 10.3305C11.1648 10.326 11.2146 10.3349 11.2596 10.3564C11.7356 10.5779 12.2436 10.562 12.7496 10.561C12.947 10.5607 13.145 10.5523 13.3419 10.5622C13.4799 10.5704 13.6183 10.5555 13.7514 10.518C13.8171 10.4992 13.8928 10.4708 13.9534 10.4867C14.27 10.5702 14.5573 10.4646 14.8506 10.3744C15.0576 10.3107 15.2721 10.2716 15.4794 10.2091C15.6099 10.1698 15.7471 10.1409 15.8548 10.0419C15.9239 9.97819 16.0162 9.97422 16.107 9.98213C16.125 9.99391 16.1314 10.0067 16.1267 10.0202C16.1218 10.0342 16.1166 10.0411 16.1111 10.0411C16.0035 10.1971 15.857 10.2862 15.6862 10.3767C15.4518 10.5013 15.185 10.5695 14.9811 10.7624C14.8706 10.8671 14.7017 10.9067 14.5459 10.9177C14.3341 10.9325 14.1548 11.0082 13.9635 11.0996C13.7346 11.2072 13.4855 11.2651 13.2325 11.2694C12.9904 11.2721 12.7485 11.3033 12.5358 11.3739C12.1326 11.5079 11.7358 11.4581 11.3342 11.4465C11.1443 11.4409 10.9443 11.3363 10.7768 11.5172C10.763 11.5321 10.717 11.5316 10.6934 11.5212C10.4401 11.4086 10.1688 11.4879 9.90874 11.4443C9.42861 11.3638 8.93402 11.3668 8.46206 11.2659C8.09797 11.1881 7.72077 11.1537 7.36609 11.0225C7.26836 10.9864 7.15132 11.0006 7.04295 10.9953C6.74951 10.9789 6.46032 10.9176 6.18549 10.8135C5.98495 10.7398 5.76314 10.6223 5.53822 10.7824C5.46338 10.8357 5.39905 10.7746 5.36183 10.7222C5.28747 10.6175 5.19049 10.6207 5.07813 10.6146C4.86364 10.603 4.65245 10.5435 4.43422 10.5688C4.39724 10.5732 4.33538 10.5686 4.32276 10.5465C4.19248 10.3195 3.97017 10.4376 3.85189 10.4878C3.72167 10.5466 3.57395 10.5537 3.43871 10.5076C3.16295 10.4081 2.90167 10.4913 2.63914 10.5185C2.32912 10.5507 1.99868 10.5618 1.77376 10.8386C1.49207 10.8433 1.30104 11.0491 1.06477 11.1486C0.870675 11.2309 0.749195 11.4177 0.538745 11.4562Z" fill="#D81921"/>
<path d="M4.46595 6.25833C4.31577 6.33736 4.22113 6.30136 4.1824 6.13341C4.14814 5.98489 4.07303 5.9352 3.9361 5.94085C3.83502 5.94519 3.75362 5.91822 3.76165 5.79739C3.77031 5.66877 3.64624 5.62029 3.60788 5.52048C3.54749 5.36293 3.44174 5.32311 3.27744 5.3759C3.09544 5.4344 2.90655 5.43527 2.73198 5.3383C2.62063 5.27646 2.50298 5.28883 2.38498 5.29204C2.36678 5.38603 2.43939 5.42338 2.51079 5.48745C2.62905 5.52097 2.74003 5.53903 2.84345 5.59221C2.84481 5.58652 2.84445 5.58157 2.84616 5.57576C2.89378 5.58442 2.92251 5.58801 2.95021 5.59494C3.1667 5.64973 3.30724 5.82848 3.49416 5.92935C3.72822 6.05574 3.95858 6.18732 4.16098 6.35898C4.25913 6.44221 4.37773 6.42589 4.48325 6.45173C4.54782 6.46769 4.57666 6.34674 4.60436 6.27179C4.61869 6.23309 4.67503 6.20995 4.71233 6.17979C4.61826 6.16966 4.54638 6.21603 4.46595 6.25833Z" fill="#D81921"/>
<path d="M3.81575 6.35404C3.67285 6.33549 3.58787 6.24039 3.50597 6.14417C3.43035 6.05404 3.33387 5.98374 3.2249 5.93936C3.12183 5.89348 3.02244 5.83973 2.92762 5.77859C2.91507 5.78447 2.90106 5.78652 2.88735 5.78448C2.87364 5.78243 2.86084 5.77638 2.85055 5.76709C2.71533 5.64973 2.52728 5.65008 2.36473 5.59148C2.17644 5.52346 2.00808 5.4124 1.82349 5.33622C1.6408 5.25772 1.44907 5.20222 1.25268 5.171C1.09057 5.14878 0.927159 5.13729 0.763527 5.13661C0.735127 5.14742 0.707865 5.16101 0.682135 5.17718C0.617056 5.25472 0.593046 5.35184 0.556924 5.44294C0.0807619 6.64628 -0.059662 7.89897 0.0217498 9.18108C0.0501959 9.62977 0.100805 10.0781 0.25236 10.507C0.345511 10.4502 0.436681 10.4233 0.445967 10.2647C0.461064 10.0065 0.570292 9.93388 0.841717 9.90444C0.904067 9.89777 0.962589 9.89913 0.95825 9.81317C0.953558 9.72623 0.807442 9.66794 0.907209 9.55988L0.907091 9.56014C0.929844 9.54393 0.948906 9.5234 0.970796 9.50621C1.00889 9.48494 1.04692 9.46362 1.08487 9.44227C1.16974 9.39009 1.18645 9.27779 1.27334 9.2272C1.32024 9.2105 1.35797 9.17663 1.40312 9.15622C1.69842 9.06568 1.8689 8.8197 1.95785 8.56976C2.09107 8.19552 2.3333 7.94817 2.64197 7.73484C2.74454 7.66398 2.85613 7.63615 3.04553 7.66223C2.87108 7.46027 2.97486 7.36925 3.0939 7.28415C3.17938 7.22294 3.28305 7.18571 3.36656 7.13661C3.51184 7.05103 3.68895 7.00687 3.80435 6.86812C3.89632 6.7578 4.01353 6.67125 4.14605 6.61582C3.96513 6.60485 3.97384 6.37445 3.81575 6.35404Z" fill="#D81921"/>
<path d="M1.19393 9.15734L1.40313 9.15622L1.37615 9.24885C1.37256 9.27878 1.34757 9.29819 1.33842 9.32553L1.22585 9.43362C1.1093 9.35373 1.24179 9.24514 1.19393 9.15734Z" fill="#D81921"/>
<path d="M8.75067 5.34376C8.84753 5.35267 8.94491 5.25608 9.04122 5.34537C8.94341 5.49909 8.9433 5.49909 8.75067 5.34376Z" fill="#D81921"/>
<path d="M16.2246 9.91051C16.2383 9.81541 16.2854 9.77806 16.3805 9.81975C16.3611 9.90631 16.2946 9.93885 16.2232 9.96631C16.2041 9.95345 16.198 9.94087 16.2046 9.92859C16.2113 9.91658 16.2179 9.91051 16.2246 9.91051Z" fill="#D81921"/>
<path d="M16.8078 9.67899C16.7936 9.71825 16.7669 9.74541 16.722 9.74072C16.6745 9.73577 16.6495 9.70237 16.67 9.66025C16.679 9.64225 16.6939 9.62792 16.7123 9.61973C16.7307 9.61154 16.7513 9.60999 16.7707 9.61535C16.7984 9.62259 16.8251 9.63967 16.8078 9.67899Z" fill="#D81921"/>
<path d="M16.2245 9.91051C16.2233 9.92906 16.2228 9.9478 16.2232 9.96629C16.1896 9.99696 16.1658 10.0418 16.1113 10.0411C16.1073 10.0217 16.106 10.0019 16.1072 9.98213C16.1336 9.93736 16.1775 9.92152 16.2245 9.91051Z" fill="#D81921"/>
<path d="M1.73715 5.15046C1.76196 5.14208 1.78396 5.12702 1.80074 5.10693C1.67889 4.98833 1.50839 4.96867 1.36551 4.89301C1.26931 5.00519 1.12365 4.97151 1.00079 5.00505C1.25155 5.02116 1.49911 5.07005 1.73715 5.15046Z" fill="#D81921"/>
<path d="M13.4128 6.01023C13.3995 6.01963 13.3854 6.0378 13.3732 6.0367C13.3668 6.03696 13.3604 6.03535 13.3549 6.03207C13.3493 6.02878 13.3448 6.02397 13.342 6.01821C13.3391 6.01244 13.338 6.00597 13.3387 5.99958C13.3394 5.99318 13.342 5.98713 13.3461 5.98216C13.3516 5.97593 13.3587 5.97125 13.3666 5.96856C13.3745 5.96587 13.383 5.96528 13.3911 5.96684C13.4024 5.97151 13.4059 5.99502 13.4128 6.01023Z" fill="#D81921"/>
<path d="M10.9889 5.47203C10.979 5.49515 10.962 5.50147 10.9444 5.48381C10.9339 5.46953 10.9255 5.45378 10.9196 5.43706C10.936 5.43261 10.9569 5.42012 10.9678 5.42605C10.9797 5.43233 10.9823 5.45594 10.9889 5.47203Z" fill="#D81921"/>
<path d="M10.7096 5.46916C10.6824 5.47203 10.6549 5.47211 10.6276 5.46942C10.6046 5.46508 10.5643 5.44653 10.5654 5.43937C10.5701 5.40895 10.5998 5.40116 10.6277 5.40405C10.6688 5.40825 10.6876 5.44188 10.7082 5.47195L10.7096 5.46916Z" fill="#D81921"/>
<path d="M8.57082 11.8052C8.56326 11.8024 8.55152 11.8017 8.54922 11.7965C8.54137 11.7796 8.55133 11.7695 8.57398 11.7731C8.58042 11.7741 8.58523 11.7844 8.59092 11.7904L8.57082 11.8052Z" fill="#D81921"/>
<path d="M1.14258 10.3915L1.18626 10.4144C1.14036 10.4553 1.1551 10.4032 1.1458 10.3881L1.14258 10.3915Z" fill="#D81921"/>
</svg>
