<svg viewBox="0 0 225 300" fill="none" xmlns="http://www.w3.org/2000/svg">
<path fill-rule="evenodd" clip-rule="evenodd" d="M87.8788 38.7096C83.9909 34.1516 81.3595 28.5657 81.7992 22.3065C83.0661 4.27207 108.202 8.23942 113.091 17.3417C117.98 26.4439 117.399 49.5325 111.08 51.1593C108.56 51.8081 103.192 50.2188 97.728 46.9296L101.158 71.1624H80.9075L87.8788 38.7096Z" fill="#FBDDCB"/>
<path fill-rule="evenodd" clip-rule="evenodd" d="M94.8874 37.4415C92.3763 42.2557 88.9033 45.881 85.4337 45.881C78.8434 45.881 74.1575 37.0808 74.1575 27.6191C74.1575 27.2866 74.1641 26.9564 74.1771 26.6287C67.2058 31.4067 61.833 40.8247 52.6088 40.8247C40.0593 40.8247 35.0753 15.5434 52.6088 15.5434C64.5329 15.5434 70.3983 17.2798 75.4531 19.8475C76.4501 17.0403 77.9703 14.6802 79.8292 13.032C80.2764 12.5292 80.962 12.0481 81.8466 11.6022C82.3873 11.3067 82.9469 11.066 83.522 10.8849C86.5705 9.76597 90.9861 8.97678 95.9184 8.80475C96.8394 8.77263 97.7439 8.76323 98.6263 8.77507C98.6407 4.13313 102.413 0.374542 107.064 0.374542C111.724 0.374542 115.501 4.1475 115.501 8.80167C115.501 13.3027 111.968 16.9795 107.521 17.2166C104.977 18.0007 101.708 18.5763 98.0831 18.8191C98.435 20.141 98.6263 21.6427 98.6263 23.3398C98.6263 24.8382 98.4607 26.4274 98.1558 28.0411C97.3696 27.1077 96.3183 26.4986 95.2513 26.4986C92.2665 26.4986 90.1888 28.9511 90.1888 31.5549C90.1888 34.8596 92.0989 37.2503 94.8874 37.4415Z" fill="#FBAF1E"/>
<path fill-rule="evenodd" clip-rule="evenodd" d="M184.74 173.083C190.789 164.873 205.909 170.308 205.9 177.105C205.876 194.949 189.603 279.665 188.754 285.014C187.904 290.362 178.802 292.112 178.272 285.429C177.429 274.795 175.862 237.932 177.43 220.783C177.888 215.773 178.371 210.931 178.857 206.395C170.305 221.77 157.3 243.502 139.842 271.59L130.14 267.154C137.759 242.033 144.006 224.298 148.882 213.949C157.232 196.23 165.06 181.056 168.355 175.711C172.707 168.65 179.766 169.587 184.74 173.083Z" fill="#F4D9C9"/>
<path fill-rule="evenodd" clip-rule="evenodd" d="M130.833 253.203L164.135 174.256C172.113 161.414 194.481 176.87 191.76 184.318C185.584 201.229 154.17 255.976 152.33 261.014L130.833 253.203Z" fill="#1F28CF"/>
<path fill-rule="evenodd" clip-rule="evenodd" d="M206.743 183.269C206.743 205.646 196.941 258.245 196.934 263.173L173.191 262.372C177.341 216.639 179.092 193.618 178.442 193.308C176.979 192.611 118.501 201.408 100.962 202.072C75.6713 203.03 65.209 187.503 64.36 158.038H113.349C155.24 163.042 182.772 166.522 195.945 168.479C204.405 169.735 206.743 177.104 206.743 183.269Z" fill="#2B44FF"/>
<path fill-rule="evenodd" clip-rule="evenodd" d="M128.968 264.508C127.363 266.808 126.405 268.58 126.094 269.826C125.725 271.301 125.435 273.515 125.222 276.468C126.944 276.897 142.419 280.748 171.646 288.022C173.843 284.359 173.681 282.045 171.16 281.082C168.64 280.119 166.552 279.297 164.897 278.614L145.626 263.62C145.299 263.366 144.828 263.425 144.573 263.751C144.569 263.756 144.566 263.761 144.562 263.766L142.28 266.845C139.596 267.362 137.501 267.433 135.997 267.059C134.74 266.746 133.121 265.792 131.139 264.198L131.139 264.198C130.494 263.678 129.55 263.78 129.03 264.425C129.008 264.452 128.988 264.48 128.968 264.508Z" fill="#E4E4E4"/>
<path fill-rule="evenodd" clip-rule="evenodd" d="M174.076 272.616C173.076 275.234 172.576 277.184 172.576 278.467C172.576 279.987 172.831 282.204 173.34 285.12C175.115 285.12 191.065 285.12 221.189 285.12C222.433 281.036 221.715 278.832 219.036 278.506C216.357 278.181 214.132 277.887 212.36 277.624L190.025 267.734C189.647 267.566 189.204 267.737 189.036 268.115C189.033 268.121 189.031 268.126 189.029 268.132L187.561 271.669C185.081 272.818 183.065 273.393 181.515 273.393C180.22 273.393 178.417 272.859 176.108 271.791L176.108 271.791C175.356 271.443 174.464 271.77 174.116 272.521C174.102 272.552 174.088 272.584 174.076 272.616Z" fill="#E4E4E4"/>
<path d="M218.111 285.135H179.367C177.735 285.135 176.413 286.456 176.413 288.086C176.413 289.716 177.735 291.037 179.367 291.037H218.111C219.742 291.037 221.065 289.716 221.065 288.086C221.065 286.456 219.742 285.135 218.111 285.135Z" fill="#2F3676"/>
<path fill-rule="evenodd" clip-rule="evenodd" d="M143.98 162.885H146.612C150.286 162.885 153.419 165.543 154.013 169.165L172.625 282.606H163.622" fill="#2F3676"/>
<path d="M168.412 299.468C176.788 299.468 183.577 292.674 183.577 284.292C183.577 275.911 176.788 269.116 168.412 269.116C160.037 269.116 153.247 275.911 153.247 284.292C153.247 292.674 160.037 299.468 168.412 299.468Z" fill="#191847"/>
<path fill-rule="evenodd" clip-rule="evenodd" d="M154.172 133.347L178.074 156.594C185.028 159.552 190.727 162.817 195.169 166.391C196.168 167.593 197.255 169.894 192.555 168.864C187.855 167.834 182.865 166.962 181.982 168.486C181.099 170.009 183.701 172.345 182.069 174.339C180.98 175.668 177.32 171.439 171.088 161.652L146.234 147.042L154.172 133.347ZM37.2932 112.308L55.7692 112.377C41.6973 157.831 34.2275 181.63 33.3598 183.774C31.4074 188.598 35.5389 195.945 37.3057 199.893C31.5513 202.46 32.1644 192.953 24.9054 196.32C18.2797 199.393 13.2395 204.961 5.58448 200.252C4.64333 199.673 3.61199 197.493 6.10384 195.79C12.3119 191.546 21.2582 184.118 22.467 181.673C24.1154 178.339 29.0575 155.217 37.2932 112.308Z" fill="#FBDDCB"/>
<path fill-rule="evenodd" clip-rule="evenodd" d="M93.5926 60.0541L100.889 58.8065C112.382 99.3123 171.435 126.923 175.06 142.065C176.39 147.618 172.381 150.425 174.452 152.116L164.968 159.038C163.362 157.17 159.935 160.587 152.779 158.196C145.622 155.806 93.5926 108.016 93.5926 60.0541Z" fill="#DB2721"/>
<path fill-rule="evenodd" clip-rule="evenodd" d="M107.866 65.4317C107.021 119.065 138.119 132.744 131.192 154.258C125.473 172.023 70.7293 191.12 61.2562 173.706C57.4217 166.658 55.6819 158.132 55.4845 148.864C53.0634 155.985 51.1485 162.115 49.74 167.254C47.31 176.121 37.8896 177.53 37.8896 180.946L25.4784 177.53C26.3202 172.89 20.4692 170.63 22.038 160.263C29.0672 113.814 47.9532 80.144 78.6962 59.2539L79.0406 54.3518C79.1564 52.7013 80.5896 51.4569 82.2422 51.5721L82.2422 51.5714L105.716 53.2071C107.369 53.3224 108.615 54.754 108.5 56.4048C108.5 56.4051 108.5 56.4053 108.5 56.4056L107.866 65.4317Z" fill="#FF4133"/>
<path fill-rule="evenodd" clip-rule="evenodd" d="M54.9075 165.885H146.905C151.047 165.885 154.405 169.239 154.405 173.376V215.628H50.4075C48.7507 215.628 47.4075 214.287 47.4075 212.632V173.376C47.4075 169.239 50.7654 165.885 54.9075 165.885Z" fill="#2F3676"/>
<path fill-rule="evenodd" clip-rule="evenodd" d="M64.36 297.782C28.9972 297.782 0.330017 269.094 0.330017 233.706C0.330017 198.318 28.9972 169.63 64.36 169.63C99.7228 169.63 128.39 198.318 128.39 233.706C128.39 269.094 99.7228 297.782 64.36 297.782ZM64.36 285.978C93.2086 285.978 116.595 262.575 116.595 233.706C116.595 204.837 93.2086 181.434 64.36 181.434C35.5114 181.434 12.125 204.837 12.125 233.706C12.125 262.575 35.5114 285.978 64.36 285.978Z" fill="#191847"/>
<path d="M67.73 178.061H60.9901V289.351H67.73V178.061Z" fill="#191847"/>
<path fill-rule="evenodd" clip-rule="evenodd" d="M102.357 193.037L105.004 195.685C105.588 196.27 105.588 197.217 105.004 197.802L28.486 274.375C27.9008 274.961 26.951 274.962 26.3646 274.377C26.364 274.376 26.3633 274.376 26.3626 274.375L23.7159 271.727C23.1315 271.142 23.1315 270.195 23.7159 269.61L100.234 193.037C100.819 192.451 101.769 192.45 102.355 193.035C102.356 193.036 102.357 193.036 102.357 193.037Z" fill="#191847"/>
<path fill-rule="evenodd" clip-rule="evenodd" d="M119.965 231.832V235.58C119.965 236.408 119.293 237.078 118.465 237.078H10.255C9.42653 237.078 8.75496 236.408 8.75496 235.58V231.832C8.75496 231.004 9.42653 230.334 10.255 230.334H118.465C119.293 230.334 119.965 231.004 119.965 231.832Z" fill="#191847"/>
<path fill-rule="evenodd" clip-rule="evenodd" d="M105.004 271.727L102.357 274.375C101.772 274.961 100.822 274.962 100.236 274.377C100.235 274.376 100.235 274.376 100.234 274.375L23.716 197.802C23.1316 197.217 23.1316 196.27 23.716 195.685L26.3626 193.037C26.9478 192.451 27.8976 192.45 28.4839 193.035C28.4846 193.036 28.4853 193.036 28.486 193.037L105.004 269.61C105.588 270.195 105.588 271.142 105.004 271.727Z" fill="#191847"/>
</svg>