<?xml version="1.0" encoding="utf-8"?>
<!-- Generator: Adobe Illustrator 16.0.4, SVG Export Plug-In . SVG Version: 6.00 Build 0)  -->
<!DOCTYPE svg PUBLIC "-//W3C//DTD SVG 1.1//EN" "http://www.w3.org/Graphics/SVG/1.1/DTD/svg11.dtd">
<svg version="1.1" id="access" xmlns="http://www.w3.org/2000/svg" xmlns:xlink="http://www.w3.org/1999/xlink" x="0px" y="0px"
	 width="110.728px" height="141.726px" viewBox="10.367 6.863 110.728 141.726"
	 enable-background="new 10.367 6.863 110.728 141.726" xml:space="preserve">
<path d="M121.066,77.672l-3.57,43.543c-0.914,11.267-17.689,9.716-16.775-1.356l2.768-33.91l-11.377,0.637
	c2.797,5.73,4.374,12.152,4.374,18.963c0,11.404-4.456,21.785-11.71,29.48L73.896,124.15c16.028-17.633,3.627-46.284-20.484-46.284
	c-7.169,0-13.703,2.741-18.602,7.198l-10.879-10.88c6.09-5.73,13.869-9.716,22.533-11.128l20.844-23.723l-11.792-6.865
	L41.232,45.202c-8.304,7.419-19.543-5.121-11.211-12.567l18.824-16.803c2.712-2.436,6.671-2.824,9.827-0.997
	c0,0,38.561,22.394,38.616,22.45c4.484,2.796,5.729,9.965,1.688,14.561L82.81,70.253l29.37-1.633
	C117.301,68.316,121.482,72.606,121.066,77.672L121.066,77.672z M103.101,35.042c7.777,0,14.09-6.312,14.09-14.09
	c0-7.779-6.312-14.09-14.09-14.09c-7.779,0-14.09,6.311-14.09,14.09C89.011,28.731,95.322,35.042,103.101,35.042z M53.44,133.23
	c-22.312,0-35.267-25.08-22.893-43.212l-10.99-10.989c-5.758,7.279-9.19,16.498-9.19,26.491c0,36.18,41.716,55.751,69.591,33.909
	l-10.989-10.988C64.54,131.458,59.198,133.23,53.44,133.23z"/>
</svg>
