<svg width="150" height="250" viewBox="0 0 197 300" fill="none" xmlns="http://www.w3.org/2000/svg">
<path fill-rule="evenodd" clip-rule="evenodd" d="M103.322 31.8608C101.068 27.1208 100.112 21.7946 101.907 16.5932C107.081 1.60642 127.451 10.6543 129.519 19.4694C131.587 28.2846 125.845 47.7069 120.127 47.6548C117.846 47.634 113.665 45.0732 109.788 41.0511L107.18 62.3501L90.0424 57.7677L103.322 31.8608Z" fill="#B28B67"/>
<path fill-rule="evenodd" clip-rule="evenodd" d="M127.02 13.3569C126.691 13.0178 126.002 12.3043 125.634 12.014C125.547 11.9446 124.99 11.2688 124.969 11.27C124.4 11.3065 122.714 11.5521 122.434 12.0789C122.402 12.1161 122.372 12.1507 122.343 12.1805C122.025 12.5123 121.721 12.8586 121.425 13.2121C120.776 13.9882 120.172 14.8193 119.586 15.6474C118.445 17.2601 117.38 18.9378 116.36 20.6319C115.321 22.3565 114.357 24.1246 113.343 25.8641C111.884 28.3671 110.237 30.749 108.783 33.2522C107.855 34.8506 107.128 36.5245 106.774 38.3304C106.769 38.3521 106.765 38.3733 106.761 38.3955C106.759 38.4045 106.758 38.4136 106.756 38.4227C106.704 38.7008 106.66 38.982 106.626 39.2667C106.598 39.5103 106.569 39.7548 106.543 39.9998C107.566 38.8502 108.467 37.5232 109.38 36.2789C109.469 36.1571 109.556 36.0336 109.642 35.9094C109.892 35.6743 110.144 35.4422 110.399 35.2116C112.002 33.7578 113.608 32.3116 115.173 30.8136C117.988 28.1193 120.804 25.3522 123.91 23.0175C124.828 22.3281 125.758 21.6563 126.668 20.9574C127.187 20.5598 127.697 20.151 128.198 19.73C128.556 19.4289 130.027 18.4391 129.828 17.5548C129.726 17.1024 127.875 14.2367 127.02 13.3569Z" fill="#2C2C2C"/>
<path fill-rule="evenodd" clip-rule="evenodd" d="M125.738 12.1043C126.085 12.3346 126.112 11.491 125.818 11.1127C124.452 9.36029 118.029 7.1395 112.012 6.79812C107.982 6.56943 103.012 7.35376 99.282 9.07302C95.9194 10.6229 93.0452 13.7804 91.1216 17.0591C89.1018 20.5018 87.9067 24.3345 87.4528 28.2973C87.3532 29.1678 87.4078 30.0373 87.3375 30.8966C87.2584 31.8643 87.1064 32.7757 87.166 33.7537C87.2026 34.3525 87.3708 34.9748 87.3795 35.5695C87.3895 36.2481 87.1235 36.8023 86.8205 37.4087C86.3266 38.3972 85.7823 39.3699 85.1387 40.2679C84.1722 41.6165 83.1108 42.8378 82.264 44.279C81.1373 46.1966 76.9404 52.2951 78.1923 54.598L111.411 63.4799C111.187 60.9757 109.397 57.6205 109.544 55.0433C109.631 53.5252 110.332 50.3465 110.331 50.224C110.967 44.8663 110.167 42.0126 109.492 40.874C108.816 39.7354 107.671 39.1345 107.816 38.3424C108.417 35.0662 110.518 32.3348 112.257 29.5922C114.33 26.3235 116.129 22.8866 118.233 19.6392C119.165 18.2011 123.934 10.9086 125.738 12.1043Z" fill="#8991DC"/>
<path fill-rule="evenodd" clip-rule="evenodd" d="M113.097 12.6793C110.778 16.3166 109.939 18.365 108.751 23.8646L108.137 23.7003C108.364 18.2714 110.68 13.7227 112.325 12.4728L113.097 12.6793ZM93.5404 18.4376C94.3545 24.7227 94.5212 28.3501 99.8092 34.6739L99.2113 34.8916C93.7249 29.4961 93.0146 24.62 92.9862 18.5421L93.5404 18.4376ZM104.678 15.2411C103.58 23.5597 102.657 28.2322 105.82 38.4983L105.184 38.5207C101.555 29.3481 102.331 22.861 104.117 15.1386L104.678 15.2411ZM92.1681 37.4782L92.8348 37.0018C99.1181 40.9837 97.1634 45.2132 104.598 52.0138L103.758 52.258C97.0308 47.1143 97.0595 39.948 92.1681 37.4782Z" fill="black" fill-opacity="0.2"/>
<path fill-rule="evenodd" clip-rule="evenodd" d="M68.3875 123.05C69.7211 141.23 155.637 194.753 156.138 196.254C156.361 196.922 147.447 218.02 129.396 259.549L136.906 262.464C164.593 218.482 177.726 194.147 176.304 189.461C174.268 182.751 152.047 160.679 109.643 123.243L68.3875 123.05Z" fill="#B28B67"/>
<path fill-rule="evenodd" clip-rule="evenodd" d="M131.372 250.17L143.634 254.628C169.49 225.491 179.625 201.451 177.777 189.202C176.545 181.036 154.401 159 111.346 123.095L67.5082 123.095C69.004 165.196 148.637 196.415 149.702 198.209C150.767 200.003 140.285 217.574 131.372 250.17Z" fill="#2F3676"/>
<path fill-rule="evenodd" clip-rule="evenodd" d="M126.636 258.119C125.102 259.911 124.148 261.322 123.772 262.351C123.316 263.604 122.858 265.507 122.4 268.062C123.854 268.59 136.919 273.338 161.596 282.305C163.842 279.31 163.916 277.28 161.819 276.214C159.723 275.148 157.988 274.243 156.615 273.5L141.356 258.763C141.062 258.479 140.594 258.487 140.31 258.781C140.305 258.786 140.3 258.791 140.296 258.796L138.09 261.209C135.713 261.418 133.889 261.292 132.619 260.831C131.587 260.456 130.314 259.521 128.799 258.027L128.799 258.027C128.218 257.454 127.281 257.461 126.707 258.042C126.682 258.067 126.659 258.093 126.636 258.119Z" fill="#E4E4E4"/>
<path fill-rule="evenodd" clip-rule="evenodd" d="M78.2661 123.05L39.9929 214.819L2.37634 292.401H11.2513L108.35 123.05H78.2661Z" fill="#997659"/>
<path fill-rule="evenodd" clip-rule="evenodd" d="M1.84546 288.82C1.01798 291.026 0.604248 292.677 0.604248 293.772C0.604248 295.104 0.826445 297.048 1.27084 299.604C2.81811 299.604 16.7237 299.604 42.9877 299.604C44.0717 296.024 43.4459 294.092 41.1103 293.806C38.7746 293.521 36.8344 293.263 35.2895 293.033L15.8999 284.4C15.5268 284.234 15.0895 284.401 14.9232 284.774C14.9204 284.78 14.9176 284.787 14.9149 284.793L13.6686 287.813C11.5064 288.82 9.74938 289.324 8.39756 289.324C7.29923 289.324 5.78244 288.881 3.84717 287.995L3.84717 287.995C3.1045 287.655 2.22646 287.981 1.88601 288.722C1.87133 288.754 1.85781 288.787 1.84546 288.82Z" fill="#E4E4E4"/>
<path fill-rule="evenodd" clip-rule="evenodd" d="M5.77319 276.284L25.4935 279.978C40.7412 257.589 104.553 165.786 111.55 123.05H67.6479C44.2833 153.944 20.3074 253.525 5.77319 276.284Z" fill="#5C63AB"/>
<path fill-rule="evenodd" clip-rule="evenodd" d="M141.715 119.836L158.794 143.578C164.346 147.193 168.765 150.884 172.053 154.651C172.732 155.842 173.319 157.998 169.419 156.393C165.52 154.788 161.346 153.275 160.35 154.459C159.355 155.643 161.245 158.059 159.531 159.536C158.388 160.521 155.875 156.306 151.991 146.892L132.769 130.478L141.715 119.836ZM49.6355 106.557L64.8453 109.295C50.0917 137.954 42.1766 153.146 41.0999 154.869C38.6772 158.745 41.1207 165.729 42.0424 169.412C36.6827 170.759 38.6651 162.628 31.8843 164.438C25.6952 166.09 20.4933 170.142 14.6051 164.905C13.8812 164.261 13.3241 162.218 15.7355 161.123C21.7431 158.395 30.601 153.328 32.0181 151.396C33.9506 148.762 39.8231 133.816 49.6355 106.557Z" fill="#B28B67"/>
<path fill-rule="evenodd" clip-rule="evenodd" d="M104.159 50.3855L110.647 50.4145C116.708 79.3809 131.293 107.298 154.401 134.165L129.608 155.352C108.159 119.112 97.2488 83.6957 104.159 50.3855Z" fill="#191847"/>
<path fill-rule="evenodd" clip-rule="evenodd" d="M62.7312 124.616L118.804 134.483C111.39 100.638 109.631 72.6859 113.528 50.6269L97.0589 45.1326C79.9915 64.1541 71.5906 89.793 62.7312 124.616Z" fill="#DDE3E9"/>
<path fill-rule="evenodd" clip-rule="evenodd" d="M96.6947 45.0767C96.6976 45.0731 96.7005 45.0695 96.7035 45.0659L97.8075 45.2602C99.1206 45.5382 101.118 45.9741 103.801 46.5682L105.826 58.9571C103.744 73.2613 101.203 102.379 98.2015 146.31L61.4453 139.843C61.0155 142.838 60.6433 145.871 60.3287 148.944L32.9987 144.135C45.2288 98.7724 66.457 65.7483 96.6834 45.0624L96.6947 45.0767L96.6947 45.0767Z" fill="#2F3676"/>
<path fill-rule="evenodd" clip-rule="evenodd" d="M70.6099 102.163C68.3764 120.91 68.7343 134.167 71.6835 141.935L61.4099 140.127C63.3195 126.692 66.3862 114.038 70.6099 102.163L70.6099 102.163Z" fill="black" fill-opacity="0.1"/>
<path fill-rule="evenodd" clip-rule="evenodd" d="M73.5655 119.015L93.1808 113.785L91.6931 122.205L73.5655 119.015Z" fill="white" fill-opacity="0.2"/>
</svg>
