<svg viewBox="0 0 261 340" fill="none" xmlns="http://www.w3.org/2000/svg">
<path fill-rule="evenodd" clip-rule="evenodd" d="M153.235 36.49C151.147 30.8829 150.588 24.7394 153.139 19.0121C160.491 2.51019 182.708 14.8155 184.183 25.0315C185.658 35.2475 177.222 56.7295 170.74 56.1001C168.154 55.849 163.663 52.5242 159.663 47.5706L154.597 71.4959L135.606 64.5836L153.235 36.49Z" fill="#B28B67"/>
<path fill-rule="evenodd" clip-rule="evenodd" d="M181.955 17.8378C181.614 17.4198 180.903 16.5409 180.515 16.1746C180.423 16.0872 179.857 15.2641 179.834 15.2635C179.185 15.2481 177.248 15.359 176.877 15.9292C176.838 15.9682 176.8 16.0045 176.765 16.0355C176.37 16.3805 175.992 16.7434 175.621 17.1154C174.807 17.9319 174.04 18.8154 173.294 19.6974C171.839 21.4149 170.465 23.2136 169.139 25.0356C167.79 26.8904 166.522 28.8021 165.199 30.6762C163.296 33.373 161.192 35.9134 159.295 38.611C158.084 40.3334 157.093 42.1617 156.513 44.1771C156.506 44.2012 156.498 44.2248 156.491 44.2496C156.489 44.2598 156.486 44.2699 156.484 44.2801C156.397 44.5907 156.319 44.9056 156.252 45.2255C156.196 45.4993 156.14 45.7741 156.086 46.0497C157.36 44.8463 158.514 43.4293 159.672 42.1074C159.786 41.978 159.897 41.8464 160.007 41.714C160.313 41.4719 160.623 41.2335 160.934 40.9971C162.897 39.5061 164.862 38.024 166.786 36.4791C170.247 33.7003 173.715 30.8389 177.471 28.4977C178.58 27.8063 179.701 27.1361 180.804 26.4334C181.431 26.0335 182.051 25.6203 182.661 25.1921C183.097 24.8859 184.864 23.9087 184.726 22.8847C184.655 22.3608 182.838 18.9221 181.955 17.8378Z" fill="#2C2C2C"/>
<path fill-rule="evenodd" clip-rule="evenodd" d="M180.626 16.2964C180.997 16.5925 181.112 15.6373 180.815 15.1784C179.439 13.0523 172.371 9.89014 165.579 8.90252C161.028 8.24091 155.312 8.63593 150.91 10.2162C146.942 11.6408 143.369 14.9394 140.862 18.4706C138.23 22.1784 136.495 26.4112 135.588 30.8657C135.389 31.8442 135.365 32.837 135.2 33.8057C135.015 34.8966 134.752 35.9164 134.723 37.0328C134.706 37.7164 134.835 38.4398 134.786 39.1159C134.73 39.8875 134.374 40.4902 133.97 41.1486C133.312 42.2218 132.598 43.272 131.779 44.2276C130.549 45.6625 129.224 46.9434 128.121 48.4954C126.653 50.5605 121.288 57.0668 122.481 59.8065L159.292 73.2045C159.285 70.3387 157.586 66.3503 158.008 63.4387C158.256 61.7235 159.366 58.184 159.377 58.0448C160.629 52.0247 160.003 48.7044 159.349 47.3442C158.695 45.9839 157.455 45.1874 157.698 44.3025C158.705 40.6424 161.358 37.7504 163.603 34.8096C166.278 31.3046 168.658 27.5814 171.366 24.1038C172.566 22.5638 178.698 14.7588 180.626 16.2964Z" fill="#8991DC"/>
<path fill-rule="evenodd" clip-rule="evenodd" d="M166.231 15.689C163.24 19.5882 162.086 21.8306 160.194 27.9572L159.513 27.7094C160.308 21.5672 163.386 16.633 165.375 15.3775L166.231 15.689ZM143.471 20.2776C143.773 27.4958 143.604 31.6316 148.979 39.34L148.279 39.5275C142.587 32.8534 142.263 27.2456 142.832 20.341L143.471 20.2776ZM156.424 17.7585C154.357 27.0953 152.847 32.3091 155.421 44.2822L154.697 44.2443C151.487 33.4663 153.009 26.1773 155.799 17.5862L156.424 17.7585ZM140.031 41.7623L140.835 41.2878C147.57 46.4361 144.934 51.044 152.697 59.5079L151.721 59.7015C144.596 53.1896 145.337 45.0548 140.031 41.7623Z" fill="black" fill-opacity="0.2"/>
<path fill-rule="evenodd" clip-rule="evenodd" d="M109.741 138.739L172.314 243.35L219.225 331.79H229.33L150.729 138.739L109.741 138.739Z" fill="#997659"/>
<path fill-rule="evenodd" clip-rule="evenodd" d="M213.047 327.707C212.105 330.222 211.634 332.104 211.634 333.352C211.634 334.871 211.887 337.087 212.393 340C214.155 340 229.986 340 259.889 340C261.123 335.92 260.41 333.717 257.751 333.391C255.092 333.066 252.883 332.772 251.124 332.51L229.049 322.669C228.624 322.479 228.126 322.67 227.937 323.095C227.933 323.102 227.93 323.11 227.927 323.117L226.508 326.559C224.046 327.708 222.046 328.282 220.507 328.282C219.256 328.282 217.53 327.777 215.326 326.767L215.326 326.767C214.481 326.379 213.481 326.75 213.093 327.596C213.077 327.632 213.061 327.669 213.047 327.707Z" fill="#E4E4E4"/>
<path fill-rule="evenodd" clip-rule="evenodd" d="M206.197 317.628L225.683 311.733C217.145 286.211 206.682 258.125 194.291 227.475C181.901 196.824 168.595 167.246 154.372 138.739H99.3357C115.149 174.799 131.912 207.563 149.627 237.033C167.342 266.503 186.198 293.368 206.197 317.628Z" fill="#8C0571"/>
<path fill-rule="evenodd" clip-rule="evenodd" d="M105.628 138.739C99.7228 175.5 88.3323 222.467 87.2573 223.916C86.5407 224.882 60.7415 233.527 9.85986 249.851L12.0425 258.761C72.7188 250.007 104.69 243.215 107.956 238.385C112.855 231.14 137.318 173.908 146.793 138.739H105.628Z" fill="#B28B67"/>
<path fill-rule="evenodd" clip-rule="evenodd" d="M27.7456 242.149L31.5901 256.5C76.9724 260.48 104.779 257.604 115.01 247.871C125.242 238.139 136.902 201.762 149.992 138.739H97.512C89.2185 190.346 84.582 217.233 83.6023 219.399C82.6226 221.566 64.0037 229.149 27.7456 242.149Z" fill="#C2099D"/>
<path fill-rule="evenodd" clip-rule="evenodd" d="M12.3516 246.139C9.71131 245.648 7.77637 245.511 6.54679 245.728C5.05132 245.991 2.91299 246.625 0.131799 247.63C0.437699 249.364 3.18688 264.956 8.37933 294.404C12.612 294.911 14.6577 293.826 14.5163 291.151C14.375 288.476 14.2807 286.249 14.2335 284.472L20.0919 261.023C20.2047 260.571 19.9303 260.114 19.4791 260.001C19.4714 260 19.4636 259.998 19.4558 259.996L15.8196 259.196C14.261 256.971 13.3481 255.101 13.0808 253.585C12.8637 252.354 13.0611 250.566 13.6732 248.22L13.6732 248.22C13.9081 247.32 13.369 246.4 12.4689 246.165C12.4302 246.155 12.391 246.147 12.3516 246.139Z" fill="#E4E4E4"/>
<path fill-rule="evenodd" clip-rule="evenodd" d="M182.86 138.727L201.953 166.043C208.229 170.269 213.212 174.555 216.902 178.902C217.656 180.268 218.289 182.728 213.864 180.819C209.438 178.911 204.698 177.101 203.541 178.422C202.384 179.743 204.5 182.526 202.517 184.163C201.195 185.255 198.399 180.417 194.127 169.65L172.461 150.598L182.86 138.727ZM73.6755 99.864L87.5764 105.82C63.1102 135.049 50.0584 150.476 48.4211 152.103C44.7373 155.763 45.68 164.109 45.7683 168.418C39.4588 168.525 43.7356 160.05 35.7261 160.303C28.4154 160.535 21.593 163.672 16.3708 156.368C15.7288 155.471 15.6285 153.07 18.5918 152.481C25.9744 151.013 37.1252 147.696 39.1945 145.926C42.0164 143.514 53.51 128.159 73.6755 99.864Z" fill="#B28B67"/>
<path fill-rule="evenodd" clip-rule="evenodd" d="M149.767 57.6152L159.513 57.0783C163.6 90.4362 173.922 124.418 197.613 157.133L186.692 167.936C164.243 145.26 142.284 126.434 138.311 100.37C136.977 91.6216 146.978 66.9008 149.767 57.6152Z" fill="#C5CFD6"/>
<path fill-rule="evenodd" clip-rule="evenodd" d="M96.2946 134.088C121.236 143.662 141.437 149.075 156.896 150.326C158.812 150.481 159.912 147.527 159.616 145.243C155.014 109.677 153.462 79.3037 159.423 57.0543C156.68 57.6154 152.397 56.6621 146.575 54.1944C124.175 72.7672 109.653 97.0731 96.2946 134.088Z" fill="#323337"/>
<path fill-rule="evenodd" clip-rule="evenodd" d="M143.049 51.1897L149.824 53.005C148.936 62.6263 120.535 188.523 124.976 233.386L41.8687 211.118C53.6725 174.272 79.9002 133.24 104.352 99.5756C88.5259 107.715 72.1853 124.314 55.3303 149.373L40.825 141.24C65.6499 94.89 99.1863 64.9196 141.434 51.3287C141.56 51.1709 141.685 51.0139 141.81 50.8577L142.409 51.0183C142.668 50.937 142.926 50.8563 143.185 50.7763L143.049 51.1897Z" fill="#DDE3E9"/>
</svg>