<svg width="249" height="350" viewBox="0 0 249 350" fill="none" xmlns="http://www.w3.org/2000/svg">
<path fill-rule="evenodd" clip-rule="evenodd" d="M105.438 62.9266C101.934 58.8136 99.5625 53.773 99.9588 48.1248C101.101 31.8509 123.754 35.431 128.161 43.6446C132.568 51.8583 132.044 72.6929 126.349 74.1609C124.078 74.7464 119.239 73.3123 114.315 70.3441L117.406 92.2112H99.1552L105.438 62.9266Z" fill="#B28B67"/>
<mask id="mask0" mask-type="alpha" maskUnits="userSpaceOnUse" x="86" y="34" width="44" height="81">
<path d="M125.744 40.8379C126.151 40.9745 125.744 39.2254 124.772 38.5857C121.791 36.6241 112.915 33.7208 106.846 34.9807C102.78 35.8247 97.7099 37.9432 94.4624 40.6438C91.535 43.0783 88.8713 47.3703 87.8347 51.141C86.7464 55.1003 86.335 60.6095 87.8347 64.0638C89.6208 68.1776 95.9461 72.6113 96.1134 73.2001C96.3044 73.8721 95.5567 76.4972 95.0096 79.2632C94.4624 82.0292 94.7115 89.072 95.0096 90.2207C95.486 92.0562 98.0409 92.9588 99.1552 93.0916C105.315 93.8256 109.78 101.473 111.639 103.429C119.91 111.734 125.683 115.346 128.958 114.264C129.819 113.98 128.528 103.66 127.666 99.2375C126.804 94.8146 118.353 86.9218 117.811 84.3208C117.492 82.7885 117.439 80.1212 117.406 79.9996C116.609 74.5044 116.746 74.0577 115.583 71.8185C114.421 69.5792 113.519 69.4478 113.799 68.7955C115.164 65.6084 119.555 55.8568 120.551 52.6681C121.739 48.8677 121.178 50.116 122.402 46.3285C122.944 44.6513 123.634 40.1286 125.744 40.8379Z" fill="white"/>
</mask>
<g mask="url(#mask0)">
<path d="M125.744 40.8379C126.151 40.9745 125.744 39.2254 124.772 38.5857C121.791 36.6241 112.915 33.7208 106.846 34.9807C102.78 35.8247 97.7099 37.9432 94.4624 40.6438C91.535 43.0783 88.8713 47.3703 87.8347 51.141C86.7464 55.1003 86.335 60.6095 87.8347 64.0638C89.6208 68.1776 95.9461 72.6113 96.1134 73.2001C96.3044 73.8721 95.5567 76.4972 95.0096 79.2632C94.4624 82.0292 94.7115 89.072 95.0096 90.2207C95.486 92.0562 98.0409 92.9588 99.1552 93.0916C105.315 93.8256 109.78 101.473 111.639 103.429C119.91 111.734 125.683 115.346 128.958 114.264C129.819 113.98 128.528 103.66 127.666 99.2375C126.804 94.8146 118.353 86.9218 117.811 84.3208C117.492 82.7885 117.439 80.1212 117.406 79.9996C116.609 74.5044 116.746 74.0577 115.583 71.8185C114.421 69.5792 113.519 69.4478 113.799 68.7955C115.164 65.6084 119.555 55.8568 120.551 52.6681C121.739 48.8677 121.178 50.116 122.402 46.3285C122.944 44.6513 123.634 40.1286 125.744 40.8379Z" fill="#89C5CC"/>
<path fill-rule="evenodd" clip-rule="evenodd" d="M110.042 41.2615C108.708 45.4941 108.421 47.7534 108.708 53.5366H108.053C106.831 48.079 107.919 42.9412 109.219 41.2615H110.042ZM92.1454 52.1847C94.6313 58.2166 95.7647 61.7785 102.707 66.6597L102.17 67.035C95.2792 63.1295 93.2724 58.4708 91.6226 52.436L92.1454 52.1847ZM102.359 46.0464C103.488 54.6081 103.818 59.4985 109.7 68.8638L109.074 69.0551C103.021 60.9008 102.061 54.2454 101.775 46.0934L102.359 46.0464ZM95.862 71.4787L96.3974 70.8279C103.703 73.1162 102.889 77.8406 112.091 82.6252L111.322 83.0911C103.265 79.7659 101.381 72.6339 95.862 71.4787Z" fill="black" fill-opacity="0.2"/>
</g>
<path fill-rule="evenodd" clip-rule="evenodd" d="M84.493 155.14C85.8641 173.854 174.197 228.951 174.712 230.497C174.941 231.184 165.777 252.903 147.218 295.654L154.939 298.654C183.405 253.378 196.907 228.328 195.445 223.504C193.352 216.597 170.507 193.875 126.909 155.339L84.493 155.14Z" fill="#B28B67"/>
<path fill-rule="evenodd" clip-rule="evenodd" d="M149.25 285.999L161.856 290.588C188.44 260.594 198.86 235.847 196.96 223.237C195.693 214.831 172.926 192.147 128.66 155.186L83.5889 155.186C85.1267 198.525 167 230.662 168.095 232.509C169.19 234.356 158.413 252.444 149.25 285.999Z" fill="#2F3676"/>
<path fill-rule="evenodd" clip-rule="evenodd" d="M144.377 294.179C142.8 296.023 141.82 297.474 141.434 298.533C140.965 299.822 140.495 301.781 140.025 304.409C141.52 304.953 154.954 309.843 180.329 319.078C182.636 315.997 182.712 313.908 180.556 312.81C178.4 311.713 176.616 310.781 175.204 310.016L159.511 294.846C159.209 294.554 158.728 294.563 158.436 294.865C158.431 294.87 158.426 294.875 158.421 294.88L156.154 297.363C153.71 297.577 151.835 297.447 150.529 296.971C149.468 296.585 148.159 295.623 146.601 294.086L146.601 294.086C146.003 293.495 145.04 293.502 144.45 294.1C144.425 294.125 144.4 294.152 144.377 294.179Z" fill="#E4E4E4"/>
<path fill-rule="evenodd" clip-rule="evenodd" d="M94.6494 155.14L55.2995 249.608L16.6246 329.472H25.7493L125.58 155.14H94.6494Z" fill="#997659"/>
<path fill-rule="evenodd" clip-rule="evenodd" d="M16.0789 325.785C15.2281 328.056 14.8027 329.756 14.8027 330.883C14.8027 332.254 15.0312 334.255 15.4881 336.886C17.0789 336.886 31.3757 336.886 58.3785 336.886C59.4931 333.202 58.8497 331.212 56.4484 330.919C54.047 330.625 52.0521 330.359 50.4638 330.123L30.5287 321.236C30.1451 321.065 29.6955 321.237 29.5245 321.62C29.5216 321.627 29.5188 321.634 29.516 321.64L28.2346 324.749C26.0116 325.786 24.2052 326.304 22.8153 326.304C21.6861 326.304 20.1266 325.848 18.1369 324.936L18.1369 324.936C17.3733 324.586 16.4706 324.922 16.1206 325.685C16.1055 325.718 16.0916 325.751 16.0789 325.785Z" fill="#E4E4E4"/>
<path fill-rule="evenodd" clip-rule="evenodd" d="M20.1172 312.881L40.3923 316.684C56.0689 293.636 121.676 199.133 128.869 155.14H83.7326C59.7108 186.943 35.0603 289.452 20.1172 312.881Z" fill="#5C63AB"/>
<path fill-rule="evenodd" clip-rule="evenodd" d="M158.098 77.1791L186.922 68.5264C192.299 64.3406 197.371 61.2801 202.137 59.345C203.523 59.084 205.819 59.2356 202.951 62.4889C200.083 65.7423 197.212 69.2933 198.031 70.6575C198.85 72.0216 201.833 70.9933 202.697 73.1542C203.273 74.5948 198.33 75.6266 187.868 76.2495L165.457 89.4387L158.098 77.1791ZM155.551 127.998L179.808 145.81C186.387 147.585 191.883 149.794 196.297 152.436C197.34 153.386 198.6 155.31 194.276 154.978C189.952 154.645 185.388 154.49 184.792 155.965C184.195 157.44 186.812 159.204 185.606 161.194C184.802 162.52 181.003 159.194 174.209 151.214L150.189 141.253L155.551 127.998Z" fill="#B28B67"/>
<path fill-rule="evenodd" clip-rule="evenodd" d="M117.874 80.0277C131.083 104.658 150.185 123.539 177.877 143.167L167.391 154.989C136.472 143.499 120.154 136.566 112.14 113.296C110.129 107.455 108.723 88.8367 107.517 79.0406L117.874 80.0277Z" fill="#2026A2"/>
<path fill-rule="evenodd" clip-rule="evenodd" d="M80.9462 162.09H139.5C126.237 121.638 119.461 93.8747 119.174 78.7994C119.159 78.0308 117.74 76.6765 117.112 76.8539C112.519 78.1509 107.605 77.6659 102.369 75.399C88.4879 97.7244 83.6874 125.212 80.9462 162.09Z" fill="#F2F2F2"/>
<path fill-rule="evenodd" clip-rule="evenodd" d="M107.366 75.435C124.15 75.5725 151.382 78.6375 182.787 68.555L185.888 84.0479C162.152 99.3136 138.117 111.139 117.057 109.46C126.202 148.688 125.78 180.801 105.59 180.801C95.9484 180.801 85.5414 180.801 74.3691 180.801C69.4105 147.477 82.4428 101.272 94.5246 77.9667C94.986 77.0767 95.9683 75.399 98.282 75.399C100.298 75.399 103.322 75.399 107.354 75.399C107.358 75.411 107.362 75.423 107.366 75.435Z" fill="#1F28CF"/>
</svg>
