<svg width="31" height="42" viewBox="0 0 31 42" fill="none" xmlns="http://www.w3.org/2000/svg">
<path d="M22.7263 15.2728C22.7263 19.4887 19.2918 22.9091 15.0551 22.9091C10.8178 22.9091 7.38384 19.4887 7.38384 15.2728C7.38384 11.0557 10.8184 7.63656 15.0551 7.63656C19.2927 7.63625 22.7263 11.0554 22.7263 15.2728ZM30.6855 15.2728C30.6855 6.83771 23.8168 0 15.3428 0C6.86937 0 0 6.83771 0 15.2728C0 18.9815 1.3293 22.3819 3.53827 25.027L15.356 42L27.3466 24.7794C27.7772 24.2429 28.1717 23.6775 28.5275 23.0831L28.6488 22.91H28.6289C29.9346 20.6621 30.6855 18.056 30.6855 15.2728Z" fill="#8C0571"/>
<circle cx="15" cy="15" r="8" fill="#70025A"/>
<path d="M18.567 9.969V10.529C18.567 10.6877 18.5483 10.8183 18.511 10.921C18.4783 11.0237 18.4457 11.11 18.413 11.18L14.255 19.559C14.1943 19.6803 14.1103 19.7853 14.003 19.874C13.8957 19.958 13.7533 20 13.576 20H12.68L16.894 11.726C16.9547 11.6093 17.0177 11.502 17.083 11.404C17.1483 11.306 17.2183 11.2127 17.293 11.124H12.057C11.9777 11.124 11.9077 11.0937 11.847 11.033C11.7863 10.9677 11.756 10.8953 11.756 10.816V9.969H18.567Z" fill="white"/>
</svg>
