<?xml version="1.0" encoding="utf-8"?>
<!-- Generator: Adobe Illustrator 16.0.4, SVG Export Plug-In . SVG Version: 6.00 Build 0)  -->
<!DOCTYPE svg PUBLIC "-//W3C//DTD SVG 1.1//EN" "http://www.w3.org/Graphics/SVG/1.1/DTD/svg11.dtd">
<svg version="1.1" id="wc" xmlns="http://www.w3.org/2000/svg" xmlns:xlink="http://www.w3.org/1999/xlink" x="0px" y="0px"
	 width="101.522px" height="51.917px" viewBox="10.23 11.178 101.522 51.917" enable-background="new 10.23 11.178 101.522 51.917"
	 xml:space="preserve">
<g>
	<path d="M60.418,62.23H46.665l-2.592-14.545c-1.08-6.048-2.232-12.601-2.448-15.769h-0.072c-0.144,2.52-1.224,9.217-2.448,15.769
		L36.44,62.23H22.399L10.23,12.042h13.609l2.808,13.537c2.376,11.305,2.808,16.202,2.88,18.074H29.6
		c0.288-4.032,1.152-10.297,2.52-17.713l2.592-13.897h14.33l3.24,16.777c0.72,3.816,1.728,8.641,2.016,14.762h0.072
		c0.288-4.464,1.8-14.186,2.809-19.082l2.52-12.457h13.753L60.418,62.23z"/>
	<path d="M96.126,63.094c-6.192,0-11.809-1.872-16.417-6.913c-3.96-4.393-5.761-10.945-5.761-18.074
		c0-6.265,1.008-11.017,3.457-15.553c4.248-7.849,11.521-11.377,20.306-11.377c5.112,0,10.513,1.44,12.817,3.672l-5.472,9.504
		c-2.232-1.728-4.752-2.664-7.489-2.664c-2.232,0-4.32,0.576-5.617,1.944c-2.448,2.52-3.24,5.112-3.24,11.017
		c0,8.281,0.36,12.241,2.448,14.689c1.656,1.944,3.745,3.168,6.409,3.168c3.24,0,5.833-0.792,8.641-3.312l5.545,8.785
		C108.584,60.934,103.471,63.094,96.126,63.094z"/>
</g>
</svg>
