<svg id="Layer_1" data-name="Layer 1" xmlns="http://www.w3.org/2000/svg" viewBox="0 0 199.24 337"><defs><style>.cls-1{fill:#b28b67;}.cls-1,.cls-10,.cls-2,.cls-3,.cls-4,.cls-5,.cls-6,.cls-7,.cls-8,.cls-9{fill-rule:evenodd;}.cls-2{fill:#2f3676;}.cls-3{fill:#e4e4e4;}.cls-4{fill:#997659;}.cls-5{fill:#5c63ab;}.cls-6{fill:#191847;}.cls-7{fill:#e87613;}.cls-8{fill:#dde3e9;}.cls-9{fill:#ff9b21;}.cls-10{fill-opacity:0.1;}</style></defs><title>Artboard 1</title><path class="cls-1" d="M75.66,139.78c1.49,20.3,97.38,80.05,97.94,81.72q.38,1.13-29.85,70.66l8.38,3.26q46.37-73.65,44-81.5-3.41-11.23-74.4-73.92Z"/><path class="cls-2" d="M146,281.69l13.68,5c28.86-32.53,40.18-59.37,38.11-73q-2.06-13.66-74.14-73.8H74.68c1.67,47,90.55,81.85,91.74,83.86S155.91,245.3,146,281.69Z"/><path class="cls-3" d="M140.64,290.6a17.91,17.91,0,0,0-3.19,4.74,41.29,41.29,0,0,0-1.53,6.39l43.77,16q3.75-5,.24-6.82c-2.34-1.19-4.28-2.21-5.81-3l-17.05-16.51a.82.82,0,0,0-1.17,0v0l-2.46,2.69a14.85,14.85,0,0,1-6.11-.42,13.56,13.56,0,0,1-4.27-3.15h0a1.64,1.64,0,0,0-2.33,0Z"/><path class="cls-4" d="M86.68,139.78,44,242.23,2,328.84h9.9L120.26,139.78Z"/><path class="cls-3" d="M1.39,324.92A17.64,17.64,0,0,0,0,330.47,42.22,42.22,0,0,0,.74,337H47.31q1.81-6-2.1-6.49c-2.61-.32-4.77-.61-6.5-.87L17.07,320a.83.83,0,0,0-1.09.41v0l-1.39,3.38a14.75,14.75,0,0,1-5.88,1.69A13.16,13.16,0,0,1,3.62,324h0a1.65,1.65,0,0,0-2.19.82A.49.49,0,0,0,1.39,324.92Z"/><path class="cls-5" d="M5.77,310.84l22,4.13c17-25,88.24-127.48,96.05-175.19h-49C48.75,174.27,22,285.44,5.77,310.84Z"/><path class="cls-1" d="M102,40.09C99.33,34.86,98.13,29,100,23.15c5.43-16.73,28.39-7,30.9,2.76s-3.45,31.43-9.83,31.46c-2.55,0-7.28-2.77-11.7-7.17L107,73.9,87.72,69.07Z"/><path class="cls-6" d="M131.79,30.23a23.63,23.63,0,0,0-.19-3.67,16.44,16.44,0,0,0-1.1-4.24,29.26,29.26,0,0,0-3.92-7.11,18.12,18.12,0,0,0-11.92-7.37,13.79,13.79,0,0,0-7.15,1c-2.06.89-4.21,2.42-6.49,2-2.48-.46-4.18-3.16-5.82-5a18.45,18.45,0,0,0-6.39-4.79A12.27,12.27,0,0,0,76.39,2.49c-4.11,3-7.78,7.88-6.93,13.36a6.67,6.67,0,0,0,1,2.75c.51.76,1.35,1.64,1.39,2.65s-1.14,2.16-1.69,3a9.8,9.8,0,0,0-1.73,3.9A10.82,10.82,0,0,0,70.19,35a11.07,11.07,0,0,0,4.88,4.25,16.46,16.46,0,0,0,4.13,1.38,14.56,14.56,0,0,0,2.09.1,1.89,1.89,0,0,1,1.49.78,13.51,13.51,0,0,0,7.86,4.16c2.58.42,5.64.54,8.13-.66,2.77-1.34,3.37-4,3.53-6.93.5.43,2,1,1.37-.36-.26-.54-.92-.89-1.34-1.28a5.74,5.74,0,0,1-1.26-1.58c-1.25-2.44,1.53-6.06,3.89-6.18,3.52-.18,3.11,4.59,5.15,6.37,1.17,1,2.81.43,4-.27a15.4,15.4,0,0,0,4.22-3.92c1-1.26,2-2.54,3-3.78.47-.59,2-2.18,1.66-3.06,2.45.13,4.82,1.74,6.52,3.52A4.82,4.82,0,0,1,131,30c0,.22.11.87.36.95C131.8,31.15,131.76,30.52,131.79,30.23Z"/><path class="cls-1" d="M154.4,132.62l26,19.76a70.53,70.53,0,0,1,17.78,7.49c1.11,1,2.44,3.15-2.24,2.71s-9.64-.7-10.32.89,2.13,3.55.79,5.68q-1.35,2.13-12.19-11l-25.88-11.24Zm-101.11-1.1,17.25.37q-16.88,51.17-18.2,54.3c-2,4.69,1.93,11.95,3.59,15.85-5.67,2.41-4.91-6.89-12.07-3.72-6.54,2.9-11.56,8.26-19,3.52-.91-.58-1.88-2.73.58-4.36,6.15-4,15-11.16,16.25-13.54Q44.23,179.1,53.29,131.52Z"/><path class="cls-7" d="M103.57,60.15l7.16-1.1c26.08,23.29,36.2,67.34,68.26,91.14l-8,9.52C114.81,151.77,101.78,98,103.57,60.15Z"/><path class="cls-8" d="M70.9,149.1l63.16,1.11c2.88,0,2.41-4.11,2-6.22-4.39-24.3-22.74-50.73-22.14-85.2L95.78,55.62C80.3,79.54,74.57,109.22,70.9,149.1Z"/><path class="cls-9" d="M72.62,79a10.41,10.41,0,0,1-6.19-5.42C60,61.47,62.5,54.91,69.65,52.86S83.08,55.4,94.41,55.6a12.43,12.43,0,0,1,1.7.14l5.69.43q23.11,83.43,11.62,111l-49.71-.87A170.73,170.73,0,0,1,55,183.43l-13.54-.24Q40.57,121.46,72.62,79Z"/><path class="cls-10" d="M75,138.06q2,19.62,7.12,28.55l-18.44-.33Q69.07,154.39,75,138.06Z"/></svg>