<svg width="31" height="42" viewBox="0 0 31 42" fill="none" xmlns="http://www.w3.org/2000/svg">
<path d="M22.7263 15.2728C22.7263 19.4887 19.2918 22.9091 15.0551 22.9091C10.8178 22.9091 7.38384 19.4887 7.38384 15.2728C7.38384 11.0557 10.8184 7.63656 15.0551 7.63656C19.2927 7.63625 22.7263 11.0554 22.7263 15.2728ZM30.6855 15.2728C30.6855 6.83771 23.8168 0 15.3428 0C6.86937 0 0 6.83771 0 15.2728C0 18.9815 1.3293 22.3819 3.53827 25.027L15.356 42L27.3466 24.7794C27.7772 24.2429 28.1717 23.6775 28.5275 23.0831L28.6488 22.91H28.6289C29.9346 20.6621 30.6855 18.056 30.6855 15.2728Z" fill="#8C0571"/>
<circle cx="15" cy="15" r="8" fill="#70025A"/>
<path d="M13.534 13.756C14.0567 13.644 14.5373 13.588 14.976 13.588C15.4987 13.588 15.9607 13.665 16.362 13.819C16.7633 13.973 17.097 14.1853 17.363 14.456C17.6337 14.7267 17.8367 15.0463 17.972 15.415C18.112 15.7837 18.182 16.185 18.182 16.619C18.182 17.151 18.0887 17.6317 17.902 18.061C17.72 18.4903 17.4657 18.859 17.139 19.167C16.817 19.4703 16.4367 19.7037 15.998 19.867C15.5593 20.0303 15.0857 20.112 14.577 20.112C14.283 20.112 14.0007 20.0817 13.73 20.021C13.4593 19.965 13.205 19.888 12.967 19.79C12.7337 19.692 12.5167 19.58 12.316 19.454C12.1153 19.328 11.938 19.195 11.784 19.055L12.169 18.523C12.253 18.4017 12.3627 18.341 12.498 18.341C12.5913 18.341 12.6963 18.3783 12.813 18.453C12.9297 18.523 13.072 18.6023 13.24 18.691C13.408 18.7797 13.604 18.8613 13.828 18.936C14.0567 19.006 14.3273 19.041 14.64 19.041C14.99 19.041 15.305 18.985 15.585 18.873C15.865 18.761 16.1053 18.6023 16.306 18.397C16.5067 18.187 16.6607 17.9373 16.768 17.648C16.8753 17.3587 16.929 17.0343 16.929 16.675C16.929 16.3623 16.8823 16.08 16.789 15.828C16.7003 15.576 16.5627 15.3613 16.376 15.184C16.194 15.0067 15.9653 14.869 15.69 14.771C15.4147 14.673 15.0927 14.624 14.724 14.624C14.472 14.624 14.2083 14.645 13.933 14.687C13.6623 14.729 13.3847 14.7967 13.1 14.89L12.316 14.659L13.121 9.969H17.874V10.515C17.874 10.6923 17.818 10.8393 17.706 10.956C17.5987 11.068 17.412 11.124 17.146 11.124H13.996L13.534 13.756Z" fill="white"/>
</svg>
