<svg width="31" height="42" viewBox="0 0 31 42" fill="none" xmlns="http://www.w3.org/2000/svg">
<path d="M22.7263 15.2728C22.7263 19.4887 19.2918 22.9091 15.0551 22.9091C10.8178 22.9091 7.38384 19.4887 7.38384 15.2728C7.38384 11.0557 10.8184 7.63656 15.0551 7.63656C19.2927 7.63625 22.7263 11.0554 22.7263 15.2728ZM30.6855 15.2728C30.6855 6.83771 23.8168 0 15.3428 0C6.86937 0 0 6.83771 0 15.2728C0 18.9815 1.3293 22.3819 3.53827 25.027L15.356 42L27.3466 24.7794C27.7772 24.2429 28.1717 23.6775 28.5275 23.0831L28.6488 22.91H28.6289C29.9346 20.6621 30.6855 18.056 30.6855 15.2728Z" fill="#8C0571"/>
<circle cx="15" cy="15" r="8" fill="#70025A"/>
<path d="M17.909 18.817C18.0443 18.817 18.1517 18.8567 18.231 18.936C18.3103 19.0153 18.35 19.118 18.35 19.244V20H11.658V19.573C11.658 19.4843 11.6767 19.3933 11.714 19.3C11.7513 19.2067 11.8097 19.1203 11.889 19.041L15.102 15.814C15.368 15.5433 15.6107 15.2843 15.83 15.037C16.0493 14.785 16.236 14.533 16.39 14.281C16.544 14.029 16.663 13.7747 16.747 13.518C16.831 13.2567 16.873 12.979 16.873 12.685C16.873 12.391 16.8263 12.1343 16.733 11.915C16.6397 11.691 16.5113 11.5067 16.348 11.362C16.1893 11.2173 16.0003 11.11 15.781 11.04C15.5617 10.9653 15.326 10.928 15.074 10.928C14.8173 10.928 14.5817 10.9653 14.367 11.04C14.1523 11.1147 13.961 11.2197 13.793 11.355C13.6297 11.4857 13.492 11.642 13.38 11.824C13.268 12.006 13.1887 12.2067 13.142 12.426C13.086 12.5893 13.009 12.699 12.911 12.755C12.8177 12.8063 12.6847 12.8203 12.512 12.797L11.861 12.685C11.9263 12.2277 12.0523 11.824 12.239 11.474C12.4303 11.1193 12.6683 10.823 12.953 10.585C13.2423 10.347 13.5713 10.1673 13.94 10.046C14.3087 9.92 14.7077 9.857 15.137 9.857C15.5617 9.857 15.9583 9.92 16.327 10.046C16.6957 10.172 17.0153 10.3563 17.286 10.599C17.5567 10.837 17.769 11.1287 17.923 11.474C18.077 11.8193 18.154 12.2113 18.154 12.65C18.154 13.0233 18.098 13.371 17.986 13.693C17.874 14.0103 17.7223 14.3137 17.531 14.603C17.3397 14.8923 17.118 15.1747 16.866 15.45C16.6187 15.7253 16.355 16.003 16.075 16.283L13.429 18.985C13.6157 18.9337 13.8047 18.894 13.996 18.866C14.1873 18.8333 14.3717 18.817 14.549 18.817H17.909Z" fill="white"/>
</svg>
