<svg width="31" height="42" viewBox="0 0 31 42" fill="none" xmlns="http://www.w3.org/2000/svg">
<path d="M22.7263 15.2728C22.7263 19.4887 19.2918 22.9091 15.0551 22.9091C10.8178 22.9091 7.38384 19.4887 7.38384 15.2728C7.38384 11.0557 10.8184 7.63656 15.0551 7.63656C19.2927 7.63625 22.7263 11.0554 22.7263 15.2728ZM30.6855 15.2728C30.6855 6.83771 23.8168 0 15.3428 0C6.86937 0 0 6.83771 0 15.2728C0 18.9815 1.3293 22.3819 3.53827 25.027L15.356 42L27.3466 24.7794C27.7772 24.2429 28.1717 23.6775 28.5275 23.0831L28.6488 22.91H28.6289C29.9346 20.6621 30.6855 18.056 30.6855 15.2728Z" fill="#8C0571"/>
<circle cx="15" cy="15" r="8" fill="#70025A"/>
<path d="M18.126 19.048V20H12.75V19.048H14.899V12.209C14.899 12.0037 14.906 11.796 14.92 11.586L13.135 13.119C13.0743 13.1703 13.0137 13.203 12.953 13.217C12.8923 13.2263 12.8363 13.2263 12.785 13.217C12.7337 13.2077 12.6847 13.189 12.638 13.161C12.596 13.133 12.5633 13.1027 12.54 13.07L12.148 12.531L15.137 9.948H16.152V19.048H18.126Z" fill="white"/>
</svg>
