<svg width="31" height="42" viewBox="0 0 31 42" fill="none" xmlns="http://www.w3.org/2000/svg">
<path d="M22.7263 15.2728C22.7263 19.4887 19.2918 22.9091 15.0551 22.9091C10.8178 22.9091 7.38384 19.4887 7.38384 15.2728C7.38384 11.0557 10.8184 7.63656 15.0551 7.63656C19.2927 7.63625 22.7263 11.0554 22.7263 15.2728ZM30.6855 15.2728C30.6855 6.83771 23.8168 0 15.3428 0C6.86937 0 0 6.83771 0 15.2728C0 18.9815 1.3293 22.3819 3.53827 25.027L15.356 42L27.3466 24.7794C27.7772 24.2429 28.1717 23.6775 28.5275 23.0831L28.6488 22.91H28.6289C29.9346 20.6621 30.6855 18.056 30.6855 15.2728Z" fill="#8C0571"/>
<circle cx="15" cy="15" r="8" fill="#70025A"/>
<path d="M15.06 19.118C15.3867 19.118 15.6783 19.0737 15.935 18.985C16.1963 18.8917 16.4157 18.7633 16.593 18.6C16.775 18.432 16.9127 18.2337 17.006 18.005C17.104 17.7717 17.153 17.515 17.153 17.235C17.153 16.8897 17.0947 16.5957 16.978 16.353C16.866 16.1057 16.712 15.905 16.516 15.751C16.3247 15.597 16.103 15.485 15.851 15.415C15.599 15.3403 15.3353 15.303 15.06 15.303C14.7847 15.303 14.521 15.3403 14.269 15.415C14.017 15.485 13.793 15.597 13.597 15.751C13.4057 15.905 13.2517 16.1057 13.135 16.353C13.023 16.5957 12.967 16.8897 12.967 17.235C12.967 17.515 13.0137 17.7717 13.107 18.005C13.205 18.2337 13.3427 18.432 13.52 18.6C13.702 18.7633 13.9213 18.8917 14.178 18.985C14.4393 19.0737 14.7333 19.118 15.06 19.118ZM15.06 10.823C14.7613 10.823 14.4977 10.8673 14.269 10.956C14.045 11.0447 13.856 11.166 13.702 11.32C13.5527 11.474 13.4383 11.6537 13.359 11.859C13.2843 12.0643 13.247 12.2837 13.247 12.517C13.247 12.7457 13.2797 12.9673 13.345 13.182C13.4103 13.3967 13.5153 13.588 13.66 13.756C13.8047 13.9193 13.9913 14.0523 14.22 14.155C14.4533 14.253 14.7333 14.302 15.06 14.302C15.3867 14.302 15.6643 14.253 15.893 14.155C16.1263 14.0523 16.3153 13.9193 16.46 13.756C16.6047 13.588 16.7097 13.3967 16.775 13.182C16.8403 12.9673 16.873 12.7457 16.873 12.517C16.873 12.2837 16.8333 12.0643 16.754 11.859C16.6793 11.6537 16.565 11.474 16.411 11.32C16.2617 11.166 16.0727 11.0447 15.844 10.956C15.62 10.8673 15.3587 10.823 15.06 10.823ZM16.495 14.771C17.1203 14.9483 17.601 15.2447 17.937 15.66C18.273 16.0753 18.441 16.6073 18.441 17.256C18.441 17.6947 18.357 18.0913 18.189 18.446C18.0257 18.796 17.7947 19.0947 17.496 19.342C17.202 19.5893 16.8473 19.7807 16.432 19.916C16.0167 20.0467 15.5593 20.112 15.06 20.112C14.5607 20.112 14.1033 20.0467 13.688 19.916C13.2727 19.7807 12.9157 19.5893 12.617 19.342C12.3183 19.0947 12.0873 18.796 11.924 18.446C11.7607 18.0913 11.679 17.6947 11.679 17.256C11.679 16.6073 11.847 16.0753 12.183 15.66C12.519 15.2447 12.9997 14.9483 13.625 14.771C13.0977 14.575 12.6987 14.2833 12.428 13.896C12.162 13.504 12.029 13.0373 12.029 12.496C12.029 12.1273 12.1013 11.782 12.246 11.46C12.3907 11.138 12.596 10.858 12.862 10.62C13.128 10.382 13.4453 10.1953 13.814 10.06C14.1873 9.92467 14.6027 9.857 15.06 9.857C15.5127 9.857 15.9257 9.92467 16.299 10.06C16.6723 10.1953 16.992 10.382 17.258 10.62C17.524 10.858 17.7293 11.138 17.874 11.46C18.0187 11.782 18.091 12.1273 18.091 12.496C18.091 13.0373 17.9557 13.504 17.685 13.896C17.419 14.2833 17.0223 14.575 16.495 14.771Z" fill="white"/>
</svg>
