<svg width="31" height="42" viewBox="0 0 31 42" fill="none" xmlns="http://www.w3.org/2000/svg">
<path d="M22.7263 15.2728C22.7263 19.4887 19.2918 22.9091 15.0551 22.9091C10.8178 22.9091 7.38384 19.4887 7.38384 15.2728C7.38384 11.0557 10.8184 7.63656 15.0551 7.63656C19.2927 7.63625 22.7263 11.0554 22.7263 15.2728ZM30.6855 15.2728C30.6855 6.83771 23.8168 0 15.3428 0C6.86937 0 0 6.83771 0 15.2728C0 18.9815 1.3293 22.3819 3.53827 25.027L15.356 42L27.3466 24.7794C27.7772 24.2429 28.1717 23.6775 28.5275 23.0831L28.6488 22.91H28.6289C29.9346 20.6621 30.6855 18.056 30.6855 15.2728Z" fill="#8C0571"/>
<circle cx="15" cy="15" r="8" fill="#70025A"/>
<path d="M11.91 12.685C11.9753 12.2277 12.1013 11.824 12.288 11.474C12.4747 11.1193 12.7103 10.823 12.995 10.585C13.2843 10.347 13.6133 10.1673 13.982 10.046C14.3553 9.92 14.7567 9.857 15.186 9.857C15.6107 9.857 16.0027 9.91767 16.362 10.039C16.7213 10.1603 17.0293 10.333 17.286 10.557C17.5473 10.781 17.7503 11.0517 17.895 11.369C18.0397 11.6863 18.112 12.0387 18.112 12.426C18.112 12.7433 18.07 13.028 17.986 13.28C17.9067 13.5273 17.79 13.7443 17.636 13.931C17.4867 14.1177 17.3047 14.2763 17.09 14.407C16.8753 14.5377 16.635 14.645 16.369 14.729C17.0223 14.897 17.5123 15.1863 17.839 15.597C18.1703 16.003 18.336 16.5117 18.336 17.123C18.336 17.585 18.2473 18.0003 18.07 18.369C17.8973 18.7377 17.6593 19.0527 17.356 19.314C17.0527 19.5707 16.698 19.769 16.292 19.909C15.8907 20.0443 15.459 20.112 14.997 20.112C14.465 20.112 14.01 20.0467 13.632 19.916C13.254 19.7807 12.9343 19.5963 12.673 19.363C12.4117 19.1297 12.197 18.8543 12.029 18.537C11.861 18.215 11.7187 17.8673 11.602 17.494L12.141 17.27C12.281 17.2093 12.4163 17.193 12.547 17.221C12.6823 17.249 12.7803 17.326 12.841 17.452C12.9017 17.5827 12.9763 17.739 13.065 17.921C13.1583 18.103 13.2843 18.278 13.443 18.446C13.6017 18.614 13.8023 18.7563 14.045 18.873C14.2923 18.9897 14.605 19.048 14.983 19.048C15.333 19.048 15.6387 18.992 15.9 18.88C16.166 18.7633 16.3853 18.614 16.558 18.432C16.7353 18.25 16.8683 18.047 16.957 17.823C17.0457 17.599 17.09 17.3773 17.09 17.158C17.09 16.8873 17.055 16.64 16.985 16.416C16.915 16.192 16.7843 15.9983 16.593 15.835C16.4017 15.6717 16.138 15.5433 15.802 15.45C15.4707 15.3567 15.0437 15.31 14.521 15.31V14.407C14.9503 14.4023 15.3143 14.3557 15.613 14.267C15.9163 14.1783 16.1613 14.057 16.348 13.903C16.5393 13.749 16.677 13.5647 16.761 13.35C16.8497 13.1353 16.894 12.8973 16.894 12.636C16.894 12.3467 16.8473 12.0947 16.754 11.88C16.6653 11.6653 16.5417 11.488 16.383 11.348C16.2243 11.208 16.0353 11.103 15.816 11.033C15.6013 10.963 15.368 10.928 15.116 10.928C14.864 10.928 14.6283 10.9653 14.409 11.04C14.1943 11.1147 14.003 11.2197 13.835 11.355C13.6717 11.4857 13.534 11.642 13.422 11.824C13.31 12.006 13.2307 12.2067 13.184 12.426C13.1233 12.5893 13.0463 12.699 12.953 12.755C12.8643 12.8063 12.7337 12.8203 12.561 12.797L11.91 12.685Z" fill="white"/>
</svg>
