<svg width="31" height="42" viewBox="0 0 31 42" fill="none" xmlns="http://www.w3.org/2000/svg">
<path d="M22.7263 15.2728C22.7263 19.4887 19.2918 22.9091 15.0551 22.9091C10.8178 22.9091 7.38384 19.4887 7.38384 15.2728C7.38384 11.0557 10.8184 7.63656 15.0551 7.63656C19.2927 7.63625 22.7263 11.0554 22.7263 15.2728ZM30.6855 15.2728C30.6855 6.83771 23.8168 0 15.3428 0C6.86937 0 0 6.83771 0 15.2728C0 18.9815 1.3293 22.3819 3.53827 25.027L15.356 42L27.3466 24.7794C27.7772 24.2429 28.1717 23.6775 28.5275 23.0831L28.6488 22.91H28.6289C29.9346 20.6621 30.6855 18.056 30.6855 15.2728Z" fill="#8C0571"/>
<circle cx="15" cy="15" r="8" fill="#70025A"/>
<path d="M15.046 19.076C15.382 19.076 15.6853 19.0223 15.956 18.915C16.2313 18.8077 16.4647 18.6583 16.656 18.467C16.852 18.2757 17.0013 18.0493 17.104 17.788C17.2113 17.5267 17.265 17.242 17.265 16.934C17.265 16.6073 17.2137 16.3133 17.111 16.052C17.0083 15.786 16.8613 15.562 16.67 15.38C16.4833 15.1933 16.2593 15.051 15.998 14.953C15.7367 14.855 15.4497 14.806 15.137 14.806C14.801 14.806 14.4977 14.8643 14.227 14.981C13.9563 15.093 13.7253 15.247 13.534 15.443C13.3473 15.6343 13.2027 15.8583 13.1 16.115C13.002 16.367 12.953 16.6307 12.953 16.906C12.953 17.228 12.9997 17.522 13.093 17.788C13.1863 18.054 13.3217 18.2827 13.499 18.474C13.681 18.6653 13.9003 18.8147 14.157 18.922C14.4183 19.0247 14.7147 19.076 15.046 19.076ZM14.318 13.728C14.2293 13.84 14.143 13.9497 14.059 14.057C13.9797 14.1597 13.9027 14.2623 13.828 14.365C14.066 14.2017 14.3273 14.0757 14.612 13.987C14.8967 13.8983 15.207 13.854 15.543 13.854C15.949 13.854 16.3317 13.9217 16.691 14.057C17.0503 14.1877 17.363 14.3813 17.629 14.638C17.8997 14.89 18.1143 15.2027 18.273 15.576C18.4317 15.9447 18.511 16.367 18.511 16.843C18.511 17.305 18.427 17.7343 18.259 18.131C18.091 18.5277 17.8553 18.873 17.552 19.167C17.2533 19.461 16.8917 19.692 16.467 19.86C16.047 20.028 15.5827 20.112 15.074 20.112C14.57 20.112 14.1127 20.0327 13.702 19.874C13.2913 19.7107 12.9413 19.482 12.652 19.188C12.3673 18.8893 12.1457 18.53 11.987 18.11C11.833 17.6853 11.756 17.2117 11.756 16.689C11.756 16.2503 11.8517 15.7837 12.043 15.289C12.239 14.7897 12.5493 14.2577 12.974 13.693L15.522 10.27C15.5873 10.186 15.676 10.116 15.788 10.06C15.9047 9.99933 16.0377 9.969 16.187 9.969H17.293L14.318 13.728Z" fill="white"/>
</svg>
