<svg width="279" height="400" viewBox="0 0 279 400" fill="none" xmlns="http://www.w3.org/2000/svg">
<g opacity="0.6">
<path fill-rule="evenodd" clip-rule="evenodd" d="M376.177 181.608C371.227 177.762 371.227 177.763 368.871 181.531C367.965 181.233 366.994 180.915 366.396 180.717C366.806 179.21 367.281 177.94 367.408 176.635C367.44 176.346 365.829 175.502 365.679 175.646C363.704 177.546 361.396 175.877 359.323 176.35C358.79 176.473 357.942 176.179 357.704 176.465C355.596 178.981 354.419 177.138 353.181 175.581C352.079 174.192 351.021 172.767 349.942 171.358C350.125 171.204 350.31 171.052 350.496 170.898C349.14 169.848 347.781 168.796 346.181 167.556C345.625 168.483 345.154 169.271 344.552 170.273C345.167 170.475 345.675 170.64 346.948 171.056C346.104 171.342 345.602 171.51 344.769 171.794C345.767 172.419 346.256 172.723 346.744 173.029C346.7 173.163 346.652 173.296 346.608 173.429C345.042 173.219 343.475 173.01 341.679 172.769C341.904 171.898 342 171.244 342.242 170.648C343.344 167.885 342.867 166.863 339.937 166.594C337.935 166.41 335.865 166.877 333.89 166.602C332.81 166.452 331.819 165.421 330.89 164.66C330.579 164.406 330.648 163.733 330.421 163.315C330.219 162.942 321.877 161.273 321.427 161.413C320.285 161.765 319.135 162.094 317.421 162.6C318.152 160.985 318.577 160.046 319.246 158.565C316.725 158.802 314.575 158.994 312.429 159.21C310.85 159.369 309.365 159.942 307.906 158.392C307.06 157.49 305.398 157.398 304.183 156.781C302.65 156.002 301.206 155.044 299.704 154.198C299.05 153.827 298.367 153.471 297.656 153.242C295.735 152.621 293.815 151.946 291.844 151.56C291.16 151.427 290.325 152.081 289.552 152.363C288.725 152.667 287.89 152.956 286.315 153.517C288.915 149.319 288.762 149.01 284.787 148.452C284.592 148.423 284.329 148.479 284.21 148.373C280.008 144.56 275.421 147.088 270.962 147.548C269.398 147.708 267.783 148.127 266.283 147.879C265.285 147.715 264.298 146.69 263.635 145.804C263.429 145.529 264.296 144.45 264.717 143.658C262.146 141.627 256.227 142.323 252.475 145.517C251.394 144.558 250.277 143.567 249.031 142.46C245.915 142.938 242.325 143.485 238.519 144.069C238.083 141.217 236.331 140.31 233.831 139.99C232.369 139.802 231.017 138.813 229.594 138.246C229 138.008 228.348 137.852 227.71 137.794C224.89 137.535 222.031 137.506 219.244 137.06C214.392 136.281 214.387 136.194 212.015 140.658C211.827 141.01 211.475 141.275 210.746 141.377C210.973 140.356 211.204 139.338 211.431 138.317C211.221 138.15 211.012 137.985 210.8 137.821C210.248 138.688 209.698 139.554 209.106 140.479C208.035 139.825 207.219 139.325 206.4 138.827C206.635 138.638 206.873 138.45 207.108 138.26C206.323 136.973 205.54 135.683 204.421 133.844C203.571 135.219 202.921 136.269 202 137.754C200.333 137.231 197.844 135.808 195.383 135.854C192.819 135.902 190.279 137.367 187.238 138.375C186.921 138.323 185.85 137.854 184.935 138.062C183.325 138.427 181.85 139.39 180.242 139.773C177.3 140.475 174.321 141.119 171.319 141.442C169.013 141.692 166.4 140.769 164.371 141.54C162.013 142.435 160.144 144.619 158.054 146.229C157.75 146.463 157.398 146.631 157.085 146.819C153.662 143.442 147.36 143.217 143.733 146.608C143.015 147.279 142.212 147.858 141.498 148.531C138.892 150.996 136.398 153.012 132.331 153.427C128.487 153.819 124.833 156.144 121.121 157.677C120.763 157.825 120.487 158.352 120.323 158.76C119.779 160.115 119.302 161.496 118.95 162.46C116.685 161.867 114.979 161.421 113.473 161.025C109.346 158.29 105.327 155.433 101.117 152.904C98.2854 151.202 95.4062 149.869 92.9812 147.331C91.1437 145.408 87.7771 144.981 85.1458 143.771C82.3333 142.479 79.5812 141.058 76.8146 139.669C76.3083 139.415 75.9021 138.915 75.3812 138.754C70.2729 137.185 65.0437 135.944 60.0583 134.054C54.7312 132.035 49.5312 132.627 44.2229 133.625C43.8458 133.696 43.4333 133.69 43.0562 133.621C42.3917 133.496 41.7396 133.296 41.0667 133.125C67.0917 72.05 138.808 17.1792 228.708 30.8542C315.379 44.0438 369.158 115.631 376.177 181.608Z" fill="#F2F2F2"/>
<path fill-rule="evenodd" clip-rule="evenodd" d="M103.438 253.94C107.519 253.76 111.608 253.381 115.679 253.517C117.1 253.56 118.502 254.829 119.867 255.621C121.512 256.575 123.044 257.754 124.758 258.544C125.352 258.817 126.406 258.329 127.146 257.977C128.219 257.467 129.2 256.76 130.194 256.154C130.671 257.938 130.694 259.14 131.298 259.842C131.631 260.233 132.935 259.781 133.802 259.721C135.052 259.635 136.335 259.713 137.546 259.452C141.469 258.604 145.196 258.546 148.596 261.165C150.544 262.665 152.627 263.985 154.648 265.385C155.025 265.044 155.402 264.704 155.779 264.362C155.021 263.187 154.262 262.012 153.592 260.975C154.827 261.065 156.442 261.179 158.015 261.292C158.358 265.281 158.662 265.594 162.675 265.569C164.419 265.558 166.158 265.26 167.904 265.175C168.565 265.142 169.419 265.121 169.875 265.481C171.973 267.14 174.546 267.052 176.806 267.775C179.592 268.665 181.629 268.419 184.021 267.565C184.373 267.44 184.794 267.5 185.494 267.454C185.39 268.227 185.296 268.902 185.165 269.86C186.625 269.86 188.106 270.096 189.485 269.819C195.602 268.59 200.992 271.229 206.7 272.512C210.219 273.304 214.233 274.796 217.969 272.458C218.31 272.244 218.9 272.429 219.69 272.429C218.425 274.813 219.279 275.531 221.606 275.569C224.056 275.608 226.523 276.425 228.935 276.246C233.217 275.931 237.45 275.031 241.725 274.573C243.006 274.435 244.358 274.95 246.206 275.252C245.175 276.188 244.785 276.537 244.381 276.906C244.646 277.154 244.769 277.369 244.919 277.39C248.975 278.031 252.706 277.117 256.346 275.279C257.217 274.84 259.119 274.902 259.59 275.496C261.048 277.329 262.294 276.144 263.735 275.798C266.194 275.21 268.685 274.667 271.194 274.442C272.058 274.365 272.979 275.604 273.931 275.704C277.479 276.077 281.05 276.379 284.615 276.404C286.75 276.421 288.883 275.704 291.029 275.613C295.069 275.442 299.292 275.871 301.452 271.062C301.452 271.717 301.452 272.373 301.452 272.613C302.91 272.225 304.385 271.352 305.542 271.66C306.802 271.998 307.771 273.435 309.225 274.706C309.773 273.546 310.012 272.569 310.608 271.923C311.071 271.427 312.06 270.994 312.677 271.135C317.344 272.219 321.11 270.342 324.758 267.802C325.335 267.4 326.231 267.485 326.923 267.206C328.542 266.552 330.135 265.833 331.721 265.102C335.502 263.358 339.194 261.377 343.073 259.892C347.294 258.279 351.594 257.052 354.329 252.969C354.821 252.233 356.404 251.96 357.492 251.942C361.26 251.877 364.629 250.9 367.435 248.3C369.66 246.24 371.883 244.173 374.556 241.69C372.552 248.663 370.9 255.358 368.71 261.873C345.867 329.817 282.531 377.829 210.91 380.942C158.854 383.202 114.027 365.821 76.9271 329.173C61.1167 313.552 48.7333 295.425 39.9229 274.95C39.1521 273.16 37.6312 271.473 41.7187 271.038C43.9708 270.798 45.8833 267.498 47.975 265.606C49.0167 264.665 50.0083 263.577 51.2187 262.919C55.5917 260.533 59.9646 258.11 64.5146 256.104C66.4229 255.265 68.7792 255.462 70.9229 255.127C72.1396 254.935 73.4667 254.865 74.5167 254.31C76.85 253.073 79.0229 254.721 81.1563 254.431C83.6292 254.098 85.9521 252.781 88.4146 252.215C89.6604 251.925 91.2583 251.975 92.3646 252.529C95.2562 253.977 98.35 253.456 100.552 250.985C101.112 250.354 102.258 250.25 103.135 249.904C103.352 250.84 103.569 251.775 103.785 252.715C103.673 253.125 103.556 253.531 103.438 253.94Z" fill="#F2F2F2"/>
<path fill-rule="evenodd" clip-rule="evenodd" d="M132.594 174.581C134.66 173.123 136.408 171.89 137.873 170.856C137.873 169.258 137.873 167.913 137.873 165.773C141.452 169.854 142.21 170.075 146.427 168.21C148.754 167.181 150.973 165.902 153.221 164.7C153.629 164.481 154.217 164.133 154.269 163.781C154.783 160.223 157.192 160.313 159.952 160.471C162.162 160.596 164.954 161.4 165.629 157.919C170.025 159.633 175.667 157.867 176.3 154.669C177.208 154.863 178.108 155.14 179.027 155.235C181.242 155.467 183.556 155.281 185.665 155.865C189.558 156.942 193.171 157.267 196.488 154.438C196.994 154.006 197.681 153.788 198.581 153.317C198.66 154.09 198.719 154.644 198.74 154.84C201.929 154.633 205.075 154.315 208.221 154.283C209.537 154.271 210.865 154.854 212.177 155.194C213.025 155.41 213.923 156.015 214.69 155.871C218.944 155.081 223.248 155.888 227.592 154.856C231.023 154.042 235.015 154.8 238.596 155.596C243.277 156.638 247.827 158.327 252.377 159.894C254.417 160.598 255.896 160.517 257.187 158.548C257.662 157.823 258.829 157.552 259.681 157.075C259.863 157.917 260.044 158.76 260.154 159.267C266.094 160.308 271.969 161.338 277.844 162.383C278.177 162.442 278.702 162.59 278.771 162.81C279.698 165.763 281.76 164.394 282.771 164.288C284.335 165.017 285.25 165.654 286.26 165.877C291.454 167.027 296.981 167.363 301.752 169.45C304.127 170.49 307.902 170.521 309.115 173.971C309.2 174.213 310.004 174.219 310.477 174.302C311.685 174.515 312.912 174.644 314.106 174.917C319.671 176.19 324.65 179.558 330.621 179.454C331.919 179.431 333.229 179.971 334.5 180.952C332.908 180.881 331.317 180.81 329.723 180.74C329.7 181.069 329.679 181.396 329.658 181.725C330.717 181.8 331.775 181.858 332.829 181.95C335.071 182.142 337.337 182.206 339.535 182.633C340.198 182.763 340.621 183.954 341.231 184.585C341.644 185.015 342.142 185.429 342.683 185.652C346.113 187.06 349.567 188.415 352.477 189.571C353.923 188.252 355.194 187.096 356.91 185.527C358.052 188.375 358.925 190.556 359.794 192.727C362.877 192.269 365.667 192.302 368.408 194.344C369.579 195.217 371.808 194.723 373.56 194.754C377.6 194.825 377.96 195.094 377.946 199.094C377.925 204.694 377.956 210.304 377.625 215.89C377.533 217.454 376.608 219.358 375.431 220.379C373.54 222.025 371.206 223.242 368.91 224.327C364.373 226.469 359.767 228.479 355.125 230.385C351.508 231.873 347.767 233.058 344.137 234.513C343.029 234.958 342.133 235.91 341.079 236.529C340.433 236.91 339.623 237.427 338.973 237.325C332.692 236.329 327.087 239.025 321.25 240.44C320.208 240.692 319.187 241.127 318.135 241.217C310.59 241.854 303.046 242.792 295.49 242.883C290.45 242.946 285.394 241.775 280.344 241.158C279.565 241.063 278.777 240.892 278.002 240.929C270.631 241.275 263.565 239.742 256.519 237.777C251.608 236.408 246.527 235.658 241.608 234.315C236.885 233.023 232.196 231.519 227.635 229.744C223.34 228.073 219.265 225.846 215.021 224.031C213.356 223.321 211.435 223.223 209.742 222.567C208.263 221.992 206.969 220.958 205.535 220.24C200.971 217.948 196.308 215.846 191.821 213.417C187.473 211.065 183.3 208.39 179.04 205.871C176.004 204.077 172.858 202.456 169.94 200.496C166.065 197.894 162.385 195.004 158.573 192.304C157.39 191.465 156.01 190.908 154.798 190.104C148.606 185.996 142.425 181.873 136.277 177.7C135.083 176.881 134.054 175.827 132.594 174.581Z" fill="#F2F2F2"/>
<path fill-rule="evenodd" clip-rule="evenodd" d="M360.706 235.217C357.729 239.781 354.481 242.944 349.444 243.927C348.148 244.181 347.079 245.608 345.408 246.869C342.223 246.087 339.638 248.825 337.104 250.896C334.246 253.229 331.048 254.304 327.656 254.727C323.029 255.304 318.735 256.119 314.731 258.946C312.608 260.444 309.404 260.527 306.646 260.975C300.142 262.029 293.598 262.842 287.098 263.906C283.285 264.531 279.531 266.054 275.735 266.119C268.883 266.231 262.015 265.612 255.163 265.162C253.015 265.021 251.156 264.912 249.635 266.915C248.846 267.956 247.435 268.856 246.69 266.51C246.594 266.21 245.542 266.121 244.927 266.098C239.04 265.871 233.133 265.908 227.271 265.396C222.856 265.008 218.525 263.746 214.115 263.202C209.869 262.681 205.46 263.069 201.325 262.148C198 261.41 194.544 260.985 191.3 259.31C189.031 258.14 185.852 258.787 183.096 258.462C181.904 258.325 180.769 257.752 179.596 257.425C178.583 257.142 177.563 256.785 176.529 256.706C172.71 256.408 168.656 256.923 165.127 255.781C161.65 254.654 157.933 254.835 154.496 252.735C151.515 250.912 147.313 251.073 143.642 250.415C143.221 250.342 142.681 250.544 142.288 250.773C138.669 252.881 138.754 252.817 135.752 249.577C135.067 248.837 133.65 248.656 132.527 248.465C130.09 248.046 127.629 247.7 125.165 247.496C123.427 247.354 121.658 247.415 119.915 247.525C117.573 247.669 115.373 247.94 113.71 245.548C112.958 244.467 111.754 243.865 109.931 244.969C108.483 245.844 106.208 245.352 103.923 245.487C103.635 247.556 102.104 247.619 100.019 246.81C99.1063 246.454 97.9854 246.617 96.9583 246.567C96.3771 246.537 95.3833 246.758 95.2708 246.525C93.6792 243.267 91.275 245.652 89.2417 245.573C84.1312 245.369 79.2104 246.496 73.6458 248.133C74.5667 247.069 74.9729 246.6 75.3812 246.127C75.2958 245.944 75.2104 245.762 75.125 245.577C73.9542 246.044 72.6792 246.342 71.6333 247.004C68.35 249.081 65.2104 251.39 61.8875 253.398C60.8667 254.015 59.4063 253.858 58.1958 254.223C56.4188 254.76 54.525 255.181 52.9708 256.125C50.5333 257.608 48.7313 259.898 45.5938 260.54C43.8292 260.9 42.4917 263.029 40.7729 264.046C39.4229 264.844 37.7812 265.15 36.0833 265.74C38.1062 262.852 39.7104 260.562 41.3625 258.204C40.9729 257.66 40.6667 257.302 40.4396 256.9C40.0479 256.202 39.2604 255 39.4271 254.844C40.1354 254.177 41.1 253.731 42.0375 253.381C42.4292 253.233 42.9833 253.554 43.4687 253.61C45.8042 253.89 46.5 252.91 45.6687 250.696C45.2604 249.61 45.0521 248.448 44.7542 247.321C45.1563 247.119 45.5583 246.917 45.9625 246.715C46.3188 247.525 46.675 248.331 47.0292 249.142C47.375 248.985 47.7208 248.831 48.0667 248.675C48.0667 247.773 48.1333 246.867 48.0542 245.973C47.8729 243.942 49.3 243.612 50.7687 243.135C51.6854 242.837 52.8521 242.404 53.2792 241.669C54.65 239.3 55.7271 236.765 56.9167 234.292C57.1146 234.515 57.3104 234.737 57.5063 234.96C58.4271 234.442 59.4479 234.04 60.2542 233.379C63.1208 231.029 65.9708 228.652 68.7063 226.154C69.6042 225.333 70.1771 224.137 70.8292 223.071C72.2083 220.817 73.5292 218.525 74.9 216.265C76.3938 213.802 77.9688 211.429 81.4771 211.312C81.5188 210.49 81.3792 209.667 81.6396 209C81.9563 208.185 82.5 207.392 83.1375 206.79C84.2687 205.721 85.5 204.748 86.7687 203.844C89.6188 201.815 92.6583 200.027 95.3521 197.812C97.3875 196.14 99.0063 193.962 101.2 191.59C101.988 191.544 103.546 191.515 105.09 191.342C107.017 191.125 108.346 190.462 108.321 188.031C108.313 187.16 109.71 186.275 110.535 185.312C111.15 185.454 111.946 185.635 113.271 185.937C112.746 184.862 112.444 184.248 112.073 183.49C114.433 181.462 119.363 184.677 119.979 179.365C121.008 179.896 121.673 180.242 122.396 180.615C122.615 180.317 122.785 180.106 122.931 179.881C123.333 179.269 123.59 178.435 124.152 178.075C125.24 177.381 126.463 176.677 127.698 176.525C128.367 176.442 129.294 177.379 129.896 178.044C130.775 179.019 131.263 180.444 132.277 181.185C137.031 184.662 141.875 188.023 146.752 191.325C149.952 193.492 153.273 195.475 156.521 197.565C161.027 200.462 165.454 203.485 170.035 206.258C173.175 208.158 176.517 209.727 179.771 211.437C180.115 211.617 180.629 211.646 180.821 211.915C185.86 219.048 194.385 219.754 201.454 223.131C202.063 223.423 202.915 223.556 203.233 224.04C205.867 228.05 210.2 228.235 214.238 229.3C216.417 229.875 218.315 231.437 220.442 232.3C222.092 232.971 223.973 233.069 225.625 233.737C229.4 235.26 233.021 237.187 236.844 238.569C241.9 240.396 247.052 241.985 252.24 243.406C254.11 243.917 256.233 243.45 258.177 243.796C259.519 244.031 260.756 244.873 262.025 245.483C262.625 245.773 263.479 246.583 263.715 246.423C266.313 244.637 268.404 246.944 270.725 247.14C275.565 247.546 280.415 247.971 285.267 248.079C291.831 248.225 298.469 248.646 304.954 247.9C310.956 247.208 316.875 246.44 322.915 246.944C323.673 247.006 324.481 246.765 325.233 246.55C333.906 244.077 342.579 241.61 351.231 239.06C352.208 238.773 352.992 237.865 353.96 237.492C356.037 236.69 358.19 236.052 360.706 235.217Z" fill="#F2F2F2"/>
<path fill-rule="evenodd" clip-rule="evenodd" d="M52.9187 219.835C51.5833 219.225 50.4792 218.719 49.3771 218.215C49.1958 218.377 48.9292 218.517 48.9438 218.619C49.5521 223.365 46.0125 225.235 42.8313 227.215C40.3771 228.742 40.2708 229.156 42.875 231.298C43.6208 230.45 44.375 229.594 45.2042 228.65C45.0292 230.302 44.8646 231.825 44.6917 233.452C42.2521 234.7 38.1833 231.892 36.475 236.098C35.3313 238.915 34.4208 241.825 33.3437 244.867C32.7167 245.14 31.5396 245.654 29.8521 246.388C28.6146 237.64 27.1354 228.746 26.1479 219.798C24.8063 207.64 25.3396 195.463 26.7521 183.329C28.575 167.644 32.725 152.558 38.7396 137.985C39.0896 137.135 40.4292 136.133 41.2937 136.146C46.1125 136.219 50.9854 136.215 55.7312 136.946C60.8479 137.735 65.85 139.279 70.8792 140.577C71.6917 140.788 72.5333 141.306 73.1083 141.921C75.3271 144.29 78.1792 144.729 81.1729 144.725C82.8042 144.723 84.025 144.973 84.2375 146.958C84.2917 147.475 84.9625 148.083 85.5 148.363C88.5312 149.931 91.6792 151.29 94.6354 152.985C95.9083 153.717 96.775 155.131 97.8979 156.158C99.9229 158.013 101.362 160.794 104.792 160.502C105.275 160.46 105.937 160.9 106.298 161.31C107.675 162.875 108.963 164.521 110.127 165.944C108 167.75 105.302 170.071 102.56 172.34C101.892 172.894 101.096 173.304 100.327 173.725C98.8438 174.535 97.3396 175.306 95.2083 176.427C91.5042 175.298 90.0583 180.777 86.0854 181.244C86.3792 183.408 86.6604 185.477 86.8187 186.638C84.8 187.154 83.0542 187.208 81.7833 188.015C79.5021 189.458 77.5062 191.352 75.3937 193.063C75.2437 193.185 75.1354 193.452 74.9854 193.469C70.2479 194.075 69.7188 198.417 67.9625 201.565C66.9792 203.327 66.8979 205.602 65.8771 207.331C65.0021 208.813 63.3208 209.802 62.0854 211.096C61.5938 211.61 61.3625 212.371 60.9729 212.994C60.375 213.948 59.8625 214.998 59.0896 215.79C58.2688 216.625 57.1875 217.208 55.7396 218.246C52.1354 217.129 54.0792 223.867 49.7625 223.504C50.9417 222.135 51.8375 221.094 52.9187 219.835Z" fill="#F2F2F2"/>
</g>
</svg>
