<svg id="Layer_1" data-name="Layer 1" xmlns="http://www.w3.org/2000/svg" viewBox="0 0 352.57 352.4"><defs><style>.cls-1{opacity:0.6;}.cls-2{fill:#f2f2f2;fill-rule:evenodd;}</style></defs><title>grey-circle</title><g class="cls-1"><path class="cls-2" d="M350.8,152.87c-4.95-3.85-4.95-3.85-7.3-.08L341,152a25.31,25.31,0,0,0,1-4.09c0-.29-1.58-1.13-1.73-1-2,1.9-4.28.24-6.35.71-.53.12-1.38-.17-1.62.11-2.11,2.52-3.29.68-4.52-.88-1.11-1.39-2.16-2.81-3.24-4.22l.55-.46-4.31-3.35-1.63,2.72,2.39.78-2.18.74,2,1.24c0,.13-.09.26-.14.4L316.3,144a19.36,19.36,0,0,1,.57-2.12c1.1-2.77.62-3.79-2.31-4.06-2-.18-4.07.29-6,0-1.08-.15-2.08-1.18-3-1.94-.32-.26-.25-.93-.47-1.35s-8.55-2-9-1.9c-1.14.35-2.29.68-4,1.19l1.82-4c-2.52.24-4.67.43-6.82.65-1.57.16-3.06.73-4.52-.82-.84-.9-2.51-1-3.72-1.61-1.53-.78-3-1.74-4.48-2.58a11.25,11.25,0,0,0-2.05-1,49.93,49.93,0,0,0-5.81-1.68c-.68-.13-1.52.52-2.29.8s-1.66.59-3.24,1.16c2.6-4.2,2.45-4.51-1.53-5.07-.19,0-.46,0-.57-.08-4.21-3.81-8.79-1.28-13.25-.82a18.23,18.23,0,0,1-4.68.33,5,5,0,0,1-2.65-2.08c-.21-.27.66-1.35,1.08-2.14-2.57-2-8.49-1.34-12.24,1.86l-3.44-3.06-10.52,1.61c-.43-2.85-2.18-3.76-4.68-4.08-1.47-.19-2.82-1.18-4.24-1.75a7.17,7.17,0,0,0-1.88-.45c-2.82-.26-5.68-.29-8.47-.73-4.85-.78-4.86-.87-7.23,3.6a1.54,1.54,0,0,1-1.27.72c.23-1,.46-2,.69-3.06l-.63-.5-1.7,2.66-2.7-1.65.7-.57-2.68-4.42L176.63,109c-1.67-.52-4.16-1.94-6.62-1.9s-5.11,1.52-8.15,2.52a5.18,5.18,0,0,0-2.3-.31c-1.61.37-3.08,1.33-4.69,1.71a71.27,71.27,0,0,1-8.93,1.67c-2.3.25-4.91-.67-6.94.1-2.36.89-4.23,3.08-6.32,4.69a10.92,10.92,0,0,1-1,.59,10,10,0,0,0-13.35-.21c-.72.67-1.52,1.25-2.24,1.92-2.6,2.46-5.1,4.48-9.16,4.9-3.85.39-7.5,2.71-11.21,4.25A1.93,1.93,0,0,0,95,130c-.55,1.35-1,2.73-1.37,3.7l-5.48-1.44c-4.13-2.73-8.15-5.59-12.36-8.12-2.83-1.7-5.71-3-8.13-5.57-1.84-1.92-5.21-2.35-7.84-3.56-2.81-1.29-5.56-2.71-8.33-4.1-.51-.26-.91-.76-1.43-.92-5.11-1.57-10.34-2.81-15.33-4.7-5.32-2-10.52-1.42-15.83-.43a3.29,3.29,0,0,1-1.17,0c-.66-.13-1.31-.33-2-.5,26-61.07,97.74-115.94,187.64-102.27C290,15.3,343.78,86.89,350.8,152.87Z"/><path class="cls-2" d="M78.06,225.2c4.08-.18,8.17-.56,12.24-.42,1.43,0,2.83,1.31,4.19,2.1,1.65,1,3.18,2.13,4.89,2.92.6.28,1.65-.21,2.39-.56a33.25,33.25,0,0,0,3-1.83c.48,1.79.5,3,1.1,3.69.34.39,1.64-.06,2.51-.12a27.21,27.21,0,0,0,3.74-.27c3.92-.85,7.65-.91,11,1.71,2,1.5,4,2.82,6.05,4.22l1.13-1-2.18-3.39,4.42.32c.34,4,.65,4.3,4.66,4.28,1.74,0,3.48-.31,5.23-.4a3.25,3.25,0,0,1,2,.31c2.1,1.66,4.67,1.57,6.93,2.29a10.2,10.2,0,0,0,7.22-.21,7.34,7.34,0,0,1,1.47-.11c-.1.78-.2,1.45-.33,2.41a23,23,0,0,0,4.32,0c6.12-1.23,11.51,1.41,17.22,2.69,3.51.79,7.53,2.28,11.26-.05.35-.22.94,0,1.73,0-1.27,2.38-.42,3.1,1.91,3.14s4.92.85,7.33.67c4.28-.31,8.52-1.21,12.79-1.67,1.28-.14,2.63.38,4.48.68L219,248.16c.26.25.38.47.53.49A18.38,18.38,0,0,0,231,246.54c.87-.44,2.77-.38,3.25.21,1.45,1.84,2.7.65,4.14.31a52.85,52.85,0,0,1,7.46-1.36c.86-.08,1.78,1.16,2.74,1.26a106,106,0,0,0,10.68.7c2.14,0,4.27-.7,6.41-.79,4-.17,8.27.26,10.43-4.55v1.55c1.46-.39,2.93-1.26,4.09-1s2.23,1.77,3.68,3a12.14,12.14,0,0,1,1.38-2.78,2.68,2.68,0,0,1,2.07-.79c4.67,1.09,8.44-.79,12.08-3.33.58-.4,1.48-.32,2.17-.6,1.62-.65,3.21-1.37,4.8-2.1,3.78-1.74,7.47-3.72,11.35-5.21,4.22-1.61,8.52-2.84,11.25-6.92.5-.74,2.08-1,3.17-1a14.27,14.27,0,0,0,9.94-3.64c2.23-2.06,4.45-4.13,7.12-6.61-2,7-3.65,13.67-5.84,20.18-22.85,67.95-86.18,116-157.8,119.07-52.06,2.26-96.89-15.12-134-51.77a170.26,170.26,0,0,1-37-54.22c-.77-1.79-2.29-3.48,1.79-3.91,2.26-.24,4.17-3.54,6.26-5.44a18.24,18.24,0,0,1,3.24-2.68c4.38-2.39,8.75-4.81,13.3-6.82,1.91-.84,4.26-.64,6.41-1a12,12,0,0,0,3.59-.82c2.34-1.24,4.51.41,6.64.12,2.47-.33,4.8-1.65,7.26-2.22a6.26,6.26,0,0,1,3.95.32,6.57,6.57,0,0,0,8.19-1.55c.56-.63,1.7-.73,2.58-1.08.22.94.43,1.87.65,2.81C78.3,224.38,78.18,224.79,78.06,225.2Z"/><path class="cls-2" d="M107.22,145.84l5.28-3.73V137c3.58,4.08,4.34,4.3,8.55,2.44,2.33-1,4.55-2.31,6.8-3.51.4-.22,1-.57,1-.92.52-3.56,2.93-3.47,5.69-3.31,2.21.12,5,.93,5.67-2.55,4.4,1.71,10-.05,10.68-3.25a25.23,25.23,0,0,0,2.72.56c2.22.24,4.53.05,6.64.63,3.89,1.08,7.51,1.41,10.82-1.42a11.9,11.9,0,0,1,2.1-1.12c.08.77.13,1.32.16,1.52,3.18-.21,6.33-.53,9.48-.56a16.12,16.12,0,0,1,4,.91c.85.22,1.75.82,2.52.68,4.25-.79,8.55,0,12.9-1,3.43-.81,7.42,0,11,.74a132.26,132.26,0,0,1,13.78,4.3c2,.71,3.52.63,4.81-1.34.48-.73,1.64-1,2.5-1.48l.47,2.2,17.69,3.11c.33.06.86.21.93.43.92,3,3,1.58,4,1.48a21.23,21.23,0,0,0,3.49,1.59c5.19,1.15,10.72,1.48,15.49,3.57,2.37,1,6.15,1.07,7.36,4.52.09.24.89.25,1.36.33,1.21.21,2.44.34,3.63.62,5.57,1.27,10.55,4.64,16.52,4.53a6.31,6.31,0,0,1,3.88,1.5l-4.78-.21c0,.33-.05.65-.07,1,1.06.08,2.12.14,3.17.23a62.23,62.23,0,0,1,6.71.68c.66.13,1.09,1.32,1.7,2a4.44,4.44,0,0,0,1.45,1.07c3.43,1.41,6.88,2.76,9.79,3.92l4.44-4,2.88,7.2c3.08-.46,5.87-.43,8.61,1.61,1.17.88,3.4.38,5.16.41,4,.07,4.4.34,4.38,4.34,0,5.6,0,11.21-.32,16.8a7.12,7.12,0,0,1-2.19,4.49,28.71,28.71,0,0,1-6.52,4c-4.54,2.14-9.15,4.15-13.79,6-3.62,1.49-7.36,2.68-11,4.13a26.48,26.48,0,0,0-3.06,2,3.71,3.71,0,0,1-2.1.79c-6.28-1-11.89,1.7-17.72,3.12a22.24,22.24,0,0,1-3.12.78c-7.54.63-15.09,1.57-22.64,1.66-5,.06-10.1-1.11-15.15-1.72a13.35,13.35,0,0,0-2.34-.23c-7.37.34-14.44-1.19-21.49-3.15-4.91-1.37-10-2.12-14.91-3.47a139.81,139.81,0,0,1-14-4.57c-4.29-1.67-8.37-3.9-12.61-5.71-1.67-.71-3.59-.81-5.28-1.46-1.48-.58-2.78-1.61-4.21-2.33-4.56-2.29-9.23-4.4-13.71-6.82s-8.52-5-12.78-7.55c-3-1.79-6.19-3.42-9.1-5.38-3.88-2.6-7.56-5.49-11.37-8.19-1.18-.84-2.56-1.39-3.78-2.2q-9.28-6.17-18.52-12.4C109.71,148.14,108.68,147.09,107.22,145.84Z"/><path class="cls-2" d="M335.33,206.48c-3,4.56-6.22,7.72-11.26,8.71-1.3.25-2.37,1.68-4,2.94-3.18-.78-5.77,2-8.3,4a18,18,0,0,1-9.45,3.84c-4.63.57-8.92,1.39-12.92,4.21-2.13,1.5-5.33,1.59-8.09,2-6.5,1.06-13,1.87-19.55,2.93-3.81.63-7.56,2.15-11.36,2.22-6.85.11-13.72-.51-20.57-1-2.15-.14-4-.25-5.53,1.75-.79,1-2.2,1.94-2.94-.4-.1-.3-1.15-.39-1.77-.41-5.88-.23-11.79-.19-17.65-.71-4.42-.38-8.75-1.65-13.16-2.19-4.25-.52-8.65-.13-12.79-1.05-3.32-.74-6.78-1.17-10-2.84-2.27-1.17-5.45-.52-8.21-.85a23.69,23.69,0,0,1-3.5-1,16.48,16.48,0,0,0-3.07-.72c-3.81-.29-7.87.22-11.4-.92s-7.19-.95-10.63-3c-3-1.82-7.18-1.66-10.85-2.32a2.29,2.29,0,0,0-1.36.36c-3.62,2.11-3.53,2.05-6.53-1.19-.69-.74-2.1-.93-3.23-1.12-2.43-.42-4.9-.76-7.36-1a36.8,36.8,0,0,0-5.25,0c-2.34.15-4.54.42-6.2-2-.76-1.08-2-1.69-3.78-.58-1.45.87-3.73.38-6,.52-.29,2.06-1.82,2.13-3.91,1.32a9.92,9.92,0,0,0-3.06-.24c-.58,0-1.57.19-1.68-.05-1.6-3.25-4-.87-6-.95-5.11-.2-10,.92-15.6,2.56l1.74-2c-.09-.19-.17-.37-.26-.55a20.24,20.24,0,0,0-3.49,1.42c-3.28,2.08-6.42,4.39-9.75,6.4-1,.61-2.48.46-3.69.82a22.71,22.71,0,0,0-5.22,1.9c-2.44,1.49-4.24,3.78-7.38,4.42-1.77.36-3.1,2.49-4.82,3.5a26.21,26.21,0,0,1-4.69,1.7L16,229.46a14.47,14.47,0,0,1-.92-1.3c-.4-.7-1.18-1.9-1-2.06a8,8,0,0,1,2.61-1.46c.39-.15.95.17,1.43.23,2.34.28,3-.7,2.2-2.92-.4-1.08-.61-2.24-.91-3.37l1.21-.61,1.06,2.43,1-.47c0-.9.07-1.8,0-2.7-.18-2,1.25-2.36,2.71-2.84a4.55,4.55,0,0,0,2.51-1.46c1.38-2.37,2.45-4.91,3.64-7.38l.59.67a19.06,19.06,0,0,0,2.75-1.58c2.87-2.35,5.72-4.73,8.45-7.23a13.47,13.47,0,0,0,2.12-3.08c1.38-2.25,2.7-4.55,4.08-6.81,1.49-2.46,3.06-4.83,6.57-5a7.47,7.47,0,0,1,.17-2.31,6.17,6.17,0,0,1,1.49-2.21,35.42,35.42,0,0,1,3.63-3c2.85-2,5.89-3.81,8.59-6,2-1.67,3.65-3.85,5.85-6.22.78,0,2.34-.08,3.89-.25,1.92-.22,3.25-.88,3.23-3.31,0-.87,1.39-1.76,2.21-2.72l2.74.63-1.2-2.45c2.36-2,7.29,1.19,7.9-4.13L97,151.87c.22-.29.39-.51.54-.73.4-.61.66-1.45,1.22-1.81a9.29,9.29,0,0,1,3.54-1.55c.67-.08,1.6.86,2.2,1.52.88,1,1.37,2.4,2.38,3.14,4.76,3.48,9.6,6.84,14.48,10.14,3.2,2.17,6.52,4.15,9.77,6.24,4.5,2.9,8.93,5.92,13.51,8.7,3.14,1.9,6.48,3.47,9.74,5.18.34.18.85.2,1,.47,5,7.14,13.56,7.84,20.63,11.22.61.29,1.46.42,1.78.91,2.63,4,7,4.19,11,5.26,2.18.57,4.08,2.14,6.21,3,1.65.67,3.53.77,5.18,1.44,3.78,1.52,7.4,3.45,11.22,4.83,5.06,1.82,10.21,3.41,15.4,4.83,1.87.52,4,.05,5.93.39a16.13,16.13,0,0,1,3.85,1.69c.6.29,1.45,1.1,1.69.94,2.6-1.78,4.69.52,7,.72,4.84.4,9.69.83,14.54.94,6.57.14,13.2.56,19.69-.18,6-.69,11.92-1.46,18-1a6.94,6.94,0,0,0,2.32-.39c8.67-2.47,17.34-4.94,26-7.49,1-.29,1.76-1.2,2.73-1.57C330.66,208,332.82,207.31,335.33,206.48Z"/><path class="cls-2" d="M27.54,191.09,24,189.47c-.18.17-.45.31-.43.41.61,4.74-2.93,6.61-6.11,8.59-2.46,1.53-2.56,1.94,0,4.09l2.33-2.65c-.18,1.65-.34,3.17-.51,4.8-2.44,1.25-6.51-1.56-8.22,2.65-1.14,2.81-2,5.72-3.13,8.77l-3.49,1.52C3.24,208.9,1.76,200,.77,191.06a161.77,161.77,0,0,1,.61-36.47,169.65,169.65,0,0,1,12-45.35,3.48,3.48,0,0,1,2.55-1.84,106.91,106.91,0,0,1,14.44.8c5.11.79,10.12,2.34,15.14,3.64a4.79,4.79,0,0,1,2.23,1.34C50,115.55,52.8,116,55.8,116c1.63,0,2.85.25,3.06,2.24.06.51.73,1.12,1.27,1.4,3,1.57,6.17,2.93,9.13,4.62,1.27.74,2.14,2.15,3.26,3.18,2,1.85,3.47,4.63,6.9,4.34a2.22,2.22,0,0,1,1.5.81c1.38,1.56,2.67,3.21,3.83,4.63-2.12,1.81-4.82,4.13-7.56,6.4A14.17,14.17,0,0,1,75,145c-1.48.81-3,1.58-5.12,2.71-3.7-1.13-5.15,4.35-9.12,4.81.29,2.17.58,4.24.73,5.4-2,.51-3.76.57-5,1.37a71.52,71.52,0,0,0-6.39,5c-.15.12-.26.39-.41.41-4.74.6-5.27,5-7,8.09-1,1.77-1.07,4-2.09,5.77-.87,1.48-2.55,2.47-3.79,3.76a11.82,11.82,0,0,0-1.11,1.9,16.11,16.11,0,0,1-1.88,2.8,28.59,28.59,0,0,1-3.35,2.45c-3.61-1.11-1.67,5.63-6,5.26Z"/></g></svg>