<svg id="Layer_1" data-name="Layer 1" xmlns="http://www.w3.org/2000/svg" viewBox="0 0 253.71 317.08"><defs><style>.cls-1{fill:#f2f2f2;fill-rule:evenodd;}</style></defs><title>grey-half-circle</title><path class="cls-1" d="M253.71,4.52v99.87c-2.68-.08-5.42,1-8.12,1.24a18.23,18.23,0,0,1-4.68.33,5,5,0,0,1-2.65-2.07c-.21-.28.66-1.36,1.08-2.15-2.57-2-8.49-1.34-12.24,1.86l-3.44-3.06-10.52,1.61c-.43-2.85-2.18-3.76-4.68-4.08-1.47-.19-2.82-1.18-4.24-1.74a6.45,6.45,0,0,0-1.88-.45c-2.82-.26-5.68-.29-8.47-.74-4.85-.78-4.86-.86-7.23,3.6a1.52,1.52,0,0,1-1.27.72l.69-3.06-.63-.5-1.7,2.66L181,96.91l.7-.57c-.78-1.29-1.56-2.58-2.68-4.41l-2.42,3.91c-1.67-.53-4.16-2-6.62-1.9s-5.11,1.51-8.15,2.52a5.15,5.15,0,0,0-2.3-.32c-1.61.37-3.08,1.33-4.69,1.71a69.51,69.51,0,0,1-8.93,1.67c-2.3.25-4.91-.67-6.94.1-2.36.9-4.23,3.08-6.32,4.69a10.92,10.92,0,0,1-1,.59,10,10,0,0,0-13.35-.21c-.72.67-1.52,1.25-2.24,1.92-2.6,2.47-5.1,4.48-9.16,4.9-3.85.39-7.5,2.72-11.21,4.25a2,2,0,0,0-.8,1.08c-.55,1.36-1,2.74-1.37,3.7l-5.48-1.43C84,116.37,80,113.51,75.74,111c-2.83-1.71-5.71-3-8.13-5.58-1.84-1.92-5.21-2.35-7.84-3.56-2.81-1.29-5.56-2.71-8.33-4.1-.51-.25-.91-.75-1.43-.91C44.9,95.27,39.67,94,34.68,92.14c-5.32-2-10.52-1.43-15.83-.43a3.29,3.29,0,0,1-1.17,0c-.66-.12-1.31-.32-2-.49C31.69,53.65,65,18.44,109.13.08H243.79Q248.86,2.15,253.71,4.52Z"/><polygon class="cls-1" points="253.71 0 253.71 5 243.71 0 253.71 0"/><path class="cls-1" d="M253.71,234.26V317l-48,.08H90.53a187.49,187.49,0,0,1-39-29.83,170.15,170.15,0,0,1-37-54.22c-.77-1.79-2.29-3.48,1.79-3.91,2.26-.24,4.17-3.54,6.26-5.43A18.3,18.3,0,0,1,25.84,221c4.38-2.39,8.75-4.81,13.3-6.81,1.91-.84,4.26-.65,6.41-1a11.41,11.41,0,0,0,3.59-.82c2.34-1.24,4.51.41,6.64.12,2.47-.33,4.8-1.65,7.26-2.21a6.33,6.33,0,0,1,3.95.31,6.56,6.56,0,0,0,8.19-1.54c.56-.63,1.7-.74,2.58-1.08.22.93.43,1.87.65,2.81-.11.41-.23.81-.35,1.22,4.08-.18,8.17-.56,12.24-.42,1.43,0,2.83,1.31,4.19,2.1,1.65,1,3.18,2.14,4.89,2.93.6.27,1.65-.22,2.39-.57,1.07-.51,2.06-1.22,3-1.82.48,1.78.5,3,1.1,3.68.34.39,1.64-.06,2.51-.12a25.73,25.73,0,0,0,3.74-.27c3.92-.84,7.65-.9,11,1.72,2,1.5,4,2.82,6.05,4.22.38-.34.76-.68,1.13-1l-2.18-3.38,4.42.31c.34,4,.65,4.31,4.66,4.28,1.74,0,3.48-.31,5.23-.39a3.18,3.18,0,0,1,2,.3c2.1,1.66,4.67,1.57,6.93,2.3a10.25,10.25,0,0,0,7.22-.21,6.08,6.08,0,0,1,1.47-.11c-.1.77-.2,1.44-.33,2.4a22.21,22.21,0,0,0,4.32,0c6.12-1.23,11.51,1.41,17.22,2.69,3.51.8,7.53,2.29,11.26-.05.35-.21.94,0,1.73,0-1.27,2.38-.42,3.1,1.91,3.14s4.92.86,7.33.68c4.28-.32,8.52-1.22,12.79-1.68,1.28-.13,2.63.38,4.48.68L219,235c.26.25.38.46.53.48A18.38,18.38,0,0,0,231,233.36c.87-.44,2.77-.38,3.25.22,1.45,1.83,2.7.65,4.14.3a52.85,52.85,0,0,1,7.46-1.36c.86-.07,1.78,1.17,2.74,1.27C250.27,234,252,234.13,253.71,234.26Z"/><path class="cls-1" d="M253.71,121.66v77.4a6.51,6.51,0,0,0-1.08-.05c-7.37.35-14.44-1.19-21.49-3.15-4.91-1.37-10-2.12-14.91-3.46a145.15,145.15,0,0,1-14-4.57c-4.29-1.68-8.37-3.9-12.61-5.72-1.67-.71-3.59-.81-5.28-1.46-1.48-.58-2.78-1.61-4.21-2.33-4.56-2.29-9.23-4.39-13.71-6.82s-8.52-5-12.78-7.55c-3-1.79-6.19-3.41-9.1-5.37-3.88-2.6-7.56-5.49-11.37-8.19-1.18-.84-2.56-1.4-3.78-2.2q-9.28-6.16-18.52-12.41c-1.19-.82-2.22-1.87-3.68-3.12l5.28-3.72v-5.09c3.58,4.09,4.34,4.31,8.55,2.44,2.33-1,4.55-2.31,6.8-3.51.4-.22,1-.57,1-.92.52-3.56,2.93-3.47,5.69-3.31,2.21.13,5,.93,5.67-2.55,4.4,1.71,10,0,10.68-3.25.9.19,1.8.47,2.72.57,2.22.23,4.53,0,6.64.63,3.89,1.07,7.51,1.4,10.82-1.43a12.6,12.6,0,0,1,2.1-1.12c.08.77.13,1.33.16,1.52,3.18-.21,6.33-.52,9.48-.56a16.15,16.15,0,0,1,4,.92c.85.21,1.75.82,2.52.67,4.25-.79,8.55,0,12.9-1,3.43-.82,7.42-.06,11,.74A127.63,127.63,0,0,1,227,118c2,.7,3.52.62,4.81-1.35.48-.73,1.64-1,2.5-1.47l.47,2.19,17.69,3.11c.33.06.86.21.93.43A4.39,4.39,0,0,0,253.71,121.66Z"/><path class="cls-1" d="M253.71,205.87v17.95a19,19,0,0,1-3.35.38c-6.85.11-13.72-.51-20.57-1-2.15-.14-4-.25-5.53,1.76-.79,1-2.2,1.94-2.94-.41-.1-.3-1.15-.39-1.77-.41-5.88-.23-11.79-.19-17.65-.7-4.42-.39-8.75-1.65-13.16-2.2-4.25-.52-8.65-.13-12.79-1.05-3.32-.74-6.78-1.16-10-2.84-2.27-1.17-5.45-.52-8.21-.85a23.65,23.65,0,0,1-3.5-1,15.73,15.73,0,0,0-3.07-.72c-3.81-.3-7.87.21-11.4-.93s-7.19-.94-10.63-3c-3-1.83-7.18-1.67-10.85-2.32a2.28,2.28,0,0,0-1.36.35c-3.62,2.11-3.53,2.05-6.53-1.19-.69-.74-2.1-.92-3.23-1.11-2.43-.42-4.9-.77-7.36-1a36.8,36.8,0,0,0-5.25,0c-2.34.14-4.54.41-6.2-2-.76-1.08-2-1.68-3.78-.58-1.45.88-3.73.38-6,.52-.29,2.07-1.82,2.13-3.91,1.32a10.23,10.23,0,0,0-3.06-.24c-.58,0-1.57.19-1.68,0-1.6-3.26-4-.88-6-1-5.11-.2-10,.93-15.6,2.56l1.74-2c-.09-.18-.17-.37-.26-.55a20.28,20.28,0,0,0-3.49,1.43c-3.28,2.07-6.42,4.38-9.75,6.39-1,.62-2.48.46-3.69.82a22.28,22.28,0,0,0-5.22,1.91c-2.44,1.48-4.24,3.77-7.38,4.41-1.77.36-3.1,2.49-4.82,3.51a26.22,26.22,0,0,1-4.69,1.69L16,216.29a16,16,0,0,1-.92-1.31c-.4-.7-1.18-1.9-1-2a7.81,7.81,0,0,1,2.61-1.47c.39-.15.95.18,1.43.23,2.34.28,3-.7,2.2-2.91-.4-1.09-.61-2.25-.91-3.38l1.21-.6c.35.81.71,1.61,1.06,2.42l1-.46c0-.91.07-1.81,0-2.71-.18-2,1.25-2.36,2.71-2.83a4.57,4.57,0,0,0,2.51-1.47c1.38-2.37,2.45-4.9,3.64-7.38l.59.67a19.06,19.06,0,0,0,2.75-1.58c2.87-2.35,5.72-4.73,8.45-7.22a13.75,13.75,0,0,0,2.12-3.09c1.38-2.25,2.7-4.54,4.08-6.8,1.49-2.47,3.06-4.84,6.57-5a7.47,7.47,0,0,1,.17-2.31,6.26,6.26,0,0,1,1.49-2.21,34,34,0,0,1,3.63-2.94c2.85-2,5.89-3.82,8.59-6,2-1.67,3.65-3.85,5.85-6.22.78,0,2.34-.07,3.89-.25,1.92-.21,3.25-.88,3.23-3.31,0-.87,1.39-1.75,2.21-2.72l2.74.63-1.2-2.45c2.36-2,7.29,1.19,7.9-4.12L97,138.7c.22-.3.39-.51.54-.74.4-.61.66-1.44,1.22-1.8a9,9,0,0,1,3.54-1.55c.67-.09,1.6.85,2.2,1.52.88,1,1.37,2.4,2.38,3.14,4.76,3.47,9.6,6.83,14.48,10.14,3.2,2.16,6.52,4.15,9.77,6.24,4.5,2.89,8.93,5.92,13.51,8.69,3.14,1.9,6.48,3.47,9.74,5.18.34.18.85.21,1,.48,5,7.13,13.56,7.84,20.63,11.21.61.29,1.46.43,1.78.91,2.63,4,7,4.2,11,5.26,2.18.58,4.08,2.14,6.21,3,1.65.67,3.53.77,5.18,1.44,3.78,1.52,7.4,3.45,11.22,4.83,5.06,1.83,10.21,3.42,15.4,4.84,1.87.51,4,0,5.93.39a15.7,15.7,0,0,1,3.85,1.68c.6.29,1.45,1.1,1.69.94,2.6-1.78,4.69.53,7,.72C248.13,205.46,250.92,205.7,253.71,205.87Z"/><path class="cls-1" d="M27.54,177.92,24,176.3c-.18.16-.45.3-.43.4.61,4.75-2.93,6.62-6.11,8.6-2.46,1.52-2.56,1.94,0,4.08l2.33-2.65c-.18,1.65-.34,3.18-.51,4.8-2.44,1.25-6.51-1.56-8.22,2.65C10,197,9.05,199.91,8,203l-3.49,1.52c-1.24-8.75-2.72-17.64-3.71-26.59a161.77,161.77,0,0,1,.61-36.47,169.58,169.58,0,0,1,12-45.34,3.45,3.45,0,0,1,2.55-1.84,105.3,105.3,0,0,1,14.44.8c5.11.79,10.12,2.33,15.14,3.63A4.87,4.87,0,0,1,47.73,100c2.22,2.37,5.07,2.81,8.07,2.81,1.63,0,2.85.24,3.06,2.23.06.52.73,1.12,1.27,1.4,3,1.57,6.17,2.93,9.13,4.63,1.27.73,2.14,2.14,3.26,3.17,2,1.85,3.47,4.64,6.9,4.34a2.22,2.22,0,0,1,1.5.81c1.38,1.57,2.67,3.21,3.83,4.64-2.12,1.8-4.82,4.12-7.56,6.39A13.53,13.53,0,0,1,75,131.81c-1.48.81-3,1.58-5.12,2.7-3.7-1.13-5.15,4.35-9.12,4.82.29,2.16.58,4.23.73,5.39-2,.52-3.76.57-5,1.38a69.65,69.65,0,0,0-6.39,5c-.15.13-.26.39-.41.41-4.74.61-5.27,4.95-7,8.1-1,1.76-1.07,4-2.09,5.76-.87,1.48-2.55,2.47-3.79,3.77a11,11,0,0,0-1.11,1.9,16.42,16.42,0,0,1-1.88,2.79,28.5,28.5,0,0,1-3.35,2.46c-3.61-1.12-1.67,5.62-6,5.26Z"/><polygon class="cls-1" points="253.71 317 205.71 317.08 205.71 317 253.71 317"/></svg>