<svg width="17" height="17" viewBox="0 0 17 17" fill="none" xmlns="http://www.w3.org/2000/svg">
<path d="M16.8888 7.1228C16.8843 7.08355 16.8819 7.04388 16.875 7.00518C16.1985 3.23861 13.0634 0.296679 9.10383 0.0223587C6.96007 -0.126302 5.02491 0.467457 3.31057 1.77072C2.91641 2.07038 2.56952 2.42087 2.21121 2.75936C2.08639 2.90963 1.95759 3.05692 1.83747 3.2109C1.40754 3.76236 1.02245 4.34115 0.760679 4.99364C0.917513 4.99639 1.07404 5.00853 1.22942 5.03001C1.40039 5.00318 1.57012 5.00664 1.73503 5.13092C1.76387 5.14837 1.79231 5.16625 1.82141 5.18299C1.84455 5.19201 1.86768 5.20006 1.89069 5.20983C1.89577 5.21205 1.9007 5.21478 1.90578 5.217C1.96307 5.22763 2.02134 5.23307 2.07416 5.25954C2.09519 5.27093 2.11647 5.28255 2.13826 5.29244C2.17206 5.31061 2.20737 5.32583 2.24378 5.33795C2.26953 5.3458 2.29589 5.35151 2.32258 5.35502C2.36476 5.36125 2.40727 5.36488 2.44989 5.36589C2.6869 5.3644 2.89994 5.53905 3.14169 5.47597C3.42251 5.40275 3.57122 5.53496 3.66339 5.77416C3.77299 6.05884 4.12719 6.07332 4.27169 6.32908C4.3056 6.38905 4.44641 6.3653 4.51267 6.29544C4.57058 6.23446 4.64295 6.21301 4.71222 6.17981C5.06938 6.03733 5.46984 5.9959 5.75055 5.67868C5.87019 5.54338 6.07369 5.53583 6.21694 5.63564C6.36255 5.73693 6.42949 5.66408 6.51498 5.57987C6.61766 5.47882 6.72194 5.44371 6.88054 5.45682C7.10014 5.47499 7.32665 5.45497 7.54228 5.34935C7.71659 5.26402 7.93049 5.28478 8.11222 5.19327C8.15838 5.17002 8.22754 5.19117 8.28616 5.19402C8.39293 5.19922 8.51269 5.39152 8.60721 5.16754C8.61899 5.13948 8.67152 5.18128 8.69703 5.2138C8.72771 5.25305 8.69691 5.31558 8.75046 5.34378C8.84697 5.40438 8.94407 5.3758 9.04101 5.34539C9.09867 5.31681 9.09496 5.21527 9.18897 5.22716C9.40015 5.25376 9.62024 5.24905 9.82042 5.31039C9.94584 5.34886 10.09 5.36381 10.2001 5.44742C10.4006 5.59979 10.465 5.6056 10.7094 5.46918L10.7081 5.47191C10.8591 5.65211 11.0313 5.62031 11.2103 5.52262C11.2188 5.51751 11.228 5.5138 11.2377 5.51161C11.351 5.49318 11.4531 5.48255 11.4701 5.64541C11.4819 5.75924 11.5722 5.76438 11.6702 5.76501C11.8582 5.76625 12.0353 5.6986 12.2238 5.69575C12.3718 5.69365 12.4692 5.80124 12.6046 5.82449C12.6869 5.83847 12.5898 5.92158 12.6061 5.97204C12.6224 6.02249 12.6637 6.01643 12.6992 5.99851C12.8785 5.90786 13.0464 5.99262 13.1911 6.06579C13.4404 6.19194 13.668 6.3615 13.9721 6.29736C14.0073 6.28994 14.0811 6.30788 14.081 6.31381C14.0795 6.57339 14.2369 6.39231 14.3256 6.40842C14.4441 6.42981 14.6262 6.44059 14.6618 6.51379C14.755 6.70523 14.9001 6.64958 15.0369 6.65705C15.2899 6.67079 15.2962 6.67807 15.2283 6.93593C15.3163 7.02312 15.389 6.976 15.4597 6.90896C15.4771 6.88125 15.4761 6.84367 15.5057 6.82288C15.5275 6.82363 15.5507 6.82449 15.5741 6.82412C15.5912 6.82981 15.6076 6.83723 15.6232 6.84626C15.6992 6.87717 15.6346 6.97005 15.6943 7.00815C15.7916 7.04936 15.8237 7.23484 15.9397 7.18265C16.1149 7.10362 16.2927 7.20244 16.4503 7.10264C16.4697 7.16937 16.4792 7.20579 16.456 7.24394C16.4372 7.27462 16.4025 7.31024 16.4448 7.34403C16.4853 7.37618 16.5491 7.39089 16.5767 7.34699C16.6965 7.15641 16.7824 7.31137 16.8788 7.36901C16.9259 7.28865 16.9131 7.20589 16.8888 7.1228Z" fill="#D81921"/>
<path d="M1.20564 12.89C0.985202 12.5153 0.77489 12.1355 0.632738 11.7223C0.814585 11.6542 1.00091 11.5934 1.0896 11.394C1.10148 11.3669 1.12339 11.3455 1.15072 11.3343C1.53015 11.2286 1.8123 10.8706 2.24755 10.9108C2.48793 10.7755 2.78361 10.9333 3.01907 10.7645C3.04355 10.7466 3.07297 10.7368 3.10329 10.7362C3.13361 10.7357 3.16335 10.7446 3.18843 10.7617C3.36511 10.8967 3.4986 10.8095 3.62636 10.687C3.68118 10.6343 3.75825 10.6318 3.77164 10.6906C3.82001 10.9011 3.98837 10.8421 4.11976 10.8636C4.16836 10.8736 4.21883 10.8693 4.26504 10.8512C4.38589 10.7922 4.46528 10.8499 4.55067 10.9243C4.66945 11.0279 4.79043 11.1347 4.95597 10.9888C4.9913 10.9577 5.08575 10.9872 5.08328 11.0146C5.06113 11.2519 5.21045 11.1188 5.29186 11.1134C5.55202 11.0961 5.81995 11.0358 6.02019 11.2792C6.1635 11.3579 6.26922 11.0709 6.42164 11.2382C6.41692 11.3212 6.41508 11.4022 6.53236 11.4037C6.54209 11.4052 6.55195 11.4058 6.5618 11.4055C6.85039 11.3484 7.10393 11.493 7.37249 11.5496C7.42223 11.5601 7.4664 11.571 7.51515 11.5544C7.55245 11.5417 7.60324 11.5098 7.62624 11.5233C7.91956 11.6958 8.26264 11.5591 8.56622 11.6835C8.79125 11.7758 9.03001 11.8223 9.27884 11.7551C9.39216 11.7245 9.38203 11.9068 9.541 11.9038C9.72138 11.9003 9.90373 11.9212 10.0895 11.8938C10.2909 11.8639 10.5067 11.7456 10.6883 11.9687C10.7316 12.0219 10.833 11.9914 10.9127 11.9623C11.0555 11.9101 11.1997 11.812 11.3587 11.9267C11.3676 11.9309 11.3772 11.9332 11.387 11.9334C11.3968 11.9336 11.4066 11.9317 11.4156 11.9279C11.6504 11.8329 11.8783 11.8457 12.125 11.9104C12.4239 11.9889 12.731 11.8798 13.0355 11.8766C13.086 11.876 13.1307 11.8635 13.1623 11.8165C13.2831 11.6374 13.43 11.6626 13.584 11.7676C13.617 11.7902 13.6646 11.8275 13.6841 11.7878C13.7574 11.6391 13.8863 11.709 13.9943 11.6932C14.0621 11.6834 14.1376 11.6773 14.1934 11.6431C14.4187 11.5055 14.6869 11.4602 14.9021 11.3002C15.0707 11.1747 15.2915 11.1632 15.4735 11.0633C15.4894 11.0547 15.513 11.0621 15.5321 11.0574C15.765 11.0017 15.8338 10.6833 16.1579 10.7254C16.4155 10.7589 16.5664 10.4819 16.7447 10.3147C16.7574 10.3029 16.7807 10.3022 16.8134 10.2917C16.7276 10.7594 16.5902 11.2162 16.4037 11.6536C15.1446 14.5892 12.9528 16.4293 9.79454 16.891C6.27838 17.4052 3.46588 16.0919 1.40543 13.1896C1.37686 13.1494 1.34821 13.1092 1.31947 13.069C1.23882 13.0366 1.25417 12.943 1.20564 12.89Z" fill="#D81921"/>
<path d="M15.1095 7.41242C15.2592 7.47858 15.3588 7.62416 15.5287 7.66372C15.6429 7.69032 15.7427 7.75451 15.8546 7.64518C15.9428 7.5591 16.0318 7.60985 16.0531 7.71369C16.087 7.87903 16.2039 7.88164 16.3308 7.90044C16.5108 7.92703 16.6722 8.03562 16.8667 8.01262C16.9629 8.00124 17.0012 8.07542 17 8.1687C16.9963 8.4555 16.9954 8.7423 16.9912 9.02897C16.9892 9.16352 16.9051 9.24465 16.7968 9.30488C16.4629 9.49213 16.1155 9.65416 15.7574 9.78962C15.5733 9.8583 15.3805 9.90637 15.2176 10.0247C15.1871 10.0469 15.1471 10.0769 15.1149 10.0732C14.7901 10.0363 14.4988 10.1684 14.1946 10.2412C14.0338 10.2795 13.8615 10.2783 13.6944 10.2795C13.3804 10.2818 13.0696 10.3622 12.7559 10.3281C12.0717 10.2536 11.3893 10.1848 10.7173 10.0082C10.1784 9.86647 9.66824 9.67261 9.15892 9.45403C8.86348 9.32713 8.562 9.21411 8.27809 9.06174C7.44489 8.61466 6.64082 8.12183 5.88548 7.5506C5.72843 7.43175 5.5543 7.33492 5.38617 7.23103C5.30985 7.18393 5.23511 7.13704 5.17871 7.03958C5.24848 6.93074 5.45298 6.88651 5.39432 6.68922C5.38912 6.67179 5.45184 6.64396 5.49195 6.67548C5.57 6.7372 5.64845 6.80732 5.75756 6.75227C5.91379 6.67336 6.10172 6.63664 6.20243 6.47834C6.25563 6.39486 6.30202 6.34391 6.40742 6.3465C6.5293 6.34947 6.67019 6.39808 6.75111 6.24547C6.75618 6.23595 6.80889 6.24064 6.8316 6.25301C6.94788 6.31707 7.06208 6.26054 7.13393 6.19945C7.3326 6.03038 7.54423 6.07269 7.75428 6.13045C7.91671 6.1751 8.05996 6.19105 8.20274 6.08048C8.25161 6.04265 8.31965 6.04516 8.38856 6.04041C8.75981 6.01554 9.11722 6.14417 9.48861 6.11832C9.63657 6.10806 9.76918 6.03982 9.92309 6.05277C10.193 6.07528 10.4438 6.16136 10.6998 6.23529C10.8736 6.28551 11.0627 6.448 11.2177 6.19472C11.2252 6.18259 11.2932 6.18644 11.2965 6.19584C11.361 6.37702 11.5302 6.30417 11.6484 6.33251C11.9365 6.40151 12.224 6.46732 12.5005 6.57726C12.5983 6.61845 12.7023 6.64303 12.8082 6.64999C13.1117 6.66176 13.3831 6.78516 13.6274 6.93492C13.7182 6.9907 13.8006 6.98501 13.8819 7.01309C14.1437 7.10374 14.3899 7.2514 14.6784 7.25389C14.7937 7.3841 14.9537 7.39276 15.1095 7.41242Z" fill="#D81921"/>
<path d="M0.538728 11.4562C0.49334 11.4295 0.491221 11.3872 0.49766 11.3419C0.677563 11.3214 0.745016 11.1361 0.709581 11.0485C0.611973 10.806 0.741247 10.8228 0.895766 10.8272C0.912963 10.8277 0.93065 10.8138 0.94877 10.8063C0.993432 10.746 0.946532 10.6964 0.929139 10.6431C0.91626 10.6039 0.930612 10.5359 0.952501 10.545C1.12249 10.6143 1.05419 10.4037 1.14575 10.388L1.14254 10.3916C1.25443 10.3233 1.36783 10.265 1.40801 10.1175C1.47083 9.88714 1.70356 9.80157 1.86739 9.68158C2.08388 9.52315 2.20587 9.31575 2.33762 9.10551C2.41197 8.98677 2.47642 8.86473 2.61411 8.80844C2.73696 8.75822 2.71085 8.61093 2.82652 8.52572C3.04549 8.36458 3.27795 8.21394 3.47849 8.02683C3.58057 7.93173 3.6503 7.7968 3.83044 7.83303C3.89848 7.84663 3.94611 7.78913 3.98038 7.7164C4.05534 7.55743 4.15257 7.42006 4.36202 7.41959C4.49675 7.41933 4.56664 7.28025 4.68949 7.23511C4.7524 7.21313 4.81325 7.18565 4.87134 7.153C4.94594 7.10884 5.00434 7.12851 5.04121 7.20403C5.06249 7.24781 5.0687 7.30309 5.11878 7.32411C5.4574 7.46671 5.71062 7.73767 6.02239 7.9248C6.32215 8.10462 6.63266 8.27787 6.90618 8.50148C6.99873 8.57718 7.09465 8.64779 7.20348 8.69442C7.5093 8.82526 7.72778 9.09697 8.04991 9.20406C8.29079 9.28408 8.54416 9.34733 8.72502 9.55035C8.7494 9.57769 8.79245 9.59339 8.82981 9.60316C9.31497 9.73082 9.76524 9.94909 10.2301 10.13C10.5095 10.2389 10.7952 10.3722 11.1152 10.3305C11.1647 10.326 11.2146 10.3349 11.2595 10.3564C11.7356 10.5778 12.2436 10.562 12.7496 10.561C12.947 10.5607 13.145 10.5523 13.3419 10.5621C13.4799 10.5704 13.6183 10.5555 13.7514 10.518C13.8171 10.4992 13.8927 10.4707 13.9534 10.4867C14.27 10.5702 14.5573 10.4646 14.8506 10.3744C15.0576 10.3107 15.2721 10.2716 15.4794 10.2091C15.6099 10.1698 15.7471 10.1409 15.8548 10.0419C15.9239 9.97818 16.0162 9.97421 16.107 9.98212C16.125 9.9939 16.1314 10.0067 16.1266 10.0202C16.1218 10.0342 16.1166 10.0411 16.1111 10.0411C16.0034 10.1971 15.857 10.2862 15.6862 10.3767C15.4518 10.5012 15.1849 10.5695 14.9811 10.7624C14.8706 10.8671 14.7017 10.9066 14.5459 10.9177C14.3341 10.9325 14.1548 11.0082 13.9635 11.0996C13.7346 11.2072 13.4855 11.2651 13.2325 11.2694C12.9904 11.2721 12.7484 11.3033 12.5358 11.3739C12.1326 11.5079 11.7358 11.4581 11.3341 11.4465C11.1442 11.4409 10.9443 11.3363 10.7768 11.5171C10.7629 11.5321 10.717 11.5316 10.6934 11.5212C10.4401 11.4086 10.1688 11.4879 9.90872 11.4443C9.42859 11.3638 8.934 11.3668 8.46204 11.2658C8.09795 11.188 7.72075 11.1537 7.36607 11.0225C7.26834 10.9864 7.1513 11.0006 7.04294 10.9953C6.74949 10.9789 6.46031 10.9176 6.18547 10.8135C5.98494 10.7398 5.76312 10.6223 5.5382 10.7824C5.46337 10.8357 5.39903 10.7746 5.36181 10.7222C5.28745 10.6174 5.19047 10.6207 5.07812 10.6146C4.86362 10.603 4.65243 10.5435 4.43421 10.5688C4.39722 10.5732 4.33536 10.5686 4.32274 10.5464C4.19246 10.3195 3.97016 10.4376 3.85188 10.4878C3.72166 10.5466 3.57394 10.5537 3.43869 10.5076C3.16293 10.408 2.90165 10.4913 2.63912 10.5185C2.3291 10.5506 1.99866 10.5618 1.77375 10.8386C1.49205 10.8433 1.30102 11.0491 1.06475 11.1486C0.870658 11.2309 0.749177 11.4177 0.538728 11.4562Z" fill="#D81921"/>
<path d="M4.46597 6.25833C4.31579 6.33736 4.22114 6.30136 4.18241 6.13341C4.14815 5.98489 4.07304 5.9352 3.93611 5.94085C3.83503 5.94519 3.75364 5.91822 3.76167 5.79739C3.77033 5.66877 3.64626 5.62029 3.6079 5.52048C3.54751 5.36293 3.44175 5.32311 3.27746 5.3759C3.09545 5.4344 2.90656 5.43527 2.732 5.3383C2.62065 5.27646 2.503 5.28883 2.38499 5.29204C2.36679 5.38603 2.43941 5.42338 2.51081 5.48745C2.62907 5.52097 2.74005 5.53903 2.84347 5.59221C2.84482 5.58652 2.84447 5.58157 2.84617 5.57576C2.8938 5.58442 2.92252 5.58801 2.95022 5.59494C3.16672 5.64973 3.30726 5.82848 3.49417 5.92935C3.72824 6.05574 3.95859 6.18732 4.16099 6.35898C4.25915 6.44221 4.37774 6.42589 4.48326 6.45173C4.54783 6.46769 4.57667 6.34674 4.60437 6.27179C4.6187 6.23309 4.67504 6.20995 4.71234 6.17979C4.61827 6.16966 4.5464 6.21603 4.46597 6.25833Z" fill="#D81921"/>
<path d="M3.81575 6.35404C3.67285 6.33549 3.58787 6.24039 3.50597 6.14417C3.43035 6.05404 3.33387 5.98374 3.2249 5.93936C3.12183 5.89348 3.02244 5.83973 2.92762 5.77859C2.91507 5.78447 2.90106 5.78652 2.88735 5.78448C2.87364 5.78243 2.86084 5.77638 2.85055 5.76709C2.71533 5.64973 2.52728 5.65008 2.36473 5.59148C2.17644 5.52346 2.00808 5.4124 1.82349 5.33622C1.6408 5.25772 1.44907 5.20222 1.25268 5.171C1.09057 5.14878 0.927159 5.13729 0.763527 5.13661C0.735127 5.14742 0.707865 5.16101 0.682135 5.17718C0.617056 5.25472 0.593046 5.35184 0.556924 5.44294C0.0807619 6.64628 -0.059662 7.89897 0.0217498 9.18108C0.0501959 9.62977 0.100805 10.0781 0.25236 10.507C0.345511 10.4502 0.436681 10.4233 0.445967 10.2647C0.461064 10.0065 0.570292 9.93388 0.841717 9.90444C0.904067 9.89777 0.962589 9.89913 0.95825 9.81317C0.953558 9.72623 0.807442 9.66794 0.907209 9.55988L0.907091 9.56014C0.929844 9.54393 0.948906 9.5234 0.970796 9.50621C1.00889 9.48494 1.04692 9.46362 1.08487 9.44227C1.16974 9.39009 1.18645 9.27779 1.27334 9.2272C1.32024 9.2105 1.35797 9.17663 1.40312 9.15622C1.69842 9.06568 1.8689 8.8197 1.95785 8.56976C2.09107 8.19552 2.3333 7.94817 2.64197 7.73484C2.74454 7.66398 2.85613 7.63615 3.04553 7.66223C2.87108 7.46027 2.97486 7.36925 3.0939 7.28415C3.17938 7.22294 3.28305 7.18571 3.36656 7.13661C3.51184 7.05103 3.68895 7.00687 3.80435 6.86812C3.89632 6.7578 4.01353 6.67125 4.14605 6.61582C3.96513 6.60485 3.97384 6.37445 3.81575 6.35404Z" fill="#D81921"/>
<path d="M1.19391 9.15734L1.4031 9.15622L1.37613 9.24885C1.37254 9.27878 1.34755 9.29819 1.3384 9.32553L1.22583 9.43362C1.10928 9.35373 1.24177 9.24514 1.19391 9.15734Z" fill="#D81921"/>
<path d="M8.75066 5.34376C8.84752 5.35267 8.94489 5.25608 9.0412 5.34537C8.9434 5.49909 8.94328 5.49909 8.75066 5.34376Z" fill="#D81921"/>
<path d="M16.2245 9.91051C16.2383 9.81541 16.2854 9.77806 16.3805 9.81974C16.3611 9.90631 16.2946 9.93885 16.2232 9.9663C16.2041 9.95344 16.1979 9.94087 16.2046 9.92859C16.2113 9.91657 16.2179 9.91051 16.2245 9.91051Z" fill="#D81921"/>
<path d="M16.8078 9.67899C16.7936 9.71825 16.7669 9.74541 16.722 9.74072C16.6745 9.73577 16.6495 9.70237 16.67 9.66025C16.679 9.64225 16.6939 9.62792 16.7123 9.61973C16.7307 9.61154 16.7513 9.60999 16.7707 9.61535C16.7984 9.62259 16.8251 9.63967 16.8078 9.67899Z" fill="#D81921"/>
<path d="M16.2245 9.91051C16.2233 9.92905 16.2228 9.9478 16.2232 9.96628C16.1896 9.99696 16.1658 10.0418 16.1113 10.0411C16.1073 10.0217 16.1059 10.0019 16.1072 9.98212C16.1336 9.93735 16.1775 9.92152 16.2245 9.91051Z" fill="#D81921"/>
<path d="M1.73713 5.15045C1.76194 5.14208 1.78394 5.12701 1.80072 5.10692C1.67886 4.98832 1.50836 4.96866 1.36549 4.89301C1.26929 5.00518 1.12363 4.97151 1.00077 5.00505C1.25152 5.02115 1.49908 5.07004 1.73713 5.15045Z" fill="#D81921"/>
<path d="M13.4128 6.01023C13.3995 6.01963 13.3854 6.0378 13.3732 6.0367C13.3668 6.03696 13.3604 6.03535 13.3548 6.03207C13.3493 6.02878 13.3448 6.02397 13.342 6.01821C13.3391 6.01244 13.338 6.00597 13.3387 5.99958C13.3394 5.99318 13.342 5.98713 13.3461 5.98216C13.3516 5.97593 13.3587 5.97125 13.3666 5.96856C13.3745 5.96587 13.3829 5.96528 13.3911 5.96684C13.4024 5.97151 13.4059 5.99502 13.4128 6.01023Z" fill="#D81921"/>
<path d="M10.9889 5.47203C10.9791 5.49515 10.962 5.50147 10.9444 5.48381C10.9339 5.46953 10.9255 5.45378 10.9196 5.43706C10.936 5.43261 10.9569 5.42012 10.9678 5.42605C10.9797 5.43233 10.9823 5.45594 10.9889 5.47203Z" fill="#D81921"/>
<path d="M10.7096 5.46916C10.6824 5.47203 10.6549 5.47211 10.6276 5.46942C10.6046 5.46508 10.5643 5.44653 10.5654 5.43937C10.5701 5.40895 10.5998 5.40116 10.6277 5.40405C10.6688 5.40825 10.6876 5.44188 10.7082 5.47195L10.7096 5.46916Z" fill="#D81921"/>
<path d="M8.5708 11.8052C8.56324 11.8024 8.5515 11.8017 8.5492 11.7965C8.54135 11.7796 8.5513 11.7695 8.57396 11.7731C8.5804 11.7741 8.58521 11.7844 8.5909 11.7904L8.5708 11.8052Z" fill="#D81921"/>
<path d="M1.14257 10.3915L1.18625 10.4144C1.14035 10.4553 1.15509 10.4032 1.14579 10.3881L1.14257 10.3915Z" fill="#D81921"/>
</svg>
