<svg id="Layer_1" data-name="Layer 1" xmlns="http://www.w3.org/2000/svg" viewBox="0 0 523.64 427.1"><defs><style>.cls-1{fill:#ed1c24;}.cls-2{fill:#fff;}</style></defs><title>pfb-logo</title><path d="M42.74,105.59c-1.18,2.86-2.38,5.74-1.57,9a1.27,1.27,0,0,1,0,.64c-1.16,3.49-.37,7.24-1.35,10.7-.47,1.65,0,3.17-.28,4.76-.48,3.27-.64,6.58-.82,9.89a64.74,64.74,0,0,1-1.68,9.18c-.72,3.6-2,7.08-2.28,10.79a4.37,4.37,0,0,1-.8,1.73c-.3.51-.51,1.24-.11,1.48,2,1.19.54,1.85-.28,2.69a1.06,1.06,0,0,0,0,1.7c1.33.82.79,1.64.37,2.68A9.87,9.87,0,0,0,33.4,177c.66,2.94-.34,6-.72,8.95a7.85,7.85,0,0,0-.08,3.41,10.39,10.39,0,0,1,.08,3.2c0,1.8-.62,3.59,0,5.44a3.8,3.8,0,0,1-.62,2.76,10.93,10.93,0,0,0-.79,5.91c.24,2.8.42,5.74-1,8.5a5.69,5.69,0,0,0-.5,4.9c.68,1.84-.17,4-.39,6-.07.63-.57,1.35-.38,1.84,1,2.58.24,4.79-1.11,7-.41.66-.63,1.24.15,1.94,1.18,1,.8,2.31.1,3.5a9.09,9.09,0,0,0-.81,6.75c.3,1.44.66,3-.53,4.45-.5.61.68,1,1.28,1.61-2.22.84-3,2.5-2.94,4.76a4.7,4.7,0,0,1-.74,3.08c-.61.81-.77,1.59.55,1.87.74.16.66.31,0,.57-1.13.46-1,1.44-1.05,2.43a30.26,30.26,0,0,0,1.26,10.5c.54,1.56.48,3.45-.31,4.32-2.28,2.51-1.49,5.55-1.95,8.3-.41,2.47.17,5.1,0,7.64-.1,1.55.94,1.5,2,2-1,1.12-1.63,2.3-2.94,2.74-.16,1.31,1.5.5,1.41,1.45a1.55,1.55,0,0,1-1,1.46c-1.49.57-.89,1.89-.87,3.06,1.25-1.28,2-2.94,3.72-3.82.31,2.89.64,5.72.92,8.55a4.08,4.08,0,0,1-.07,2.21c-1.1,1.87-.05,3.44.37,5.14a5.14,5.14,0,0,1-.14,3.51c-.43.8,1.87,1.31,0,2-.68.26.53,1.22,0,2-.45.63-1.54.33-1.62,1.35s-1.11,2-.59,3.35c.36.9.48,2-1.2,1.81a1.39,1.39,0,0,0-1.62,1.23c-.17,1-.7,1.2-1.57,1.16a1.34,1.34,0,0,0-1.49,1c-.24.88-.54,1.6-1.62,1.7s-2.32.19-3.1-.54c-1.38-1.29-3.79-1.94-3.33-4.59-2.3-3.55-2-7.71-2.71-11.64A58.12,58.12,0,0,1,6.52,314c-.28-7.31-1.1-14.57-1.69-21.85-.43-5.35-.85-10.7-1.33-16C3.14,272,2.66,268,2.34,264a33.91,33.91,0,0,1,.16-4.5,25.38,25.38,0,0,0-.25-7.07c-.38-1.63.1-3.19.15-4.78.12-4,0-7.95-.22-11.92-.13-2.45.33-4.93.24-7.38a250.32,250.32,0,0,1,.26-26.7c.25-3.52-.3-7.09-.17-10.62.24-6.52-.1-13,.49-19.58.44-4.8.11-9.66.08-14.5a63,63,0,0,1,.24-6.44c.2-2.1.83-4.26-.63-6.24-.26-.35-.1-1-.08-1.57Q3.33,117,4.07,91.36a179,179,0,0,0-.73-21.6c-.16-1.82,0-3.72-1.89-5.19-1-.73-.51-2.85-1.45-4.52a23.6,23.6,0,0,1,9-.76,57.86,57.86,0,0,1,18.44,5.55c5.78,3,9.24,7.8,11.32,13.82,1.19,3.45,1.52,7.06,2.1,10.61.39,1.27-.13,2.31.25,1.72"/><path d="M173.55,127.7c-.16-.56-.86-1-.38-1.67a5.25,5.25,0,0,1,2.36-1.91c.35-.12.92.4,1.11-.31s-1-.33-.91-1c2.79-.52,2.81-.52,3.17-3.83.06-.51.35-.69.67-1,1-1.06,1.35-2.91,3.39-2.72.09-1.42,1.37-1.64,2.27-2.23s2.58-1.11,2.93-2c.62-1.61,2.71-1.61,3-3.3,2-.82,3.69-2.54,5.71-3s4.13-.85,6.11-1.46a4.28,4.28,0,0,1,4.46.89c2.07,2,4.57,2.5,7.2,3.11,5.05,1.17,9.09,3.78,11.47,8.66,1,2.07,1,4.3,1.53,6.43.33,1.31.29,2.71.59,4.06.54,2.39-.66,4.54-1.13,6.78s-1.67,4-2.39,6.05c-.37,1-.33,2.32-1.82,2.62-.34.07-.5.57-.54,1a6.37,6.37,0,0,1-1.47,2.76c-1.94,2.9-4,5.73-5.95,8.6-.8,1.16-2.39,1.68-2.69,3.28,0,.12-.55.15-.83.23a2.3,2.3,0,0,0-.62.2c.18,2.16-1.95,1.88-3,2.72s-1.68,1.73-2.53,2.58a29,29,0,0,1-5.58,4.83c-2.07,1.22-.44,3.88.35,5.54a28.65,28.65,0,0,0,9.7,11.43c2.74,1.86,6,3.55,9.39,3.53a12.77,12.77,0,0,0,8.83-4.11c3.61-4.32,6.64-9,7.44-14.75.2-1.43.28-2.88.42-4.33,2,.45,2.07,1.29,1.94,3.2a36.43,36.43,0,0,1-.94,6.05c-.94,3.89-6.29,13-11.3,16.85a35.21,35.21,0,0,1-9.37,5.19c-5,1.84-10.1,1.52-15.13.24a51.35,51.35,0,0,1-15.42-6.92,29.27,29.27,0,0,1-7-6.56c-.42-.54-.87-1.07-1.26-1.64a2,2,0,0,0-2.77-.78,21,21,0,0,1-8.87,2,8.51,8.51,0,0,0-2,.4c-1.06.25-.27,1.09-1,.37-1.24-1.15-.93-2.21.64-2.87,1.83-.77,1.94-3.2,3.82-3.85a11.3,11.3,0,0,0,4.1-2.43,1.81,1.81,0,0,0,.66-1.33c.11-1.29.41-1.37,2.15-.79-.37-.81-.39-1.5-1.54-1.3-1.42.25-1.91-.08-1.82-1.4a2.44,2.44,0,0,0-.79-2.22.92.92,0,0,1-.24-.63c.12-1.54-.72-2.78-1.24-4.12a1.74,1.74,0,0,1,0-1.54,2.07,2.07,0,0,0-.51-2.69,1.32,1.32,0,0,1-.43-1c-.15-2.5-.37-5-.52-7.51-.08-1.35-.55-2.74.33-4-.66-2,.89-3.53,1-5.38a37.78,37.78,0,0,1,1.1-5.32c.3-1.44,1.4-2.35,1.81-3.66a.59.59,0,0,1,.69-.48c.47.11.56.43.45.87s.07.58.59.73a11.93,11.93,0,0,0,1.71-5ZM195.08,159a20.25,20.25,0,0,0,3.68-4.14c3.15-4.29,6.87-8.19,8.71-13.34,1.21-3.37,2.88-6.61,3.37-10.2a64.8,64.8,0,0,0,.31-14.4,11.65,11.65,0,0,0-.88-3.78,3.19,3.19,0,0,0-5.63-.81,9.4,9.4,0,0,0-1.88,3.12c-1.75,5.44-3.46,10.89-5.22,16.32-1.6,4.95-2,10.12-3,15.19-.68,3.52.16,7.06.07,10.59A4.8,4.8,0,0,0,195.08,159Zm-26-14q-.2,2.87-.38,5.74c-.17,2.71.05,4.25.77,5.42C169.67,154.78,169.56,145.68,169.08,144.92ZM173.59,161c-.71,2.62.31,5.43,2.15,6.26C175,165.07,174.29,163,173.59,161Zm-2.81-16.57a6.37,6.37,0,0,0,.93-5.57c-.28,1.35,0,2.73-1.44,3.25-.28.1-.33.42-.13.53C170.89,143,170.25,143.93,170.78,144.41Z"/><path d="M265.17,136.19c1.49-.49,1.84-1.89,2.36-2.95,1.51-3,2.63-6.27,4.74-9,.39-.5.47-1.23.84-1.74a13,13,0,0,1,2.64-3.21c1.5-1.11,2.21-2.92,3.34-4.36,2.13-2.7,4.36-5.19,7.44-6.81a4,4,0,0,0,1.91-1.69,2.89,2.89,0,0,1,2.69-1.2,32.18,32.18,0,0,1,10.62,1.16,8.9,8.9,0,0,1,5.51,4.35,4,4,0,0,0,.48.73,6.88,6.88,0,0,1,1.32,6.77,35.32,35.32,0,0,0-.77,3.87,2.32,2.32,0,0,1-1.08,1.82,2.24,2.24,0,0,0-1,1.15c-.47.93-.85,2-2.23,1.25a.63.63,0,0,0-.42.05c-3.26,1.28-4.35,1.19-7.58.62a18.46,18.46,0,0,1-6.53-2.22,3,3,0,0,1-1.74-2.34,3.09,3.09,0,0,0-1.09-2.09c-.91-.71-.73-1.47-.54-2.34.37-1.77.72-3.54,1.06-5.25-.7-.5-1.11-.08-1.51.16a21.89,21.89,0,0,0-6.95,6.86c-1.82,2.73-3.65,5.45-5.34,8.27-1.2,2-1.78,4.27-3,6.24a39.09,39.09,0,0,0-1.72,3.77c-1.6,3.29-2.27,6.91-3.74,10.26a10.12,10.12,0,0,0-.38,4.11c0,2.08.5,4.21-1,6-.12.15-.2.53-.12.6,1.52,1.34-.45,2.73.12,4.22a9.06,9.06,0,0,1,.23,4.32,12.13,12.13,0,0,0,.24,2.82c.22,2.12-.5,4.2-.17,6.29.15.95-1.23,1.28-.79,2.32.32.76.89,1.46.71,2.41-.5,2.56-.34,5.19-.92,7.74-.25,1.09.31,2.3-.73,3.3-.46.45-.81,1.08-1.43,1.27a1.58,1.58,0,0,0-1.21,1.1c-.23.73-.73.85-1.37.57-.8-.36-1.95,1.35-2.26-.62-.31.24-.4.28-.41.33a1.4,1.4,0,0,1-1.1,1.44,2.56,2.56,0,0,1-1.9-.71,2,2,0,0,0-2.24-.75,4.62,4.62,0,0,1-3.32-.6c-.39-.79.87-1.26.34-2-.68-.21-.5.85-1.25.72a30.76,30.76,0,0,1-.72-5.49c0-5.41.08-10.82.14-16.23s0-11.1-.07-16.64-.66-11.2-1.05-16.8c-.32-4.66-.57-9.34-.64-14-.05-3.83.22-7.67.34-11.5a11.38,11.38,0,0,0-.06-1.75,2.28,2.28,0,0,0-1.26-2.1c-1-.49-.91-1.29,0-2a2.23,2.23,0,0,1,1.87-.38c5.63,1.15,11.36,2,16.38,5.13a5.87,5.87,0,0,1,2.36,2.45c.73,1.48,2,2.68,2.11,4.48a6.59,6.59,0,0,1,0,1.72,11.27,11.27,0,0,0,0,4,13.9,13.9,0,0,1-.3,6.28,6.22,6.22,0,0,0-.13,3.83C265.18,134.87,264.81,135.52,265.17,136.19Z"/><path d="M312.47,169.69c.31-12.65,1.55-25.22,3-37.77a98.06,98.06,0,0,0,.71-10.28,23.23,23.23,0,0,0-.79-6.11c-.59-2.3-1.31-4.39-3.83-5.43-1.41-.58-1.15-.93.08-2.15a7.93,7.93,0,0,1,7.14-2.59,46.31,46.31,0,0,1,4.8,1c2.16.56,4.28,1.25,6.42,1.9a13,13,0,0,1,6.48,4.84,28.23,28.23,0,0,1,5.34,11.25,30.16,30.16,0,0,1,.48,5.57,55.63,55.63,0,0,1-.09,8.17,30.28,30.28,0,0,1-2.89,10.47c-.41.76-1,1.37-.64,2.33a.86.86,0,0,1-.08.74c-1.54,1.48-1.21,3.44-1.5,5.27-.33,2.11-1.55,3.93-2.24,6-1.32,3.93-3.14,7.7-3.63,11.86-.18,1.5-1.24,2.5-1.57,3.9-.71,3-.66,6-1.13,9s-.83,5.73-1,8.62a10.69,10.69,0,0,0,.22,2.28,41.45,41.45,0,0,1,.74,7.63,5.18,5.18,0,0,1-4.8,5.22,3.7,3.7,0,0,1-1.75-.31c-4.3-1.76-6.45-5.16-7.39-9.53a58.75,58.75,0,0,1-1.47-11.22c-.07-3.43-.66-6.84-.62-10.29S312.47,173.13,312.47,169.69Z"/><path d="M319.86,63.06a5.62,5.62,0,0,1,3.21.33,6.07,6.07,0,0,0,4.87.13,4.52,4.52,0,0,1,3.78.52,71.87,71.87,0,0,1,7.4,5,9.59,9.59,0,0,1,4.24,8.6,8.46,8.46,0,0,0-.09,2.29c1.25,5.37-1.33,9.82-3.33,14.42a1.71,1.71,0,0,1-1.28,1.13,2.84,2.84,0,0,0-2.28,1.41,1.35,1.35,0,0,1-1.07.6c-1.64-.19-3.26.58-4.82.22-3.22-.75-6.58-1.09-9.51-2.82-.22-.13-.47-.22-.68-.36-1.38-.92-3.36-.89-4.21-2.67-1.56-3.27-3.07-6.54-2.3-10.33a50.16,50.16,0,0,0,1.28-9.68c0-1.37.14-2.78-1.12-3.78-.5-.4-.32-.8-.09-1.34,1.05-2.39,2.51-4.09,5.43-3.69A2.94,2.94,0,0,0,319.86,63.06Z"/><path d="M427.06,146.19c-.22,2.56-.05,5.13-1,7.63-.46,1.23,0,2.7-.25,4.08a88.09,88.09,0,0,1-4.54,15.51c-1.73,4.79-4.47,9-7,13.32-4.18,7.07-10.59,10.74-18.19,12.74a20.67,20.67,0,0,1-10-.14c-5.44-1.26-10.76-3.07-15.32-6.47a36,36,0,0,1-11.11-13,50.34,50.34,0,0,0-2.71-5.27c-2-3-2.51-6.53-3.28-9.92-.4-1.76.17-3.65,0-5.51a4.51,4.51,0,0,0-.71-2.66,4.63,4.63,0,0,1-.69-5.19c.21-.49.57-1,.22-1.41-.86-1-.48-2.14-.46-3.21.07-2.82.58-5.6.37-8.45-.11-1.52,1-2.89,1.18-4.45.11-.9,1.22-1.64.26-2.73-.22-.25.29-.7.6-1a5.41,5.41,0,0,0,1.57-4.18,2.58,2.58,0,0,1,.08-1.25,30.49,30.49,0,0,0,2.74-7.92,1.62,1.62,0,0,1,.43-.92c3.2-2.4,4.76-6.08,7.09-9.16.65-.86,1.68-.77,2.47-1.27a7.07,7.07,0,0,0,2.18-1.67,3.6,3.6,0,0,1,4-1.85c.42,0,1,.2,1.25,0,2.86-2,6.2-1.1,9.23-1.24,4.67-.22,8.53,2.17,11.17,6.14a2.12,2.12,0,0,0,1.89,1,26.71,26.71,0,0,1,12.64,4c5,2.93,9.21,6.85,11.64,12.37A51.16,51.16,0,0,1,427.06,146.19Zm-5.79.63c.25-5.39-1.9-11.28-3.92-17a23,23,0,0,0-8-10.7,33.94,33.94,0,0,0-14.54-6.64,3.87,3.87,0,0,0-4.24,1.63c-1.59,2.17-2.9,4.36-2.4,7.21a4.15,4.15,0,0,1-.4,2c-.62,1.77-1.54,3.53-1.69,5.35a34.63,34.63,0,0,1-.76,4.79c-1.06,4.66-2,9.33-1.78,14.16a47.92,47.92,0,0,1-.08,5.87c-.18,2.53-1,5.09.59,7.48a1.27,1.27,0,0,1,.07,1.24c-.4.86-.5,1.59.46,2.19.33.21.35.69.41,1.14a9.61,9.61,0,0,1,0,2.21c-.08.72,1.37.85,1.69,1.73a10.68,10.68,0,0,1,.86,2.13,6.32,6.32,0,0,0,.87,2.29,51.39,51.39,0,0,0,7.44,10.08,8.81,8.81,0,0,1,2.41,3.28,4.92,4.92,0,0,0,7.05,3.2,9.26,9.26,0,0,0,2.93-2.06,19.61,19.61,0,0,0,3.13-4.39,96.24,96.24,0,0,0,7.79-21.21A58.84,58.84,0,0,0,421.27,146.82Zm-53.86-17.3a5.05,5.05,0,0,1,.77,3.07,16.26,16.26,0,0,1-2.85,8c-.35.57-.38.68-.06,1.14a4,4,0,0,0,1,1.11c.56-.35,1.31-.56,1.63-1.06.6-.92,1.93-1.45,1.64-2.91a6,6,0,0,1,.72-4.12c.29-.55,0-1.33.7-1.82.47-.33.24-1-.13-1C369.42,131.79,369,130.29,367.41,129.52Z"/><path d="M493.88,164.35a3.49,3.49,0,0,0-1.73,2.75,34.25,34.25,0,0,1-6.73,14.24,35.64,35.64,0,0,1-9.4,8c-4.44,2.69-9,3-13.93,1.91a20.35,20.35,0,0,1-8.09-3.69c-1.84-1.4-3.72-2.76-5.56-4.16a9.51,9.51,0,0,1-3-3.45c-.83-1.73-2.85-2.5-3.66-4.37-.41-1-1.08-1.77-1.06-2.91a9.13,9.13,0,0,0-1.19-3.83c-2.13-4.77-3.66-9.75-5.31-14.69a3.72,3.72,0,0,1-.13-2.26,30.37,30.37,0,0,1,.75-3.06c.53-1.31-1.79-2.44.07-4,.78-.67.3-2.72-.6-4a1.64,1.64,0,0,1,0-1.12c.68-2.79,1.37-5.59,2.11-8.37.27-1,.81-2,.49-3.08a1.37,1.37,0,0,1,.24-1.37c1.48-1.53,1.89-3.54,2.41-5.46.33-1.23,1.42-1.78,2-2.77,1.11-1.89,2.4-3.68,3.62-5.51,1.35-2,1.35-2,4.25-1.9a1.09,1.09,0,0,0,1-.52,3,3,0,0,1,2.24-1.64c.85-.08.1-.49.11-.75,0-.53.32-1.14.7-1.16,1.78-.13,2.43-1.7,3.62-2.56,2.44-1.74,5.32-1.74,8.07-1.23,4.08.77,8.2,1.06,12.31,1.44a22.18,22.18,0,0,1,14.39,7.13,13.34,13.34,0,0,0,1.09.9c.89-.64,1.79-1.36,1.28-2.37-.68-1.35-.28-2.6,0-3.83.41-1.88-.16-3.72,0-5.6.2-2.62.17-5.25.52-7.87a37.09,37.09,0,0,0,.12-6.33,61.41,61.41,0,0,1,.62-10.92,21.88,21.88,0,0,0,.33-4.21c-.18-3.34.13-6.72-.2-10-.23-2.34,1-4.74-.35-7-.21-.34-.05-.94,0-1.41a7.57,7.57,0,0,0,.31-2.25c-.58-2.76.5-5.24,1-7.83a45.94,45.94,0,0,0,.55-7.77c.21-5,.31-10,.74-15,.27-3.25.86-6.54.29-9.79-.45-2.57-.29-5.18-.79-7.71-.22-1.15.25-1.4,1-1.6,6.51-1.63,13-2.14,19.14,1.26a10.82,10.82,0,0,1,5.34,7.6A36.85,36.85,0,0,1,523,24.44a13.69,13.69,0,0,0-.34,3.66c.27,5.63-1.08,11-2.09,16.48-.78,4.23-2,8.38-2.22,12.76-.26,4.86-1.17,9.69-1.76,14.54-.13,1-.06,2.1-.09,3.15-.2,6.26-1.25,12.43-1.73,18.66-.21,2.76.28,5.61-.34,8.34-.7,3-.52,6.12-.8,9.17s-.1,6.34-.09,9.51c0,3-.32,5.93-.4,8.91-.16,6.15,0,12.29.1,18.43a29.85,29.85,0,0,1-.58,5.95,59.71,59.71,0,0,0-.8,15.17q.57,8.91.88,17.84c.12,3.53-.38,4.13-3.35,5.13-2.79.94-4,.29-6.15-2.17-2.48-2.84-3.26-6.48-5.11-9.59s-2.32-6.91-3.07-10.46C494.64,168.13,493.75,166.5,493.88,164.35ZM464,144.76c-.79,5,.69,9.81,1.32,14.73A10.25,10.25,0,0,0,466,162c1,2.58,1.63,5.3,2.7,7.89a23.75,23.75,0,0,0,7.57,9.93c1.57,1.22,2.34,1.08,3.8-.32a20.64,20.64,0,0,0,4-6c2.4-4.87,3.83-10.09,5.5-15.22,2.23-6.83,2.77-13.87,3.2-21,.23-3.86-.36-7.7,0-11.56.15-1.55.25-3.11-1.49-4-.7-.37-.43-1.2-.57-1.84a10,10,0,0,0-2.64-5.36,17.3,17.3,0,0,0-9.46-4.64c-3.56-.51-6.2,1.59-8.1,4a15.48,15.48,0,0,0-2.54,5.67c-.85,3.56-1.91,7-2.86,10.56a33.81,33.81,0,0,0-1.22,7.34C463.76,139.84,463.4,142.26,464,144.76Zm-20.55-4.83c-1.11,1.35-2.29,2.64-1.52,3.34,1.38,1.24.71,2.42.61,3.63a10.32,10.32,0,0,0,2.42,7.83,36.89,36.89,0,0,1-1.26-4.1c-.19-1.09-1.63-2.63.79-3.15.13,0,.22-.7.16-1C444.27,144.44,443.88,142.47,443.41,139.93Zm6.24-16.43c1.14.67,1.17.72.29,1.35-.37.26-.56.49-.44.9.2.67.73.54,1.15.32,1.71-.89,2-2.68,2.56-4.28.21-.63-.47-1-.95-1.27a.73.73,0,0,0-1,.09,1,1,0,0,0,0,1.31c.65.9.23,1.13-.66,1.14C450.24,123.08,449.81,123,449.65,123.5Z"/><path class="cls-1" d="M262.18,250.65c-.11-.39-.61-.74-.27-1.18a3.63,3.63,0,0,1,1.66-1.34c.25-.08.65.28.78-.22s-.7-.23-.64-.71c2-.36,2-.36,2.23-2.69,0-.36.25-.48.47-.72.72-.75.95-2,2.38-1.92.06-1,1-1.15,1.6-1.57s1.81-.78,2.06-1.43c.44-1.13,1.9-1.13,2.11-2.32,1.42-.58,2.6-1.78,4-2.1s2.9-.6,4.3-1a3,3,0,0,1,3.14.63c1.45,1.38,3.21,1.76,5.06,2.18a11.22,11.22,0,0,1,8.07,6.09c.71,1.46.7,3,1.08,4.52.23.92.2,1.91.42,2.85.38,1.68-.46,3.19-.79,4.77a36.23,36.23,0,0,1-1.68,4.26c-.26.73-.23,1.63-1.28,1.85-.24.05-.35.4-.38.67a4.4,4.4,0,0,1-1,1.94c-1.36,2-2.79,4-4.18,6.05-.56.82-1.68,1.18-1.89,2.31,0,.09-.38.11-.59.16s-.44.11-.43.14c.12,1.52-1.37,1.32-2.09,1.92s-1.18,1.22-1.78,1.81a20.27,20.27,0,0,1-3.93,3.4c-1.45.86-.31,2.73.24,3.9a20.06,20.06,0,0,0,6.82,8,12,12,0,0,0,6.6,2.48,9,9,0,0,0,6.21-2.89c2.54-3,4.67-6.32,5.23-10.37.14-1,.2-2,.29-3,1.41.32,1.46.91,1.37,2.25a25.39,25.39,0,0,1-.66,4.25c-.66,2.74-4.43,9.17-7.95,11.85a25,25,0,0,1-6.59,3.65,17.65,17.65,0,0,1-10.64.17,36.36,36.36,0,0,1-10.84-4.86,20.53,20.53,0,0,1-4.92-4.61c-.3-.38-.61-.75-.89-1.15a1.42,1.42,0,0,0-1.95-.55,14.75,14.75,0,0,1-6.24,1.38,6,6,0,0,0-1.42.28,2,2,0,0,1-1.94-.52,1.4,1.4,0,0,1,.42-2.45c1.29-.54,2.6-1,3.92-1.49a8,8,0,0,0,2.89-1.71,1.28,1.28,0,0,0,.47-.94c.08-.9.29-1,1.51-.56-.26-.57-.27-1.06-1.08-.91-1,.17-1.35-.06-1.28-1a1.69,1.69,0,0,0-.56-1.56.62.62,0,0,1-.17-.45,6.57,6.57,0,0,0-.87-2.9,1.21,1.21,0,0,1,0-1.08,1.45,1.45,0,0,0-.36-1.89.94.94,0,0,1-.31-.7c-.11-1.76-.26-3.52-.36-5.28-.06-.95-.39-1.93.23-2.82-.46-1.39.63-2.48.71-3.79a28.53,28.53,0,0,1,.77-3.74c.21-1,1-1.65,1.27-2.57a.42.42,0,0,1,.48-.34c.33.07.39.3.32.61s0,.41.42.51a8.3,8.3,0,0,0,1.2-3.5C262.66,250.68,262.42,250.66,262.18,250.65Zm15.15,22a14.12,14.12,0,0,0,2.59-2.91c2.21-3,4.83-5.76,6.12-9.38.85-2.37,2-4.65,2.37-7.17a45.15,45.15,0,0,0,.21-10.13,8.13,8.13,0,0,0-.62-2.66,2.25,2.25,0,0,0-4-.57,6.76,6.76,0,0,0-1.32,2.2c-1.23,3.82-2.43,7.65-3.67,11.47-1.13,3.48-1.44,7.12-2.13,10.68-.48,2.47.11,5,.05,7.45A3.39,3.39,0,0,0,277.33,272.62ZM259,262.75l-.27,4c-.12,1.91,0,3,.54,3.81C259.46,269.69,259.38,263.29,259,262.75Zm3.17,11.3c-.5,1.84.22,3.82,1.51,4.4C263.2,276.92,262.7,275.49,262.21,274.05Zm-2-11.66a4.47,4.47,0,0,0,.65-3.92c-.2.95,0,1.92-1,2.29-.2.07-.24.3-.09.38C260.32,261.43,259.87,262.06,260.24,262.39Z"/><path class="cls-1" d="M198.59,259.72c1-.35,1.29-1.33,1.66-2.08,1.06-2.14,1.85-4.41,3.33-6.33.27-.35.33-.86.59-1.23a9.26,9.26,0,0,1,1.85-2.25c1-.78,1.55-2.05,2.35-3.07A16.74,16.74,0,0,1,213.6,240a2.82,2.82,0,0,0,1.35-1.19,2,2,0,0,1,1.89-.85,22.38,22.38,0,0,1,7.47.82,6.22,6.22,0,0,1,3.87,3.06,2.9,2.9,0,0,0,.34.52,4.84,4.84,0,0,1,.93,4.76,24.68,24.68,0,0,0-.54,2.72,1.61,1.61,0,0,1-.76,1.28,1.58,1.58,0,0,0-.68.81c-.33.65-.6,1.38-1.57.88a.41.41,0,0,0-.3,0,7.55,7.55,0,0,1-5.33.43,13.15,13.15,0,0,1-4.59-1.56,2.06,2.06,0,0,1-1.22-1.65,2.15,2.15,0,0,0-.77-1.47c-.64-.5-.51-1-.38-1.64.26-1.24.51-2.49.75-3.69-.49-.35-.78-.06-1.06.11a15.52,15.52,0,0,0-4.89,4.82c-1.28,1.92-2.57,3.83-3.75,5.82-.84,1.42-1.25,3-2.13,4.39A26.51,26.51,0,0,0,201,261c-1.13,2.31-1.6,4.86-2.63,7.21a7.17,7.17,0,0,0-.27,2.89c0,1.46.35,3-.69,4.25-.08.1-.14.37-.09.42,1.07.94-.32,1.92.08,3a6.32,6.32,0,0,1,.16,3,8.2,8.2,0,0,0,.17,2c.16,1.49-.35,2.95-.12,4.42.1.67-.86.9-.55,1.63.23.54.63,1,.5,1.69-.35,1.8-.24,3.65-.65,5.44-.17.77.22,1.62-.51,2.32-.33.31-.57.76-1,.9a1.12,1.12,0,0,0-.85.77c-.16.52-.52.6-1,.4s-1.37.95-1.59-.44c-.21.17-.28.2-.29.23a1,1,0,0,1-.78,1,1.82,1.82,0,0,1-1.33-.5,1.39,1.39,0,0,0-1.58-.52,3.27,3.27,0,0,1-2.34-.42c-.27-.56.61-.88.24-1.44-.48-.15-.35.6-.88.51a21.11,21.11,0,0,1-.5-3.86c0-3.81.06-7.61.1-11.41s0-7.8-.05-11.7-.46-7.88-.74-11.82c-.23-3.28-.4-6.57-.45-9.85,0-2.69.16-5.39.24-8.09a10.11,10.11,0,0,0,0-1.23,1.59,1.59,0,0,0-.89-1.47c-.7-.35-.64-.9,0-1.38a1.58,1.58,0,0,1,1.32-.27c4,.81,8,1.4,11.51,3.61a4.14,4.14,0,0,1,1.66,1.73c.51,1,1.41,1.89,1.48,3.15a4.89,4.89,0,0,1,0,1.21,7.87,7.87,0,0,0,0,2.82,9.87,9.87,0,0,1-.21,4.42,4.39,4.39,0,0,0-.09,2.7C198.6,258.79,198.34,259.25,198.59,259.72Z"/><path class="cls-1" d="M232.52,280.58c.22-8.89,1.09-17.73,2.11-26.56a69.86,69.86,0,0,0,.5-7.23,16.79,16.79,0,0,0-.55-4.3c-.41-1.62-.92-3.09-2.69-3.82-1-.41-.81-.65.05-1.51a5.56,5.56,0,0,1,5-1.82c1.13.18,2.27.38,3.37.67,1.52.4,3,.88,4.51,1.34a9.14,9.14,0,0,1,4.56,3.4,19.69,19.69,0,0,1,3.75,7.91,21.75,21.75,0,0,1,.34,3.91,39.22,39.22,0,0,1-.06,5.74,21.31,21.31,0,0,1-2,7.36c-.29.53-.71,1-.45,1.64a.58.58,0,0,1-.06.52c-1.08,1-.85,2.42-1,3.7-.23,1.48-1.09,2.77-1.57,4.19-.93,2.76-2.21,5.42-2.55,8.34-.12,1.06-.87,1.76-1.11,2.75-.5,2.1-.46,4.24-.79,6.35s-.58,4-.71,6.06a7.62,7.62,0,0,0,.16,1.6,29.24,29.24,0,0,1,.52,5.36,3.63,3.63,0,0,1-3.38,3.67,2.61,2.61,0,0,1-1.23-.22c-3-1.24-4.53-3.63-5.2-6.7a41,41,0,0,1-1-7.89c0-2.41-.46-4.81-.44-7.23S232.52,283,232.52,280.58Z"/><path class="cls-1" d="M237.72,205.6a4,4,0,0,1,2.26.23,4.24,4.24,0,0,0,3.42.09,3.18,3.18,0,0,1,2.66.37,48.58,48.58,0,0,1,5.2,3.55,6.75,6.75,0,0,1,3,6,6.29,6.29,0,0,0-.07,1.61c.88,3.77-.93,6.9-2.34,10.14a1.24,1.24,0,0,1-.9.8,2,2,0,0,0-1.6,1,.93.93,0,0,1-.75.42c-1.15-.14-2.29.41-3.39.15-2.26-.53-4.63-.76-6.69-2-.16-.09-.33-.16-.48-.26-1-.65-2.36-.63-3-1.88-1.1-2.3-2.16-4.6-1.61-7.27a34.73,34.73,0,0,0,.9-6.81c0-1,.1-2-.79-2.66-.35-.28-.23-.56-.06-.94.74-1.68,1.76-2.88,3.82-2.6A1.31,1.31,0,0,0,237.72,205.6Z"/><path class="cls-1" d="M152.28,244.06c.24-.92-.06-1.92.76-2.66.17-.16.38-.56-.33-.65s-.49-.84-.14-1.21,1.05-.71,0-1.06c-.38-.12-.2-.53-.21-.81q-.09-4.12-.16-8.25c0-.56,0-1.12,0-1.68s-.35-.74-.69-.41c-1.13,1.07-2.63,1-4,1.42a33.12,33.12,0,0,1-4.36,1.1c-1.34.27-2.71.43-4.07.57a9.62,9.62,0,0,0-2.81.57,1.58,1.58,0,0,1-2-.57,94.48,94.48,0,0,1-6.27-8.6,7,7,0,0,1-1.51-3.62,9.45,9.45,0,0,1,.74-4.61c.21.09.4.11.46.21.95,1.58,2.37,1.91,4.09,1.64,2.47-.38,4.93-.72,7.36-1.29a47.32,47.32,0,0,1,8.64-1c1.27-.06,2.54-.18,3.81-.25a.74.74,0,0,0,.82-.85c0-1.37.1-2.75.15-4.12,0-.39.12-.84-.53-.86-.29,0-.21-.26-.11-.44.19-.36.36-.73.58-1.07a1.31,1.31,0,0,0,.2-1.31c-.54-1,.05-1.87.3-2.77a1.89,1.89,0,0,0,0-1.42,2.58,2.58,0,0,1,.16-1.8c.65-1.54.87-3.23,1.55-4.74.32-.7-.24-1.24.05-2a36.58,36.58,0,0,1,4.83-8.8c1-1.34,2-2.73,3-4.06a8.88,8.88,0,0,1,2.32-2.13c1.08-.67,2.12-1.41,3.14-2.18,1.57-1.19,3.45-1.74,5.15-2.65.39-.21.69,0,1,.17a14.36,14.36,0,0,0,6.75.64,12.21,12.21,0,0,1,7.52,1.43,3.65,3.65,0,0,1,1,.88,4.76,4.76,0,0,0,.78.94c1.8,1.36,2.09,3.33,2,5.33-.3,4.5-1.19,8.83-3.76,12.72a41.31,41.31,0,0,1-9.58,10.74c-.83.62-1.69.27-2.72-.28,1-.71,1.89-1.28,2.73-1.91a26.61,26.61,0,0,0,9.28-12.06,21.52,21.52,0,0,0,1.44-8.38,4.86,4.86,0,0,0-.8-2.37c-1-1.78-2.69-2.72-4.28-3.73a4.75,4.75,0,0,0-6.29,1.25,17.75,17.75,0,0,1-3.05,2.49,12.1,12.1,0,0,0-4,5.27c-.63,1.89-1.55,3.85-1.21,6.05a18.77,18.77,0,0,1-.2,3.94c0,.41-.1.81-.11,1.22-.06,4.46-.59,8.92-.29,13.39,0,.55,0,1.12,0,1.67,0,1.35.22,1.6,1.58,1.7a40.57,40.57,0,0,1,5.15.69,18.17,18.17,0,0,1,4.1,1.18c2.49,1.17,5.1,2,7.66,3a1.66,1.66,0,0,1,.95.6,3,3,0,0,1-2,.39c-1.53,0-3-.24-4.57-.19a25.53,25.53,0,0,0-4.53.41,12.41,12.41,0,0,1-2.58.26c-1.77,0-3.16,1-4.64,1.73a1.08,1.08,0,0,0-.54,1.16c.19,3.15.07,6.3.21,9.45.11,2.52.15,5.06.3,7.58a1.52,1.52,0,0,1-.15.73,1.62,1.62,0,0,0,0,1.58,5,5,0,0,1,.32,2.4c-.08,1.16.17,2.33.09,3.46-.17,2.59.45,5.14.2,7.73a7.26,7.26,0,0,0,.23,2.3,47.05,47.05,0,0,1,.47,5.28c.17,1.37-.08,2.73.14,4.09a4,4,0,0,1-.23,2c-.24.64.23,1.52.33,2.3a4.59,4.59,0,0,1-.37,3.21c-.15.23-.23.49,0,.7.66.66.2,1.21,0,1.91-.31,1.19-.17,2.49-.37,3.72-.28,1.75.37,3.33.7,5a20.66,20.66,0,0,1,.33,4.85,30.23,30.23,0,0,0,.41,5,3.4,3.4,0,0,1-.34,1.68c-.14.41.77.87.6,1.57,0,.1,0,.2,0,.3a23.85,23.85,0,0,0-.12,4.14.91.91,0,0,1-.29.95c-.86.74-.87,1-.25,1.8.32.43.76.69-.16,1-.49.19-.13.85.1,1.31.39.8.26,1.05-.63,1.45-.24.11-.56.29-.49.5.24.71-.36,1.5,0,2.06.68,1,.32,2.14.55,3.2.12.53.33,1.27-.65,1.54-.43.12-.33.78-.35,1.24-.09,2.24.15,4.47,0,6.71a4.61,4.61,0,0,1-.39,1.77c-.64,1.35-1.26,1.62-2.5.75s-2.87-1.61-3.87-2.92c-.64-.83-1.66-1.47-1.68-2.72a1.69,1.69,0,0,0-.58-1.06c-1.25-1.23-1.23-3.05-2.05-4.49-.29-.51.15-1.46-.4-2.13-.26-.32-.26-.95-.95-.62-.18.08-.32-.19-.23-.26.92-.78-.1-1.05-.37-1.52a9.41,9.41,0,0,1-.88-4,42.68,42.68,0,0,0-.9-5,2.32,2.32,0,0,1,0-1.17,1.63,1.63,0,0,0-.27-1.9c-.49-.5,0-1.43-.17-2.19-.22-1.24-.18-2.53-.4-3.79a1.55,1.55,0,0,1,.43-1.65c.58-.52.38-.93-.53-1.94a1.28,1.28,0,0,1-.25-1,34.39,34.39,0,0,0-.25-5.92c-.26-4-.49-8-.59-12.06,0-1.22-.25-2.44-.23-3.66.08-5.13-.71-10.22-.63-15.35a16.45,16.45,0,0,0-.34-3,1.69,1.69,0,0,1,.59-1.74c1-.84.77-1.95.61-3S152.84,244,152.28,244.06Z"/><path class="cls-1" d="M326.37,299.74c-.82-1.83-.82-1.83-1.87-2.7-1,.95-.22,2.3-.72,3.53-.94-.42-.69-1.61-1.52-2-.63.41-.31.95-.19,1.52s-.07,1-.88,1.21c-1.05.3-2.41.05-3.12,1.36a.76.76,0,0,1-1.28-.32c-.08-.26-.13-.51-.38-.43-2.22.73-3.18-1.24-4.5-2.23a4.85,4.85,0,0,1-1.6-3.39c-.24-2.45-.59-4.88-.67-7.36-.13-3.87.23-7.72.12-11.59-.07-2.29-.12-4.58-.29-6.87s0-4.78,0-7.17c0-4.11.32-8.24-.06-12.31-.42-4.48-.46-9-1.81-13.41a6,6,0,0,0-2.93-3.93c-.21-.11-.44-.22-.49-.52a2.09,2.09,0,0,1,1.73-.74,13.29,13.29,0,0,1,5.9.58,27,27,0,0,1,8.44,4.49,21.27,21.27,0,0,1,6.33,8.25c.53,1.28,1,2.57,1.58,4a3.33,3.33,0,0,0,1.34-1.82,41.3,41.3,0,0,1,4.58-7.38,19.57,19.57,0,0,1,5.25-4.68,11.91,11.91,0,0,1,8.87-1.66,8.55,8.55,0,0,1,5.91,4.06A15.17,15.17,0,0,0,356.4,241c1.63,1.61,2.48,3.69,3.47,5.67a30.47,30.47,0,0,1,3,11.79,59.36,59.36,0,0,0,.75,6.08,12.6,12.6,0,0,1,.06,3.24c-.22,2.59.17,5.15,0,7.74-.21,4-1.21,7.83-1.61,11.77-.09.89-.88,1.47-.93,2.33a5.93,5.93,0,0,1-1.74,3.59,1.73,1.73,0,0,0-.49,1.8,2,2,0,0,1-.32,1.88c-.72.77-.4,1.56-.25,2.36.08.46.32.88.4,1.37.23,1.5.83,2.91.46,4.52a4.39,4.39,0,0,0,.65,2.77,4.69,4.69,0,0,1,.49,3.33c-.43,1.57-1.37,1.9-2.62.9a39.73,39.73,0,0,1-5.68-5.55c-1-1.24-2.14-2.44-3.16-3.7a35.14,35.14,0,0,1-7.49-18.17c-1-7.52-.77-15.06-.55-22.61.09-3.14,0-6.28.2-9.42A53.56,53.56,0,0,1,343,240.51a6.41,6.41,0,0,0,.28-3c-.16-.92-.59-1.16-1.41-.69a14,14,0,0,0-3.92,3.44,38.08,38.08,0,0,0-6.82,12.89c-.21.69-.54,1.34-.81,2a12.58,12.58,0,0,0-.65,6,32.93,32.93,0,0,1,0,7.75,7.24,7.24,0,0,0,.21,2.81,15.23,15.23,0,0,1,.25,4.26,45.2,45.2,0,0,0,.07,4.66,19.29,19.29,0,0,1-1.21,8c-.09.22-.28.43-.28.65,0,2.78-1.54,5.27-1.52,8.07C327.17,298.15,326.5,298.86,326.37,299.74Z"/><path class="cls-1" d="M405.23,279.41a2.17,2.17,0,0,0-1.08,1.72,21.38,21.38,0,0,1-4.22,8.92,22.29,22.29,0,0,1-5.88,5,11.33,11.33,0,0,1-8.73,1.2,12.86,12.86,0,0,1-5.07-2.31c-1.15-.88-2.33-1.73-3.48-2.61a5.93,5.93,0,0,1-1.87-2.16c-.52-1.08-1.79-1.57-2.29-2.74a4.34,4.34,0,0,1-.66-1.82,5.67,5.67,0,0,0-.75-2.4c-1.34-3-2.29-6.1-3.33-9.2a2.27,2.27,0,0,1-.08-1.41c.18-.63.23-1.31.47-1.92.33-.82-1.12-1.53,0-2.51.49-.42.19-1.7-.37-2.51a1,1,0,0,1,0-.7c.43-1.75.86-3.5,1.32-5.24a3.38,3.38,0,0,0,.3-1.93.87.87,0,0,1,.15-.86,7.39,7.39,0,0,0,1.51-3.42c.21-.77.89-1.11,1.26-1.74.7-1.18,1.5-2.3,2.27-3.45s.84-1.27,2.66-1.19a.7.7,0,0,0,.6-.32,1.92,1.92,0,0,1,1.4-1c.53,0,.06-.31.07-.47,0-.33.2-.71.44-.73,1.11-.08,1.52-1.07,2.27-1.6a6.4,6.4,0,0,1,5.06-.77c2.55.48,5.14.66,7.71.9a13.9,13.9,0,0,1,9,4.46,7.59,7.59,0,0,0,.68.57c.56-.4,1.12-.85.8-1.49a3.42,3.42,0,0,1,0-2.4c.25-1.18-.1-2.33,0-3.51.12-1.64.11-3.28.33-4.93a22.73,22.73,0,0,0,.07-4,38.25,38.25,0,0,1,.39-6.84,13.63,13.63,0,0,0,.2-2.64c-.11-2.09.08-4.21-.13-6.29-.15-1.47.65-3-.22-4.4-.13-.21,0-.59,0-.88a4.71,4.71,0,0,0,.2-1.41c-.36-1.73.32-3.28.66-4.9a29.4,29.4,0,0,0,.35-4.87c.13-3.13.2-6.27.46-9.4a23.76,23.76,0,0,0,.18-6.13c-.28-1.61-.18-3.24-.49-4.83-.14-.72.16-.88.65-1,4.08-1,8.17-1.34,12,.79a6.81,6.81,0,0,1,3.35,4.76,23.09,23.09,0,0,1,0,9,8.81,8.81,0,0,0-.22,2.29c.17,3.52-.68,6.89-1.31,10.32a62.63,62.63,0,0,0-1.39,8c-.16,3.05-.73,6.07-1.1,9.1-.08.65,0,1.32-.06,2-.12,3.92-.78,7.79-1.09,11.68-.13,1.73.18,3.51-.21,5.22a41.19,41.19,0,0,0-.5,5.74c-.18,2-.06,4-.06,6s-.2,3.71-.25,5.58c-.1,3.85,0,7.69.07,11.54a19.56,19.56,0,0,1-.36,3.73,37.3,37.3,0,0,0-.5,9.5c.24,3.72.42,7.45.55,11.17.08,2.21-.24,2.58-2.1,3.21s-2.51.18-3.85-1.36c-1.55-1.78-2-4.06-3.2-6s-1.46-4.33-1.92-6.55A11,11,0,0,1,405.23,279.41Zm-18.74-12.27c-.49,3.1.43,6.14.83,9.23a6.6,6.6,0,0,0,.44,1.56c.66,1.61,1,3.32,1.69,4.94a14.92,14.92,0,0,0,4.74,6.22c1,.76,1.46.67,2.38-.2a12.81,12.81,0,0,0,2.5-3.75,71.79,71.79,0,0,0,3.45-9.53,51.23,51.23,0,0,0,2-13.13c.14-2.42-.23-4.83,0-7.24.09-1,.16-2-.93-2.52-.44-.23-.27-.75-.36-1.15a6.25,6.25,0,0,0-1.65-3.36,10.81,10.81,0,0,0-5.92-2.9c-2.23-.32-3.88,1-5.07,2.5a9.64,9.64,0,0,0-1.59,3.55c-.53,2.23-1.19,4.41-1.79,6.62a21.06,21.06,0,0,0-.76,4.59A15.93,15.93,0,0,0,386.49,267.14Zm-12.87-3c-.7.85-1.44,1.66-.95,2.09.86.78.45,1.52.38,2.27a6.43,6.43,0,0,0,1.52,4.91,22.78,22.78,0,0,1-.79-2.57c-.12-.68-1-1.65.5-2,.08,0,.14-.44.1-.66C374.16,267,373.92,265.71,373.62,264.12Zm3.9-10.29c.72.42.73.45.18.84-.23.16-.35.31-.27.56.13.42.45.34.72.2,1.07-.56,1.27-1.68,1.6-2.68.13-.4-.29-.61-.59-.8a.45.45,0,0,0-.64.06.62.62,0,0,0,0,.82c.41.56.15.71-.41.71C377.89,253.56,377.62,253.53,377.52,253.83Z"/><path class="cls-1" d="M424.68,164.37c6.44-2.58,12.51-1.21,18.54.94a3.18,3.18,0,0,1,1.59,1.15c2,2.88,3.8,5.86,3.86,9.57a22.69,22.69,0,0,0,.6,3.72c.8,4.32,1.52,8.61,1,13.06-.39,3.45-.73,6.93-1.25,10.36s-.2,7.06-.36,10.59c-.13,2.87-.34,5.73-.46,8.6-.07,1.64.3,3.51-.77,5.06a.73.73,0,0,0-.09.52c.65,2.16-.32,4.44.44,6.59-.82,2.11,0,4.35-.57,6.49a4.42,4.42,0,0,0,.14,2.3,9.05,9.05,0,0,1,.06,5,12.39,12.39,0,0,0-.31,4.79c.18,1.55-.19,3.09-.05,4.66.08.84-.1,1.75.06,2.65a2,2,0,0,1-.29,1.73c-.53-1.41-.08-2.94-.89-4.13a.33.33,0,0,0-.25.39c0,4.15.15,8.3.05,12.45-.05,2.21-.48,4.4-.73,6.61a1.71,1.71,0,0,1-.68,1,2.44,2.44,0,0,0-.7,2.55c.58,2.75.87,5.57,1.27,8.37.08.56-.19.54-.64.48-.67-.09-.38.43-.34.72s.23.53.58.18.57-.2.69.16a6.2,6.2,0,0,1,.38,1.57c0,.44.05,1.12-.76.42-.32-.28-.51.16-.37.48a22.37,22.37,0,0,1,.91,3.58c.19.73-.28,1.32,0,2.09a44,44,0,0,0,1.94,4.71c.7,1.38,1.3,2.81,2.08,4.13a1.75,1.75,0,0,1-.2,2.3c-.69.8-1.29,1.82-2.63,1.54a13.25,13.25,0,0,1-3.45-1.56c-.18-.09-.27-.38-.37-.59s-.12-.72-.32-.83c-1.72-.94-2.07-2.88-3.2-4.24a2.85,2.85,0,0,1-.7-1.45c-.26-2-1.21-3.76-1.82-5.64-.77-2.39-1.06-4.9-1.8-7.31-1.1-3.59-1.29-7.35-1.71-11.06-.7-6.12-1.25-12.26-1.83-18.39-.18-1.92-.28-3.86-.39-5.79-.33-5.61-.81-11.2-1-16.82-.12-4.71-.12-9.42,0-14.13.1-4.89.1-9.79.11-14.68,0-3.48.1-7-.11-10.44-.27-4.46.28-9-.44-13.38-.66-4.07-1-8.17-1.5-12.25a30.86,30.86,0,0,0-1-4.9A10.92,10.92,0,0,0,424.68,164.37Z"/><path class="cls-1" d="M473,349.41h0Zm0,0h0Zm21.13,5.11c.4-.24.19-.43-.47-.57-.19.13-.17.44-1.33.14.09-.21-.26-.39-.31-.59-.4-.13-.6,0-.63.11l-.39-.43-1.18.16,0-.11c-1.56-.31-.33.46.1.81l-.77-.21c.68.74-1.37.29-2,.17.8.1.61-.5,1.16-.78.09-.21-.86-.3-1.07-.47-1-.09.11.39-.11.63l-.93-.5.3,0a2.78,2.78,0,0,0-1.34-.86c-.27,0-.19.17,0,.31-.37-.33-1-.7-.19-.8,0-.31-.91-.51-1.11-.39.33.36-.29.29-.9.26a14.06,14.06,0,0,1-.87,3,15.18,15.18,0,0,0-.37,2.77c-.71,3.15-1.51,6.29-2.37,9.42-.61,2.28-1.44,4.51-1.87,6.88a11.13,11.13,0,0,1-2,5,1.43,1.43,0,0,0-.24.76,9.84,9.84,0,0,1-1.58,4.74,73.56,73.56,0,0,1-6.66,10.36,14.82,14.82,0,0,1-4.37,3.68,3.44,3.44,0,0,1-3.44.14c-2-1.16-3.47-2.73-3.55-5.24-.1-3.1-.24-6.15.8-9.2.83-2.4.77-5.05,1.61-7.49.16-.44.24-.91.44-1.33,2.13-4.21,4.05-8.52,6.45-12.56,2.53-4.27,5.14-8.49,7.93-12.59a1.1,1.1,0,0,0-.37.07l-.27-.37-1.08.4a30.91,30.91,0,0,1-2.84-1.28q-1.71,2.55-3.41,5.11a93,93,0,0,0-8.35,15.47c-4.17,9.92-4.22,19.91-1.38,30.11a2.07,2.07,0,0,0,.77,1.37c2.21,1.28,4.47,2.8,7.16,2.21a18.61,18.61,0,0,0,7.22-3,28,28,0,0,0,6.68-6.58c.49-.7,1.3-.86,1.67-1.64.84-1.78,2.34-3.25,2.65-5.32a1.36,1.36,0,0,1,.37-.7,10.7,10.7,0,0,0,2.73-5.28,5.55,5.55,0,0,1,2.17-3.5,3.51,3.51,0,0,0,1.77-1.86,21.22,21.22,0,0,1,2-4.07,18.43,18.43,0,0,1,2.18-3.52c.81-1,2.07-2,2.11-3.34.07-1.91,1.07-3.48,1.38-5.31.19-1.07.47-2.14.77-3.21A25,25,0,0,0,494.08,354.52ZM473,349.41h0Zm0,0h0Zm43.92-45.12a2.43,2.43,0,0,0-2.08-.53c-.66.17-1.31.31-2,.46-1.21.26-1.44.1-1.37-1.17a3.63,3.63,0,0,1,.27-1.56,9.17,9.17,0,0,0,.91-4.1,53.57,53.57,0,0,1,.7-8.19c.53-3,1.28-5.92,1-9a1.07,1.07,0,0,1,0-.4c.84-2.1.66-4.34.93-6.52.49-3.87.31-7.75.59-11.62.17-2.48.2-5,.54-7.42a5.14,5.14,0,0,0-2.07-5,28.46,28.46,0,0,0-13.91-5.59c-3-.43-5.89.34-8.8.87-.14,0-.24.26-.54.59,1.81.63,1.61,2,1.4,3.38-.1.6-.16,1.21-.26,1.81,0,.31-.29.74.06.93,1.11.6.77,1.66.76,2.53,0,1.83-.21,3.64-.36,5.45,0,.41-.06.87-.46,1.07-1.17.57-1.26,1.63-1.36,2.73a13.22,13.22,0,0,1-.9,3.1c-2.28,6.14-5.09,12.06-7.69,18a68.83,68.83,0,0,1-6.08,11.87c-.43.63-.71,1.44-1.56,1.66-.16-.19-.3-.27-.31-.39-.06-.4-.23-.88-.07-1.18,1-2,.87-4.3,1.46-6.39a16,16,0,0,0,.71-5.17,23.72,23.72,0,0,1-.11-3.38c.29-3.2.91-6.38.36-9.62a8.05,8.05,0,0,1,0-1.2c-.09-3.34.3-6.69-.6-10a12.45,12.45,0,0,1-.31-2.18,11,11,0,0,0-1.67-4.72c-1.1-1.93-2.93-3.13-4.45-4.62a8.09,8.09,0,0,0-2.34-1.53c-1.67-.74-3.47-1.18-5.07-2a17.53,17.53,0,0,0-9.55-1.53c-.41,0-1-.33-1.16.4,2.33,2.17,2.4,2.15,2.55,5.09.21,3.84.37,7.68.43,11.53.1,6.41,0,12.83.26,19.24.2,4.51.29,9.08,1.87,13.37,1.23,3.3,2.1,6.76,4.72,9.48,5.57,5.72,11.12,3.7,15.13-1.16,1.86-2.24,3-4.92,4.38-7.48a109.43,109.43,0,0,0,5.49-12.14c1.28-3.34,2.95-6.49,4.31-9.8.06-.16.29-.26.68-.61a20.88,20.88,0,0,1,0,5.69c-.54,8.62-1.06,17.22-1.86,25.83-.61,6.55-1.06,13.11-1.83,19.66a6.38,6.38,0,0,1-1.88,4.08,108.34,108.34,0,0,0-8.29,8.85c-2.08,2.48-4,5.05-5.91,7.68a2,2,0,0,1,1.13,1.26,10.64,10.64,0,0,1,3.24.36c2.14-3,4-6.14,6.44-8.92,1.08-1.27,2.27-2.47,3.41-3.7a3.31,3.31,0,0,0,.41.14c-.36,2-.74,3.94-1,5.91-.44,2.9-1,5.79-1.58,8.65l.34.1c-.46.27,1.08.44.23.56l.81.1,0,.11c.66.13,1.2.16,1-.14l.53.46.31-.46c.87.3.13.4.9.93l.9-.13,0,.11,1,0c-.86,0-1.33.49-.66.93.81.1,1.17-.47,2.1,0-1.76-.19,1.64.84-.1,1,2.15.27,2.71.64,4.55.64-.56.8,1.11.71,2.18.8.1-.33.2-.66.29-1a77,77,0,0,1,3.05-8.16c.94-2.34,2.11-4.62,2.35-7.22a9.52,9.52,0,0,1,2.34-4.84,6.58,6.58,0,0,0,1.18-2.44c.9-3.3,1.17-6.72,2.24-10a45.94,45.94,0,0,0,1-5.35,4.83,4.83,0,0,1,2-3.35,28.45,28.45,0,0,1,3.27-2.38,4.45,4.45,0,0,0,1.83-1.84A1,1,0,0,0,516.87,304.29ZM473,349.42h0Zm0,0h0Zm0,0h0Zm0,0h0Z"/><path d="M467.26,342.54a.78.78,0,0,0,.12-.19A.32.32,0,0,0,467.26,342.54Z"/><path d="M439.13,335l.35,0C439.26,334.9,439.17,334.92,439.13,335Z"/><path d="M484,347.34s0,0,0,0l1.18.34Z"/><path d="M378,323.41l.39,0A1.58,1.58,0,0,0,378,323.41Z"/><path d="M414.34,329.78a1,1,0,0,1-.51.06C414.06,329.9,414.25,329.91,414.34,329.78Z"/><path d="M491.74,354.05l-.4-.43C491.32,353.74,491.45,353.93,491.74,354.05Z"/><path d="M509,357.57a.41.41,0,0,0,0-.08S509,357.54,509,357.57Z"/><path d="M502.73,354.53h-.51C502.42,354.57,502.68,354.65,502.73,354.53Z"/><path d="M502,354.54h.25C502.08,354.5,502,354.48,502,354.54Z"/><path d="M155.47,351.33a3.62,3.62,0,0,0-1.05,1.12Z"/><path d="M321.67,318.9l.12-.12C321.68,318.81,321.66,318.86,321.67,318.9Z"/><path d="M156.29,354l-.35.13A.8.8,0,0,0,156.29,354Z"/><path d="M482.52,352.52c-.57.17-1.49-.44-1.55-.15C481.5,352.46,482.18,352.87,482.52,352.52Z"/><path d="M309.63,330.1h-.33A1.07,1.07,0,0,0,309.63,330.1Z"/><path d="M156.29,354l.4-.16a1.06,1.06,0,0,0-.19-.06A.63.63,0,0,1,156.29,354Z"/><path d="M262.72,320.41h0l.11-.06Z"/><path d="M259.56,320.24l.66-.17A1,1,0,0,0,259.56,320.24Z"/><path d="M154.42,352.45l-.6.66A2.87,2.87,0,0,0,154.42,352.45Z"/><path d="M226.09,325.44l.3-.1A.8.8,0,0,0,226.09,325.44Z"/><path d="M416.63,330.36c.07,0,.17.07.26.11S416.92,330.36,416.63,330.36Z"/><path d="M393.88,334.48a1.84,1.84,0,0,0-1.26.19A2.14,2.14,0,0,0,393.88,334.48Z"/><path d="M390,334.13l.14.06Z"/><path d="M414.26,338.57v0l0,0Z"/><path d="M409.45,337.77a1.17,1.17,0,0,0-.31-.19A.78.78,0,0,0,409.45,337.77Z"/><path d="M377.89,333.42h0Z"/><path d="M476,345.2c-.17.24-.34.49-.53.73-.86,1.16-1.68,2.31-2.5,3.48h0l-.21.3a1.1,1.1,0,0,0-.37.07l-.27-.37-1.08.4a30.91,30.91,0,0,1-2.84-1.28c1.13-1.67,2.27-3.32,3.44-5a2,2,0,0,1,1.13,1.26A10.28,10.28,0,0,1,476,345.2Z"/><path d="M471.62,343.59c-1.17,1.63-2.31,3.28-3.44,5l-.16-.14-.49.17c-.17-.29.09-.94-.83-1.11-.36.57-2.11-.3-2.51.39-.29-1.1-2.11-.29-1.6-1.31-1.21-.13-2.74-.51-3,.26l.2-.54c-.14.36-.81-.1-1.24-.17.14-.47-2.18-.4-2-1.31-1.06-.16-.6.51-.43.8a3.08,3.08,0,0,0-2.47-.87c-.29,0-1.6-.17-1.83.07l.39.47-1-1.1c-.49.59-1.27-.59-2.47-.64.17,0,.34-.1.26-.17l-1.31-.2c-.41.37.78.91.56,1.17-2-.34-3.44-1.63-3-2.13a4.29,4.29,0,0,1-1.88.23l.47.23c-1.86-.6-2.28.63-4.91.27-.16.44,1.46.57.8.9a6,6,0,0,1-3.14-.88c1-.5-1-.77-.27-1.21-1-.21-.73.4-1.37.54.21-.17.23-.88.2-1.17l-1.78-.41c-.19.14.24.49-.3.49-.11-.31-1-.6-1.34-.53,0-.21-1.06-.47-1.44-.66-.4,0-1.13.53-1.34-.06.36.14.43-.09.69,0l-1.06-.54c.73.71-2.23.1-1.17.64-.36.27-1.13.1-1.6-.13.77.17.36-.29.54-.41a10.75,10.75,0,0,0-2.2-.41c-1,.1-.36.29-.21.67l-1.8-.36c-.84.07.91.54-.43.51.51-.2-.34-1.1-1.18-1.18.24-.14.17-.39.73,0,.19-.14.11-.33-.23-.59-1.46.31-2,1.16-4.45.73-1.07,0-2-.91-2.35-.27a.28.28,0,0,1,0-.09l-1.71-.17c.24-.36,1.27.27,1.27-.16-1.51-.43-1.61-.09-2.54-.63.66.07,1.54.31,1.43-.2-1.51-.41-2.05,0-3.65-.07-.11.09-.07.24.07.36a26.28,26.28,0,0,0-3.3-.53l-.53.43c1.48,1,1.64,0,2.94.66-.54.43-2.1-.3-2.93-.23,0-.54-.68-.9-1-1.14-1.34,0-1.61-.46-2.5-.67-.87.2,1,.3-.4.41-2.13-.13.49-2.13-1.87-1l.13.5c-.53-.14-1.67-.4-1.94-.19.07-.44-1.66-.13-.56-.49l0,.11c.37.11.44-.11.61-.26-.19-.81-1.71-.66-2.68-1.07.11.09.41,0,.56,0-1.38-.43-.59.13-2.08.17,0,0,0,0,0,0s.2-.56-.64-.51,0,.53-.26.9c-.31,0-.63-.13-1-.17l-.27.53c0-.19-.7-.21-1.33-.16,1.13-.16,1.28-.73,2-1.31.46.31.93.1,1-.13-1.71-.66-2.5.7-3.48-.13,0,.4-.21.47.57.83-.31-.07-.68.24-1.28.3l.29-.07c-1.43-.24-2.63-.93-3.68-.51,0-.09,0-.19.11-.21-1.53-.34-.93-.07-2.31.09l.76-.31c-.4-.53-1.21,0-1.84-.14-.5.34.4.53.49.71-.37-.1-1,.68-1.61,0,.37.11.88.2.94,0a11.13,11.13,0,0,0-2.61-.27l.76-.3c-1.23-.41-1.13.17-2.14,0,.06-.19.23-.29-.71-.46l-.23.37c-1.11-.34-.09-.19-.86-.84a5,5,0,0,0-2.44.66c-.78-.64-2.41-.53-3.48-1.1-.66,0-1.14.3-1.87,0,0,.53-1.1.1-1.26.78.93.59,1.23-.67,1.56.21,0,.11-1.06,0-1.63.14l.27-.09c-3.17-.68-3.92,1.47-7.29.54-.07-.3.57-.17.36-.43-1.13-.31-.76.44-1.8.31l-4.67-.44c2.07-.4-.94-.59-1-.88l-.5.47c-.84-.4.57-.17.1-.46l-1.23.14-.09-.83a9,9,0,0,0-3.94.5c-4.54-.44-10.5-.3-15.08-.33-1.73.07-1.54-1-2.83-.41.14,0,0-.23.06-.34a31,31,0,0,1-4.77-.49c-.56.2.33.44.3.56-.5-.16-.83-.59-1.76-.47.59.46-1.4.5-2.17.46.56-.2,1.71-.07,1.53-.56a2.5,2.5,0,0,0-2.14.21l.46-.37c-2.14.34-1.86-.8-4.15-.23-.17.3.9.1.73.39-2.28.44-4.24-.56-6.78-.13.14,0,.41-.16.3-.21l-1.26,0c.43-.07-.24-.37,0-.56-.1-.3-.64-.09-1.17-.1-.86.56,1.31.93-.54,1.21.63-.8-1.93-.24-1.61-.7-3.11-.26-5.15.53-8.15.68-.09-.41-.71-.6-.8-1l-.68.3v-.11c-1-.24-1.73.27-1,.51.51,0,.68-.4,1.16.07-.74-.36-2.13.46-2.84-.14.14-.06,0-.11,0-.23l-.91.06.07.53a82.75,82.75,0,0,0-10.15.46c-1.43-.14-3.64,0-4-.43a21.12,21.12,0,0,0-5.22.64c-.76-.31-3.38.64-3.34-.19l-1.07.53v-.23c-.91.34-.51-.1-1.43,0v.47c-.9-.13-2.73.43-4.28.4v-.11c-.64.09-.78.4-1.43.27l-.11-.4c-4,1.58-8.15.69-12.53,1.73-2.58-.66-4.11,1.28-6.71.16-.9-.07-1.27.86-.11.66-3.8.59-7.78,1.27-11.8,1.8s-8,1.33-11.8,2.27c-2.85.44-6.09,1.08-9.05,1.71a41.18,41.18,0,0,1-7.45,1.2c-.09.2.43.2.7.26-1.11.44-.68-.26-.84-.4a8.69,8.69,0,0,0-1.91,1.11l.54.1a61.68,61.68,0,0,0-6,1.57,22,22,0,0,1-5.77,1.17l.07.34c-2.43.87-4.1-.09-6.78,1.48.3-.41,1.31-.63.6-.83-3.71,1.9-6.66,1.11-11,2.43a1,1,0,0,0,.5-.77l-1.54.8c-.83,0,.7-.4.36-.64-1.67.34-.26,1-2,1.37-.17-.57-1.64.39-2,.26-.24.11-.34.66-.9.66,0,0,0,0-.07,0s.46-.36.24-.37l-2.34,1.21c0-.33-1.07.11-.2-.56-1-.44-1.61,1.34-2.25.69l-1.16,1c-.6-.1.23-.11.1-.46l-1,.6c-.09-.23-.11-.67-.68-.31-.88.61.88.07-.47.59-.56.39.24-.8,1-.94l-1.07.16.23-.11c-.27,0-.13-.67-1.16,0l.33-.24c-1.53.34-1.36,1.44-1.74,2a2.19,2.19,0,0,0-1.37.21l.21.77c-.11-.56-.88.67-.9.34l.66-.54c-1.4.3-.27-1.36-1.64-.77,0-.47.77-.14,1.53-.8-.69-.16.29-1,.47-1.63,2.41-2.75,7.48-6.24,13.87-9.49a144.94,144.94,0,0,1,21.46-8.66c7.41-2.35,14.53-4.14,19.79-5.25l6.29-1.28c1.5-.3,2.35-.41,2.35-.41s2,.41,2.23-.17c.07.36,1,.37,1.93.21.8-.63,1.76-.54,2.7-.84a.14.14,0,0,0-.07.16c.93.13,1.81-.69,2.74-1l1.07.31a7.2,7.2,0,0,0,2.63-.84c2.05-.26,4.37-.59,6.58-.93a37.41,37.41,0,0,0,5.88-1.26c.8.73,3.58,0,4.91-.14l.13.4.94-.6c-.14.3,1.06.26,1.58.46l.13-.37c0,.39,1.48-.67,1.34.3a43.55,43.55,0,0,1,5.61-1.7c-.14.11-.2.26-.37.37,2-.94,1.47,1,3.57-.2a38,38,0,0,1,9.8-.4,7,7,0,0,0,1.48-.37l-1.84-.26,2.53,0-.27.14a59.17,59.17,0,0,0,7.36-.84,61.53,61.53,0,0,0,7.72.13,42,42,0,0,1,7.38.46l.5-.87c.24.23.06.64.83.88a1.09,1.09,0,0,0,1-.88l1,.49c.24-.87,2.87.46,3.54-.56a3,3,0,0,0,2.5.27c.39.07-.36.68.86.56-.17-.71.46-.4,1.3-.73.94,0,1.37.7,2.33.56l-.41.16A5.06,5.06,0,0,0,313,319c.3-.23-.74-.39-.19-.6.36.31,1.13.57.29.9.63.19,1.87-.06,1.8-.47l-.64-.2,4.11.2c-.81.09.23.24.33.43.49-.5,2-.59,2.25-.68l.59.57.2-.21c0,.07.13.13.2.19l1.14-.41a2.1,2.1,0,0,0,2.08.37l-.63-.33c.51,0,1.3.44,1.9.13-.09.09,0,.2-.09.33a34.92,34.92,0,0,0,7.21.1l-.14.06a9.77,9.77,0,0,0,3.44-.37c2.53.17,6.61.6,9.76,1l.61-.4.06.41a19.43,19.43,0,0,1,4.41.66,25.94,25.94,0,0,0,4.18.83l0-.41c1.1.54,1.27-.26,1.5.53,1.9,0,3.38,0,5.31-.13-.11.46,1.11.43,1.74.67,1.28-.9,1.54.31,3.11,0l-.29.09c.94.06,1.37-.07,2,0l-.06.23c1.41.39,1.64,0,2.68.16.88.3-.26.5,1.2.64.2-.26,1.2-.41,1.78-.57-.57-.5,1.13.88,2.18.5l-.33.19,1.34.16a.29.29,0,0,0-.17.09c1.51-.09,1.37.5,3.44.39l-.29.07c1.86.16,4.12.31,5.55.57l-.06.23c.76-.09,1.51-.16,2.25-.23l-.36.3,1.2.21c-.16,0-.17.09-.07.16,1.78-.53,3,1.11,5.12,1.26l-.29.06c.29.47,1.38.43,2.1.78.1-.34.74-.7,1.56-.69l-.64.37.93.1-.14,0c-.13.46.78.14,1.08.5,1.34.11-.53-.51.51-.33-.29.49,2.18,0,2.5.78l3,0-.21.27a2.69,2.69,0,0,1,1.81-.11c.26.06-.67-.06-.86.1,1.2.56,3-.11,3.38.66.77.16.87-.19.8-.39.11.51,1.93.46,2.81.68l-.5.33c.4-.16.94.1,1.37.2-.3,0-.6,0-.67.19a26,26,0,0,0,3.67.61c-.06,0,0-.11.07-.17a18.34,18.34,0,0,0,5.15.67c-.46.1-1.64-.09-.81.39,1.73.17,1-.41,2.47-.4.19.27-1,.1-.33.59l1.48-.3-.16.46c3.45,0,6.61,2.67,9.59,2l-.07-.61c1,.87,2.21.44,2.83,1.48l.34-.17.36.57.74-.56-.14.46.78-.07c-.09.09.07.26-.06.36,1.77-.33,1.14.73,2.88.53-.16,0-.46.09-.34.17,1.86-.13,2,.68,3.87.87l-.39.29a6.65,6.65,0,0,0,1.84.3l-.29-.37.87.69.74-.13-.09.23c2,.1.88.29,2.94.39-.3,0-.53.29,0,.53.44-.07,1.78.46,2.74.51-.41,0-.09.23,0,.31.51.13,1.14-.07,1-.36l-.77-.2c1.18-.19.6.64,1.81.77,0-.43,0-.43.93-.26h-.7c.1.5,2.48.44,1.11.76.69.43,1.21.13,1.88.24l-.54-.44,3.07.78c-.09.21-.39.27-.31.46h.7l-.3,0c1.4,1.14,2.81,0,4.15,1.24l0-.41.06.2c.56-.17,1,.36,1.33.07-.06.44,1.68.46,2.51.91.37-.26.51-.29,1.43-.09A.79.79,0,0,1,471.62,343.59Z"/><path d="M472.75,349.72l.21-.3C473.19,349.64,473,349.69,472.75,349.72Z"/><path d="M485.16,352.38c.16.13.31.29.1.31C485.34,352.6,485.28,352.5,485.16,352.38Z"/><path d="M498.35,352.09v.3C497.77,352.15,497.81,352,498.35,352.09Z"/><path class="cls-1" d="M497.68,352.25c-.31,1.08-.66,2.15-1,3.23a27.51,27.51,0,0,0-2.64-1c.4-.24.19-.43-.47-.57-.19.13-.17.44-1.33.14.09-.21-.26-.39-.31-.59-.4-.13-.6,0-.63.11l-.39-.43-1.18.16,0-.11c-1.56-.31-.33.46.1.81l-.77-.21c.68.74-1.37.29-2,.17.8.1.61-.5,1.16-.78.09-.21-.86-.3-1.07-.47-1-.09.11.39-.11.63l-.93-.5.3,0a2.78,2.78,0,0,0-1.34-.86c-.27,0-.19.17,0,.31-.37-.33-1-.7-.19-.8,0-.31-.91-.51-1.11-.39.33.36-.29.29-.9.26.23-1.21.39-2.44.64-3.62,0-.16.07-.3.1-.46l.34.1c-.46.27,1.08.44.23.56l.81.1,0,.11c.66.13,1.2.16,1-.14l.53.46.31-.46c.87.3.13.4.9.93l.9-.13,0,.11,1,0c-.86,0-1.33.49-.66.93.81.1,1.17-.47,2.1,0-1.76-.19,1.64.84-.1,1,2.15.27,2.71.64,4.55.64C494.94,352.25,496.61,352.16,497.68,352.25Z"/><path d="M483.62,347.28c0,.16-.07.3-.1.46-.26,1.18-.41,2.41-.64,3.62-.66,0-1.33,0-.91.51-.31-.24-1.5.09-1.71,0,0,.23.07.34.37.49a.44.44,0,0,0-.2.11l.74.63c-1.07-.49-1.38-.76-1.17-1.3-1.3-.24-.49.16-1.84,0,.61-.13.46-.24.11-.34a6,6,0,0,1,1.9-.13c-1.67-.4-.59-1.38.07-1.26-.61-.24-.84-.73-1.64-.83l-.76.51-.14-.71c-.47-.26-1.31-.24-1.3.07,1.2.61-.87,1.13-.87,1.41-.16-.3.09-.57-.39-.7.24,0,.34-.19.14-.36-1.08,0-1.63-.64-1.84.06l-.49-.16h0c.81-1.17,1.64-2.33,2.5-3.48.19-.24.36-.49.53-.73.43.09.83.17,1.17.21,0-.11.13.4-.67.3,1.24.77,2.8.06,4.47,1.18v-.41c1.27.36-.44.78,1.21.88l-.13-.4C483,347.14,483.24,347.17,483.62,347.28Z"/><path d="M511.38,359.21c-.47.21-.11,1,.66,1.13a2.11,2.11,0,0,1-1-.26c0-.31.47-.78-1.08-1.13-1.43,0,.1,1.44-2.35.56l-.21-.19c.4.06.76.23,1.1.09.53-.57-1.2-.19-.57-.66-1.26-.7-2.28,0-3.42-.26-.88-.94,1.47-.16.91-.83l-1.06-.2c1.57.2,0-.59,0-.87-.56.53-1.31-.4-1,.56-2-.4-5-.6-5.72-1.87-.78.19.66.44-.59.37a1.12,1.12,0,0,0-.29-.19c.3-1.07.64-2.14,1-3.23a2.51,2.51,0,0,1,.69.14v.31l2.21.5c-1.1-.1.21.49,0,.73l1.64-.19a8.31,8.31,0,0,1-1.08.54c.07.24.44.26.84.24a.07.07,0,0,0,0,.07l1.4.37c.16.3-1.44.06-.63.49a3.09,3.09,0,0,0,1.16.1.68.68,0,0,1-.26.11c1.4.06,2.61-.8,4.1.4-1.46-.26-.78.19-1.48.47,1.1.09.27.39.73.64l.47-.77c1.21.5,0,.73.23,1.11.43,0,1.46.47,1.33,0,.19.17,1,.44.14.53,1.16.6,1.28,0,1.63-.17,1.84,1.36,1.37.47,3.34,1.81C513.63,359.9,511.85,360.1,511.38,359.21Z"/><path d="M414.87,338.75l-.61-.18c0,.1-.07.22-.37.28Z"/><path d="M385.36,333.84a1,1,0,0,0-.24.1C385.27,333.94,385.33,333.89,385.36,333.84Z"/><path d="M378.05,333.79c.53,0,.08-.22-.15-.37C377.87,333.51,377.87,333.63,378.05,333.79Z"/><path d="M431.78,340.61c-.12,0-.19.07-.2.17C431.75,340.72,431.79,340.67,431.78,340.61Z"/><path d="M477.49,351.24a1.33,1.33,0,0,1-.16-.12A.26.26,0,0,0,477.49,351.24Z"/><path d="M475.15,349.88a2.62,2.62,0,0,0-.53-.07A1,1,0,0,0,475.15,349.88Z"/><path d="M420.58,338.65a1.11,1.11,0,0,0-.51.06A.75.75,0,0,0,420.58,338.65Z"/><path d="M474.07,349.79l-.62-.21,0,.09Z"/><path d="M478.27,351.5a8.13,8.13,0,0,1-.79-.26A1.26,1.26,0,0,0,478.27,351.5Z"/><path d="M448.78,343.48h-.07C448.17,343.56,448.5,343.55,448.78,343.48Z"/><polygon points="471.1 349.87 471.02 349.83 470.8 349.9 471.1 349.87"/><path d="M481,352.37a.78.78,0,0,0-.34,0l.35.14A.23.23,0,0,1,481,352.37Z"/><path d="M458.21,346.38c.22-.13.31-.23.34-.32C458.34,346,458.18,346.07,458.21,346.38Z"/><path d="M179,425.53c-3.48,0-9.82-.21-17.21-.24l.22-58.57c4.95-.24,12.34-.39,19.47-.36,12.6.05,19.62,5.2,19.59,14.59A13.78,13.78,0,0,1,192.17,394v.17a13,13,0,0,1,10.47,13.16C202.59,415.88,196.73,425.6,179,425.53Zm-.86-26.07c-.87,0-3.74,0-5,.07L173.14,416a53.15,53.15,0,0,0,6.26.37c7.39,0,11.14-3.44,11.16-8.74C190.56,401.85,185.53,399.48,178.15,399.46Zm1.48-24c-2.43,0-4.35.07-6.34.15l-.06,15.3c1.39.09,2.78.1,4.61.1,7.73,0,11.22-3.09,11.24-8.3C189.09,378.38,186.58,375.5,179.63,375.48Z"/><path d="M241,425.59l-15.73-24.31h-1l-.09,24.25-11.3,0,.22-58.66c4.61-.24,10.08-.31,16.86-.28,13,.05,21.27,4.6,21.23,16.59,0,8.69-6.31,14.92-14.49,16.28,1.56,2.18,3.29,4.36,4.67,6.45L255,425.65Zm-12.16-49.84a31.37,31.37,0,0,0-4.43.24l-.06,16.95c.78.09,2.35.18,4.08.19,6.78,0,11-3.44,11-8.91C239.41,378.57,236,375.77,228.82,375.75Z"/><path d="M262.72,425.67l.22-58.66,11.3,0L274,425.71Z"/><path d="M298,426.76a52.31,52.31,0,0,1-13.55-1.62l1.26-10.86a33.5,33.5,0,0,0,12.77,2.57c5.3,0,9.83-2.14,9.85-7.61,0-11.21-24.66-6.17-24.59-25.47,0-10.43,8.06-17.61,22.23-17.56a55.39,55.39,0,0,1,10.6,1.17l-1.08,9.9a32.73,32.73,0,0,0-10.08-1.69c-6.6,0-9.66,2.83-9.67,7,0,10.52,25.09,6.7,25,25.3C320.71,418.76,311.55,426.81,298,426.76Z"/><path d="M348.94,377l-.18,49-11.3,0,.18-49-15.21-.06,0-9.65,41.71.15,0,9.65Z"/><path d="M391.59,427.1C373.69,427,365,415.62,365,397.45c.07-19.38,13.06-31,28.79-30.92s26.65,9.48,26.57,29.56C420.31,415.48,407.5,427.16,391.59,427.1Zm1.15-50.4c-8.08,0-15.58,6.37-15.63,19.58-.05,12.43,4.79,20.53,15.3,20.57,7.65,0,15.84-5.85,15.89-19.93C408.35,383.89,402.82,376.74,392.74,376.7Z"/><path d="M429.23,426.29l.22-58.66,11.3,0-.18,48.75,19,.07,0,9.91Z"/><ellipse class="cls-2" cx="92.34" cy="139.29" rx="68.7" ry="68.67"/><path class="cls-1" d="M30.24,148.06a1.52,1.52,0,0,0,.23.36l0-.09a4,4,0,0,1,.27-.46C30.54,147.79,30.36,147.76,30.24,148.06Z"/><path class="cls-1" d="M27.36,161.6c0,.12.08.25.13.37C27.54,161.84,27.82,161.74,27.36,161.6Z"/><path class="cls-1" d="M27.31,159.66a1,1,0,0,0-.42.56c.12.36.24.72.37,1.08l.59-.37C26.62,161.08,28.16,160.15,27.31,159.66Z"/><path class="cls-1" d="M31.21,111.42l-.34,0c.92,0,1.86-.15,2.85-.17l1.5,0a10.17,10.17,0,0,1,1.47.13c.39.38-1.1-.16-.77.26a15.73,15.73,0,0,0,2,.35,16,16,0,0,1,2,.55c-.24,0-.2,0-.31,0,1.31.59,0-.36,1.08.07-.11.12-.07.18.28.39l.41-.1c0,.06,0,.23-.22.24a3.38,3.38,0,0,1,1.31.27,3.39,3.39,0,0,0,1.21.33c.07.11-.32.25-.22.42a3.26,3.26,0,0,0,1.42.49c.08-.14.3,0,.56.14a2.34,2.34,0,0,1,.72.39,3.35,3.35,0,0,1-.72-.39,3.82,3.82,0,0,0-.56-.14h0a8.5,8.5,0,0,0,1.06.79c1,.62.24-.07,1.09.18l-.74-.54,1.46.7-.64-.17c.6.44,1.37.62,2.11,1.06l-.25-.35.9.41c-.1.35,1,.72.36.79,1.43,1.13,2.67,1.36,4.05,2.28-.24-.16-.19,0-.27,0a5,5,0,0,0,1.91,1c-.16,0-.37-.08-.43,0,.93.66.68.23,1.77.87-.37-.08-.33,0-.07.28,0-.14.32,0,.53.06-.68,0-.26.36.07.67a1.22,1.22,0,0,1,1.62,0l-.16.07c.54,1,.68-.39,1.23-.43.26-.29.21-1.13-.19-1.17a13.59,13.59,0,0,0,3.36-1.35,4.32,4.32,0,0,1,3.08-.48c.83-.71,1.56-1.39,2.32-2.09a9.58,9.58,0,0,1,1.23-1,5.91,5.91,0,0,1,1.54-.62l0,.18c.83,0,2.45-.14,2.78,1.1a7.61,7.61,0,0,0,1.92-1.54,2.77,2.77,0,0,1,2.33-.9l-.32.55c.52.17,1.18-.56,1.35-.74.17,0,.09.27.1.44.52.35.68-.37,1-.55l-.08.45c1.62.57,3.77-1.42,5.77-1.45-.35.17-.1.63.07.81.64-1.54,2.91-1.36,3.71-1.76l-.47.59c1.55-1,1.49,1.35,3,.33l-1-.76c.67.18,1.21-.09,1-.72.79.44.15,1.07,1.3,1.17.06.39-.81.3-.41.8l1.6,1h0c-1.11-.76.78-1,0-1.73.92.44-.15,1.42,0,1.73l.11.08-.11-.07c0,.11.25.13.75,0-.18-1.76,1.3-.14.48-1.83a12.31,12.31,0,0,1,3.15.37,5.63,5.63,0,0,0,2.91-.07c.7,1.75,3.81.26,3.44,2.48a3,3,0,0,0,2.71-1.06c-.2-.19-.5.06-.73.14.34-.52,1.65-.52,2.19-.41a7.15,7.15,0,0,0-2.58,1.51,18.87,18.87,0,0,0,3-1l.1,1.16c.92-.71.55,1,1.52,0l-.1-.36c1.48.28,1.67-.81,3.1-.71l-.14.43c.44.26,1.35-.65,1.62.44l-.91-.12c0,.8.57,1.27.79,1.71,1,0,.59-1.21,1.09-1.21,0,.77,0,.4-.51,1a6.13,6.13,0,0,0,3.56-.78.49.49,0,0,1-.07.27c1.06.39,2.36-.64,2.88.15l-.24,0c.59,1.27,2.55-.38,2.21,1.48.31.46-.91-.35-.51.73,1.1.94,1.29-1.25,2.27-.41-.14-.1-.12,0-.22.17a28.81,28.81,0,0,0,2.91.5,1.06,1.06,0,0,1-.06-.19l.27.21-.21,0c.61,1.78,3.46.81,4.09,2.92-.17-.73.56-.57.66-.83a.46.46,0,0,0-.1.26c.43.22.7-.32,1-.49,0,0,0-.07,0-.12.24,0,.25.1.38.22-.12-.19-.24-.18-.35-.1.17.65,1.45-.06,1.56.36.15-.36.47-.13.87,0-1,.1-.57.69-1.16,1.12,1.12.64,2-1.06,3.13-.28l.4,1c.58-1,1.54-.09,1.67-.49a1,1,0,0,1,0-.39.73.73,0,0,1,0,.39c.07.42.3.73,0,1.24.6,0,1.1.8,1.57.26l-.37-.48c1.35,1,2.89-.07,3.75,1.13l-.7,1.55c.49,1,1.79-.24,2,1,0-.62-.12-.49.59-.79-.24-.23-1-.06-1.44-.28l1.43-.47-1.8-.26c1-.31.84-.18.83-.93,1.2-.08.73,1.21,1.93,1,.24.36-.35.77-.1,1.26,1.07-.2,1.09,1.81,2,1.24.12.24-.36-.1-.47.28.6.08,1,.31,1.31-.09l-.38-.37c.38.22.72-.39,1.33.3.6-.17,1.17-.84.7-1.06.24,0,.48.59.13,1,1.18.52,1.27-1.42,2.11-.2.12,0,.22,0,0,0l0,0c-.1,0-.21.06-.21.17a.92.92,0,0,0,.71.31c-1.07-.28-.2,1.39-1.29.61-.22.89.84.55,1.1,1,.82-.33.56-1.18,1-1.47-.11.26.13.36.37.59l0-.75a1.62,1.62,0,0,0,.83.17l-.59.06c.41.29.77,1.29,1.6,1.41a68.7,68.7,0,0,0-130.9-18.87C30.29,111.48,31,111.82,31.21,111.42Zm100.34,7.34c.61-.09.21.85-.15.9ZM112.72,115c-.23.09-.61-.32-1-.45C112.09,114.19,112.58,114.56,112.72,115Zm-75.39-3.58.47.24-.76-.06Z"/><path class="cls-1" d="M160.35,131.36h.22c0-.28-.07-.56-.11-.83A.5.5,0,0,0,160.35,131.36Z"/><path class="cls-1" d="M57.83,124.3c-.32-.13-.57-.14-.6,0a2.3,2.3,0,0,1,.62.08Z"/><path class="cls-1" d="M35.87,150.2h0l-.25.38Z"/><path class="cls-1" d="M32.07,162.89l.13,0-.07,0A.17.17,0,0,0,32.07,162.89Z"/><path class="cls-1" d="M159.13,148.15l-.72.46-.48.3c0,.15,0,.29.13.37l.51-.68c-.17.39.05,1,.64.66.25-.8-.36-.13-.34-.64l.57.34A.47.47,0,0,0,159.13,148.15Z"/><path class="cls-1" d="M161,136.49a.28.28,0,0,1,0-.34c0-.18,0-.35,0-.53-1.34-.77-2.74-.06-4.13-.51.25.11.24-.14.35-.28-.75-.56-1.46-.25-2.17.06.23-.27.47-.29.58-.55-1-.42-.84.32-2.05.17.47-.29.47-.54.22-.77a.79.79,0,0,1-.71.55c1.64-1.62-.87-1.32.3-2.66-.23.39-2.28.54-2.13,1.53l.36,0c-.2.56-.51.17-.83.08s-.48,0-.14,0a.34.34,0,0,1,.14,0c.19,0,.41-.07.46-.18-1.81,0-3.15-1.3-5.06-1.55.24-.14,1.08-.19.71-.55-1.57-1-3-.42-4.9-.66.46-1.29,1.91.61,2.49-.55a34.48,34.48,0,0,0-6.19-1c.06-2.12-2.24,0-2.9-2-.13.67-.83.66-1.5.42,0,0,0,0,0,0l-.09-.05a4.18,4.18,0,0,1-.87-.46l.87.46.1,0c.43-.42-.28-.71.06-1-.81.33-2.59,0-2.08-1.24-.58,1.13-1.25-.52-2,.15a1.62,1.62,0,0,1,.33.71l-.51-.55a.65.65,0,0,1,.18-.16c-.6-.69-1.69-.28-2.51-1,.09.87-1.05.05-1.49.28.11,0,.34-.07.33-.19-.08-.74-1.26.25-1.67-.29-.16-.35.27-.69-.11-.86-.17.53-1.77.75-2.12,0,.25.07.32-.21.53-.38a11.76,11.76,0,0,1-4-.59,8.19,8.19,0,0,0-4.06-.29l.64-.85c-1.43-1.5-1.35,1.34-2.61,1-3.42-1-7.06-2.74-10.63-2.25-.27.26.14.35.16.75-.3-.13-.36-.93-.79-.45l.08.52c-1.59-1.4-4.6.87-5.83-1.21-1.51.88-2.68-.52-4.47.89-.63-.41.62-.94-.19-1l-1.67.94.09-.08c-.76.81-1.9.55-3.12.21s-2.52-.74-3.49,0l.08-.09a.63.63,0,0,0-.83-.53c-.08.27.17.36.42.62a13.73,13.73,0,0,1-3.61,1.38c.49-.66-.64-.32-.85-1-.27.56.36.7-.35,1.28A4.33,4.33,0,0,1,76,122c-.57,0-1.13-.06-1.65,0-.19.75-.74.74-.5,1.51a7.59,7.59,0,0,0-1.56.79,11,11,0,0,1-1.76.88l-.15-.24c0,1.08-1.5.15-1.54.8-.11-.34,0-.55-.17-.79l-.54.62c.19-.43,0-1.39-.66-1.21-.28.92.38.36.34,1l-.59-.76c-.41.31,0,1.31.62,1.31a11.89,11.89,0,0,0-2.09,1.32c-.19.14-.39.26-.58.39.9.55,1.78,1,2.9,1.64-.2.42-1.78-1.22-2.09-.92,1.75,1.16,3.58,2.32,5.61,3.49.27,1,2,1.1,2.89,2.35,0-.26.65.08,1.29.53h0l.09.07c.31.21.63.44.86.63l-.86-.63-.1-.07c-.32,0,.35.47.09.45.69.21,2.37,1.25,2.07,1.57.38-.25,1.21.84,1.85.89a2,2,0,0,1-.4-.48l.54.49a.34.34,0,0,1-.14,0c.64.6,1.61.93,2.45,1.62-.19-.42,1,.45,1.38.56-.1,0-.32-.13-.29-.07.16.36,1.17.47,1.62.9.19.23-.18.17.19.43a3.84,3.84,0,0,1,2.05,1c-.24-.14-.3-.06-.48-.08,1.33.57,2.61,1.32,3.94,2,.66.35,1.32.7,2,1a21.77,21.77,0,0,0,2.08.8l-.61.07c1.49,1.15,1.3.05,2.6.69a55.64,55.64,0,0,0,11.07,4.46c.3,0-.13-.16-.13-.3.31.14.33.42.82.37l0-.19a12.91,12.91,0,0,0,3.24.93,7.35,7.35,0,0,1,2.91.9c1.7.09,2.81.68,4.9.55.62.24-.78.19.08.35.64,0,1.28,0,1.92-.05l-.1,0a9.43,9.43,0,0,1,3.39.3,12.38,12.38,0,0,0,3.75.24l-.1,0c-.05.12.42.27.8.23.13-.08-.12-.13-.35-.23,1-.07,1.65-.16,2.22-.22s1.09-.1,1.9-.15c-.69.21.66.12.74.36.42-.18-.26-.24.68-.42,1.35-.13,2.6-.08,3.74-.11.43-.27,1-.27,1-.54a16.92,16.92,0,0,0,1.93-.38c.61-.15,1.27-.26,2.16-.48l.07.08c.4-.46,1.59-.25,1.87-.53,0,.13-.19.23-.12.3l.78-.32c-.35.2-.49.57.2.42.63-.41-.24-.1.05-.38l.3.24c.51-.21.54-.6-.11-.47,1.76-.61,3.44-1.32,5-2l-.08.26a12.77,12.77,0,0,1,2.52-1c0-.07.15-.26,0-.26.86-.73.25.25,1.19-.55-.23.2-.55.4-.54.53.63-.41,1.28-.8,1.9-1.23a4.23,4.23,0,0,0,2.22-.83c0-.09-.31-.06-.53,0l.49-.36.59.08c.21-.23.41-.46.61-.71l0-.06.15-.09-.12.14.17.25c.52-.4.55-.86,1-1.11l.07,0c.13-1.72.22-3.45.22-5.21C161.05,138.36,161,137.42,161,136.49Z"/><path class="cls-1" d="M36.52,149.38a3.91,3.91,0,0,1,.56-.58c-.36,0-.77.27-.84.07C36.1,149,36.27,149.24,36.52,149.38Z"/><path class="cls-1" d="M30.76,149c0,.07,0,.13-.06.2l.09-.13Z"/><path class="cls-1" d="M31.57,112.1a15.11,15.11,0,0,1-2.48.33,68.8,68.8,0,0,0-3.45,43.37c.2-.55.62-1.11.74-1.61.09.23-.1.42-.12.7.28,0,.81.39.9,0-.63-1.62.65-3,1.2-4.32.64.32,1.88-.19,3.13.07-.1-.27-.34-.81-.59-1.33l-.25,0s0-.09,0-.13c-.17.25-.24.4-.15.38-.86,0-.38-.38-1-.88.31-.33.72-1.22,1.25-.9a1.84,1.84,0,0,1,.65-.4.59.59,0,0,1,.28-.5V147a.88.88,0,0,0,.27.08c.84-.43.76-2.17.85-3.08.27,1.22,1,.64,1.52,1.14A7.44,7.44,0,0,0,33,146.48a.69.69,0,0,1,.47.2c1.22-.2.6-1.69,1.95-2.36a.53.53,0,0,0,.25.51c.49-.22.37-1,.12-1.35a1.38,1.38,0,0,0,1.86-.61c-.11-.75-.36-.89.27-1.45L38,142c1-.42,0-1.11.89-1.41-.37.09,0,.49.23.39.51-1,.34-1.15.15-2.4l.47.66c.29-1,.8-2.84,1.57-2.07-1.37-1,.81-2,1.4-2.48-.16.22,0,.51.14.66.43-1.93,2.41-2.26,3.64-3.35l1,.75c.61-.61-.75-2.6,0-3.17l.11.67a10.63,10.63,0,0,1,3-2.27l.48.66c.15-.59.64-1,.81-1.56,1.05.46,1.74-.44,2.62-1.32a4.09,4.09,0,0,1,2.63-1.54c-.11-.15-.18-.31,0-.33a2.08,2.08,0,0,0-.61-.33l-.1.31-.31.16.36-.48c-.42-.1-.48.18-1.17-.54-.11,0-.2-.11,0,0l0,0c.08,0,.18.07.16,0a2.87,2.87,0,0,0-.69-.49c1,.65,0-.59,1.05.31,0-.34-.84-.67-1.14-1-.68-.22-.31.31-.68.24.06-.07-.17-.23-.43-.46l.14.37a4.34,4.34,0,0,0-.78-.46l.52.24a7.65,7.65,0,0,0-2.08-1.63c.29.08.88.23.33-.26-1.08-.52-.18-.23-.65-.74-1-.59-.39.22-1.79-.82-.16-.1-.08.11.05.26l.19.14a.44.44,0,0,1-.19-.14c-1-.69-1.59-.9-2.5-1.61.41.29.7.57.06.31.35,0-.74-.59-1.08-.91l-.16,0c-.25-.28.1-.14.38,0,0,0,.1,0,.26.06s-.11,0-.26-.06.05.11.24.2c.54.18.57-.29-.2-.75s-.9,0-.81.16c-1.08-.72-1.3,0-2.32-.73a4.83,4.83,0,0,1-.65-.56,4.43,4.43,0,0,0-1.09-.7c-.52.08,1,.57.4.6a3.42,3.42,0,0,0-2.11-.86c-.41,0-.82-.09-1.25-.17a12.44,12.44,0,0,1-1.3-.38l.3-.27a12.25,12.25,0,0,0-1.36-.25l.61.29c-.44,0-1.45-.25-1.09-.43a4.51,4.51,0,0,1-2.14-.11c1,.09,0,0,.74-.08a3.49,3.49,0,0,0-1.86,0C32.25,112.25,31.86,112.09,31.57,112.1Zm8.72,2.16.59.17-.8-.21Zm-7.88-1.81c-.06.15.44.19-.06.25Z"/><path class="cls-1" d="M31.49,148.15c-.28.34-.53.64-.7.88l.12.25C31.57,149.19,31.56,148.69,31.49,148.15Z"/><path class="cls-1" d="M156.43,150a.54.54,0,0,1,.07-.29,5.94,5.94,0,0,1-1.53.47l.1.52c-.37.18-.79.41-1.17.57a1.51,1.51,0,0,1-1,.12l.17-.06c-.08-.39-.76.31-1.27.43-.34.19-.61.58-.27.52-2.11.63-5.16,1.88-6.62,1.75-.52.18-1,.37-1.48.56L142,155a12.73,12.73,0,0,1-3.14.66l0-.06c-.8,0-2.41.05-2.44-.37-1.67.31-2.72.9-4.76.81l.43-.18a4.81,4.81,0,0,0-1.54.24c-.18,0-.05-.09,0-.15-.49-.12-.77.12-1.16.15l.16-.14a12,12,0,0,0-3,0c-.55,0-1.12.1-1.68.11a14.35,14.35,0,0,1-1.63-.08c.39,0,.19-.19,0-.27-.88.4-3.23.15-4.1.09l.56-.11c-1.73.08-1.39-.69-3.1-.61l.92.4c-.67-.17-1.26-.16-1.13.07-.77-.27,0-.34-1.22-.61,0-.14.87.08.51-.17l-1.56-.66h0c1.08.48-.91.17-.2.55-.91-.34.29-.42.2-.55l-.11,0,.11,0a2.22,2.22,0,0,0-.78-.16c0,.6-1.36-.23-.65.49a21.57,21.57,0,0,1-3.2-.87,24.84,24.84,0,0,0-3-.75c-.63-.8-3.83-1.2-3.39-1.86a7.11,7.11,0,0,0-2.74-.54,2,2,0,0,0,.73.19A7.08,7.08,0,0,1,99,150a14,14,0,0,0,2.59.34c-1-.29-2.45-.52-3-.68l-.1-.45c-.91-.08-.55-.56-1.5-.56l.11.17c-1.46-.64-1.64-.3-3-.9l.12-.11c-.44-.27-1.28-.28-1.58-.8l.88.4c0-.28-.6-.7-.84-1-1-.38-.52.24-1,0-.08-.33,0-.14.44-.2a15.34,15.34,0,0,0-3.35-1.15c0-.06,0-.08,0-.08-1-.58-2.16-.74-2.7-1.27l.22.08c-.65-.78-2.33-.92-2.18-1.57-.33-.33.86.55.4-.09-1.11-.9-1.07,0-2-.83.14.11.11,0,.19,0L80,139.89l.08.11-.26-.22.19.1a7,7,0,0,0-2-1.52,6.92,6.92,0,0,1-2-1.69c.25.42-.43,0-.48.08s.08,0,0-.08c-.42-.3-.58-.17-.79-.21a.16.16,0,0,1,0,.07,1,1,0,0,1-.36-.28.51.51,0,0,0,.32.21c-.24-.39-1.27-.65-1.42-.9-.08.1-.4-.16-.77-.42.83.4.4-.06.86,0-1.08-.84-1.62-.42-2.71-1.33l-.49-.66c-.35.21-1.33-.68-1.39-.55a.44.44,0,0,1,.07.2c-.07-.12-.08-.17-.07-.2-.13-.24-.38-.5-.22-.62-.51-.26-1.08-.92-1.4-.88l.4.41c-1.33-1.15-2.5-1.34-3.43-2.34l.36-.44a2,2,0,0,0-.6-.49l-.18.1-.07-.24c-.11-.06-.21-.13-.32-.18l-.12.11a2.2,2.2,0,0,1,.25.17l-.31-.12-.13.12.88.54c-.78-.3-.7-.31-.57.07a2.89,2.89,0,0,1-.61-.41,2,2,0,0,1-1.43.38c.08.16.08.55.3.65-.38,1.23-.65-.81-1.06.56.09-.35.31-.63.16-1-.44.58-.85,1.19-1.27,1.78a1.85,1.85,0,0,0-2.37.35.7.7,0,0,0,.74.27l.12-.2a.17.17,0,0,1-.12.2c-.11.16-.21.34-.31.51l-1-.6-.09,1.24.12.16-.14.08,0-.24-.54-.7c-.37.5.13,1.55-.3,1.78-1.78.64-1.66.21-3.2.36,1,1.41-1.64,1.24-1.1,2.41a5,5,0,0,0-2.8,1.42,25.71,25.71,0,0,1-2.6,2.28l0-.24c-1.26.09.08,1.68-.9,2.17v-.36c-1.59.29-2.7,2.55-3,4,0-.36-.48-.65-.73-.31,0,.48,1.09.58.36.88,0-.24-.36-.4-.48-.29l.12,1.09c-1.68.95-3.63,2.14-4.53,3.92-.46.07-.52-.33-.68-.59-.89,1.26-1.35,2.88-2.12,4l-.84-.52c-.44.52.88,1.28-.36,1.4-.23.07.33-.48.15-1-1.45.56.21,1.23-.69,2.16l-.64-1c-1.14.36-.27,1.25,0,1.94.13,1.9-2.29-.57-2.72,1.54.24.57.69.42.93,1-1.05.87-.54,1.47-1.58,2.36a1.86,1.86,0,0,1-.68-.26c.12.35.24.71.37,1.06a3.73,3.73,0,0,1,1.91-.61c-.44-.17,0-.38,0-.73.37-.17.8-.44,1.22-.69a5.41,5.41,0,0,1,1.27-.52l-.07.34c1.51-1.18,2.43-2.27,3.66-2.65,0-.13.16.34,0,.51.63-.83,2.29.06,2.08-1l-.34.08a8.17,8.17,0,0,0,1.26-.62c.41-.25.81-.54,1.27-.78l1.36-.79a7.23,7.23,0,0,1,1.43-.57c.6.48-1.11.33-.52.93a7.73,7.73,0,0,0,2-.49,8.54,8.54,0,0,1,2.11-.33c-.23.11-.17.17-.28.22,1.48.21-.22-.62,1-.62,0,.3,0,.37.44.51l.33-.5a.63.63,0,0,1-.1.61,2,2,0,0,1,1.32-.48c.53-.07,1-.07,1.26-.38.11.16-.2.71,0,.94a1.9,1.9,0,0,0,1.52-.26c0-.31.27-.29.58-.22a1.2,1.2,0,0,1,.82.08,1.9,1.9,0,0,1-.82-.08,2.16,2.16,0,0,0-.58.22h0c.43.43,1.51.47,1.28.52,1.12.29.2-.32,1.11-.62l-.9-.35h1.64l-.67.24c.72.28,1.53-.11,2.4,0l-.35-.4,1-.09c0,.71,1.23.33.58,1.07,1.74.65,3.06-.1,4.71.18-.28-.06-.2.11-.28.21a2.83,2.83,0,0,0,2.21-.16c-.16.2-.4.22-.44.41,1.12.24.76-.26,2-.21-.4.22-.33.39,0,.54,0-.27.33-.39.57-.42-1.23,1.2,1.26.86.43,1.84.12-.28,2.16-.46,1.74-1.14l-.36,0c.05-.39.47-.14.82-.09s.49,0,.14,0h-.14c-.19,0-.4.07-.42.15,1.85-.07,3.56.78,5.59.88-.2.11-1,.17-.57.41,1.88.65,3.17.19,5.18.28-.11.91-2.12-.35-2.39.47a56.9,56.9,0,0,0,6.63.48c.51,1.48,2.32-.06,3.52,1.24,0-.46.69-.48,1.45-.34h0l.11,0a7.12,7.12,0,0,1,1,.27l-1-.27-.12,0c-.33.31.47.47.2.69.75-.28,2.71-.08,2.48.76.32-.79,1.43.31,2.09-.2a1.49,1.49,0,0,1-.52-.46l.67.35a.53.53,0,0,1-.14.12c.8.45,1.84.12,2.86.54-.3-.58,1.09-.11,1.51-.27-.11,0-.35.06-.3.15.26.5,1.28-.23,1.84.12.25.23-.13.48.31.58.06-.36,1.72-.62,2.26-.1-.28,0-.3.16-.49.29a23.82,23.82,0,0,1,4.38.13c.74.06,1.47.12,2.21.13a10.92,10.92,0,0,0,2.2-.26l-.53.62c1.8.87,1.22-1,2.64-.88,3.87.33,8,1,11.77.1.25-.21-.19-.21-.27-.47.34.05.5.56.9.15l-.15-.32a6.46,6.46,0,0,0,3.3-.32c1.16-.3,2.25-.6,3,0,1.5-.85,2.87-.3,4.59-1.63.7.12-.55.77.31.61.56-.34,1.11-.67,1.64-1.06l-.08.08c.69-.78,1.9-.9,3.2-1a6.42,6.42,0,0,0,3.55-1.11l-.07.08c0,.24.59.32.91.1.05-.2-.21-.19-.5-.29l1.85-1.25c.48-.31.93-.55,1.63-.94-.46.62.71,0,1,.4.23-.47-.45-.35.27-1a20.62,20.62,0,0,1,3.48-1.32c.17-.6.75-.79.49-1.27a10.51,10.51,0,0,0,1.53-1.15c.46-.39,1-.76,1.7-1.3l.07.06,0,0,0,0ZM43.51,155.58l.15-.5.58.18Zm35.42-16c-.54-.23-.29-.48,0-.34Zm17.92,9.35a10.53,10.53,0,0,1,1,.53A1.39,1.39,0,0,1,96.85,148.89Z"/><path class="cls-1" d="M158.9,154l-1.07,1.15a9.07,9.07,0,0,1-2.59,2.05l0-.12c-.78.28-2.32.85-2.72.1-1.36,1-1.85,2.52-3.87,3.1l.26-.49c-.54.08-1.12.81-1.26,1s-.12-.15-.15-.26c-.56,0-.63.49-1,.72l0-.32a6.28,6.28,0,0,0-2.74,1.19c-.48.3-1,.64-1.47.91a8.24,8.24,0,0,1-1.53.63c.34-.21,0-.44-.16-.52-.5,1.17-2.83,1.77-3.64,2.17l.42-.5c-1.5,1.06-1.71-.55-3.18.51l1.09.26c-.72,0-1.24.37-1,.73-.87-.09-.27-.64-1.49-.47-.11-.25.82-.36.34-.61l-1.79-.32h0c1.25.27-.7.84.16,1.15-1-.1,0-1-.16-1.15l-.13,0,.12,0c-.07-.06-.28,0-.79.16.39,1.12-1.35.36-.29,1.3a14.75,14.75,0,0,1-3.35.37,10,10,0,0,0-3,.55c-1-1.05-4,.41-4-1.11a4.07,4.07,0,0,0-2.71,1c.23.1.52-.1.75-.19-.28.38-1.66.55-2.24.54a9,9,0,0,0,2.5-1.31c-1,.2-2.45.85-3,1l-.28-.75c-.86.57-.74-.6-1.6.15l.17.22c-1.6,0-1.63.73-3.14.77l.07-.3c-.51-.13-1.3.55-1.78-.15h1c-.08-.53-.82-.79-1.14-1.07-1,.1-.4.86-.92.9-.19-.51,0-.26.34-.74a8.71,8.71,0,0,0-3.58.78.24.24,0,0,1,0-.19c-1.19-.16-2.33.58-3,.1l.24-.05c-.88-.82-2.56.43-2.6-.85-.42-.29,1,.19.37-.52-1.35-.58-1.07.91-2.26.39.16.06.12,0,.19-.12-.9-.09-2.11-.14-3.12-.18a.69.69,0,0,1,.11.13l-.32-.13h.22a3.7,3.7,0,0,0-2.42-.8,3.7,3.7,0,0,1-2.5-1c.36.49-.44.41-.47.6,0,0,.08-.1,0-.18-.5-.12-.64.25-.86.38l.06.08c-.24,0-.28-.06-.44-.13.17.12.29.11.38.05-.34-.44-1.47.1-1.68-.19-.06.26-.45.11-.9,0,1-.11.4-.49.89-.81-1.31-.4-1.77.83-3.12.32l-.66-.66c-.32.71-1.54.12-1.57.41A.83.83,0,0,1,81,164a.47.47,0,0,1-.12-.27c-.19-.28-.51-.49-.37-.85-.59.05-1.34-.51-1.67-.13l.51.32c-1.65-.67-2.92.16-4.12-.64l.28-1.1c-.77-.65-1.76.23-2.36-.61.18.43.26.33-.38.57.31.15,1,0,1.54.14l-1.33.38,1.9.11c-.89.25-.8.16-.59.68-1.2.1-1.08-.81-2.24-.62-.35-.24.14-.55-.25-.87-1,.18-1.62-1.21-2.43-.78-.19-.16.4,0,.4-.22-.63,0-1.06-.17-1.31.12l.5.24c-.45-.13-.63.3-1.44-.15-.56.14-1,.63-.42.76-.24,0-.66-.39-.41-.68-1.36-.3-.9,1-2.1.24-.12,0-.23,0,0,0l0,0c.1,0,.2,0,.17-.13a1.48,1.48,0,0,0-.82-.18c1.18.15-.18-1,1.15-.48,0-.62-1-.34-1.41-.66-.75.27-.25.84-.64,1.06,0-.18-.23-.24-.54-.38l.23.51a2.61,2.61,0,0,0-.9-.06l.59-.07c-.58-.19-1.37-1.1-2.5-.84.31-.14.94-.41.27-.76-1.21.1-.24-.23-.84-.68-1.18-.09-.33.76-2,.22-.18,0,0,.26.11.41a1.19,1.19,0,0,1,.22.08c-.06,0-.14,0-.22-.08-1.13-.36-1.8-.14-2.89-.59.48.16.84.38.16.51.32-.35-.88-.42-1.3-.69l-.13.22c-.33-.27,0-.34.34-.4,0-.06.09-.11.26-.12s-.1.09-.26.12.08.16.29.15c.57-.14.46-1-.44-1.18-1,.14-.86.76-.71,1-1.25-.35-1.22,1-2.38.6a3.12,3.12,0,0,1-.79-.49,2.67,2.67,0,0,0-1.26-.48c-.42.54,1.09.34.61.81a1.89,1.89,0,0,0-2.22-.05,7.72,7.72,0,0,1-1.14.5,3.05,3.05,0,0,1-1.29.09l.09-.68a5.4,5.4,0,0,0-1.3.3l.7.19c-.37.24-1.37.34-1.2-.2-.75.82-1,.6-1.93.75.92-.28.05.08.58-.47-1.07,0-1.07.32-1.67.75,0-.26-.47-.41-.73-.28-.45.67-1.54,1.09-2.31,1.7l-.08-.17c-1.3.95-3.24,1.07-4.38,2.34a.23.23,0,0,0,.12,0h0c.78.22-.84,1-1.11,1.51-.17-.07-.36-.27-.59-.12.29.49-.36.58-.41.93-.57.14-.31-.6-1.1-.07a.38.38,0,0,0-.16.36l.07.18a.4.4,0,0,0,.1.12H29a68.72,68.72,0,0,0,130.72-12.64C159.4,153.42,159.14,153.72,158.9,154ZM32.49,162.8c.28-.11.57-.33.64-.13Zm7.61-3-.14-.48C40,159.6,40.52,159.49,40.1,159.77Zm7.43-1.33.2-.08.58-.14Zm45.41,7,.06.62C92.39,166.16,92.58,165.51,92.94,165.45Zm20.39,1.78c.23-.08.69.15,1.15.19A.85.85,0,0,1,113.33,167.23Z"/><ellipse class="cls-2" cx="92.34" cy="139.29" rx="68.7" ry="68.67"/><path class="cls-1" d="M30.24,148.06a1.52,1.52,0,0,0,.23.36l0-.09a4,4,0,0,1,.27-.46C30.54,147.79,30.36,147.76,30.24,148.06Z"/><path class="cls-1" d="M27.36,161.6c0,.12.08.25.13.37C27.54,161.84,27.82,161.74,27.36,161.6Z"/><path class="cls-1" d="M27.31,159.66a1,1,0,0,0-.42.56c.12.36.24.72.37,1.08l.59-.37C26.62,161.08,28.16,160.15,27.31,159.66Z"/><path class="cls-1" d="M31.21,111.42l-.34,0c.92,0,1.86-.15,2.85-.17l1.5,0a10.17,10.17,0,0,1,1.47.13c.39.38-1.1-.16-.77.26a15.73,15.73,0,0,0,2,.35,16,16,0,0,1,2,.55c-.24,0-.2,0-.31,0,1.31.59,0-.36,1.08.07-.11.12-.07.18.28.39l.41-.1c0,.06,0,.23-.22.24a3.38,3.38,0,0,1,1.31.27,3.39,3.39,0,0,0,1.21.33c.07.11-.32.25-.22.42a3.26,3.26,0,0,0,1.42.49c.08-.14.3,0,.56.14a2.34,2.34,0,0,1,.72.39,3.35,3.35,0,0,1-.72-.39,3.82,3.82,0,0,0-.56-.14h0a8.5,8.5,0,0,0,1.06.79c1,.62.24-.07,1.09.18l-.74-.54,1.46.7-.64-.17c.6.44,1.37.62,2.11,1.06l-.25-.35.9.41c-.1.35,1,.72.36.79,1.43,1.13,2.67,1.36,4.05,2.28-.24-.16-.19,0-.27,0a5,5,0,0,0,1.91,1c-.16,0-.37-.08-.43,0,.93.66.68.23,1.77.87-.37-.08-.33,0-.07.28,0-.14.32,0,.53.06-.68,0-.26.36.07.67a1.22,1.22,0,0,1,1.62,0l-.16.07c.54,1,.68-.39,1.23-.43.26-.29.21-1.13-.19-1.17a13.59,13.59,0,0,0,3.36-1.35,4.32,4.32,0,0,1,3.08-.48c.83-.71,1.56-1.39,2.32-2.09a9.58,9.58,0,0,1,1.23-1,5.91,5.91,0,0,1,1.54-.62l0,.18c.83,0,2.45-.14,2.78,1.1a7.61,7.61,0,0,0,1.92-1.54,2.77,2.77,0,0,1,2.33-.9l-.32.55c.52.17,1.18-.56,1.35-.74.17,0,.09.27.1.44.52.35.68-.37,1-.55l-.08.45c1.62.57,3.77-1.42,5.77-1.45-.35.17-.1.63.07.81.64-1.54,2.91-1.36,3.71-1.76l-.47.59c1.55-1,1.49,1.35,3,.33l-1-.76c.67.18,1.21-.09,1-.72.79.44.15,1.07,1.3,1.17.06.39-.81.3-.41.8l1.6,1h0c-1.11-.76.78-1,0-1.73.92.44-.15,1.42,0,1.73l.11.08-.11-.07c0,.11.25.13.75,0-.18-1.76,1.3-.14.48-1.83a12.31,12.31,0,0,1,3.15.37,5.63,5.63,0,0,0,2.91-.07c.7,1.75,3.81.26,3.44,2.48a3,3,0,0,0,2.71-1.06c-.2-.19-.5.06-.73.14.34-.52,1.65-.52,2.19-.41a7.15,7.15,0,0,0-2.58,1.51,18.87,18.87,0,0,0,3-1l.1,1.16c.92-.71.55,1,1.52,0l-.1-.36c1.48.28,1.67-.81,3.1-.71l-.14.43c.44.26,1.35-.65,1.62.44l-.91-.12c0,.8.57,1.27.79,1.71,1,0,.59-1.21,1.09-1.21,0,.77,0,.4-.51,1a6.13,6.13,0,0,0,3.56-.78.49.49,0,0,1-.07.27c1.06.39,2.36-.64,2.88.15l-.24,0c.59,1.27,2.55-.38,2.21,1.48.31.46-.91-.35-.51.73,1.1.94,1.29-1.25,2.27-.41-.14-.1-.12,0-.22.17a28.81,28.81,0,0,0,2.91.5,1.06,1.06,0,0,1-.06-.19l.27.21-.21,0c.61,1.78,3.46.81,4.09,2.92-.17-.73.56-.57.66-.83a.46.46,0,0,0-.1.26c.43.22.7-.32,1-.49,0,0,0-.07,0-.12.24,0,.25.1.38.22-.12-.19-.24-.18-.35-.1.17.65,1.45-.06,1.56.36.15-.36.47-.13.87,0-1,.1-.57.69-1.16,1.12,1.12.64,2-1.06,3.13-.28l.4,1c.58-1,1.54-.09,1.67-.49a1,1,0,0,1,0-.39.73.73,0,0,1,0,.39c.07.42.3.73,0,1.24.6,0,1.1.8,1.57.26l-.37-.48c1.35,1,2.89-.07,3.75,1.13l-.7,1.55c.49,1,1.79-.24,2,1,0-.62-.12-.49.59-.79-.24-.23-1-.06-1.44-.28l1.43-.47-1.8-.26c1-.31.84-.18.83-.93,1.2-.08.73,1.21,1.93,1,.24.36-.35.77-.1,1.26,1.07-.2,1.09,1.81,2,1.24.12.24-.36-.1-.47.28.6.08,1,.31,1.31-.09l-.38-.37c.38.22.72-.39,1.33.3.6-.17,1.17-.84.7-1.06.24,0,.48.59.13,1,1.18.52,1.27-1.42,2.11-.2.12,0,.22,0,0,0l0,0c-.1,0-.21.06-.21.17a.92.92,0,0,0,.71.31c-1.07-.28-.2,1.39-1.29.61-.22.89.84.55,1.1,1,.82-.33.56-1.18,1-1.47-.11.26.13.36.37.59l0-.75a1.62,1.62,0,0,0,.83.17l-.59.06c.41.29.77,1.29,1.6,1.41a68.7,68.7,0,0,0-130.9-18.87C30.29,111.48,31,111.82,31.21,111.42Zm100.34,7.34c.61-.09.21.85-.15.9ZM112.72,115c-.23.09-.61-.32-1-.45C112.09,114.19,112.58,114.56,112.72,115Zm-75.39-3.58.47.24-.76-.06Z"/><path class="cls-1" d="M160.35,131.36h.22c0-.28-.07-.56-.11-.83A.5.5,0,0,0,160.35,131.36Z"/><path class="cls-1" d="M57.83,124.3c-.32-.13-.57-.14-.6,0a2.3,2.3,0,0,1,.62.08Z"/><path class="cls-1" d="M35.87,150.2h0l-.25.38Z"/><path class="cls-1" d="M32.07,162.89l.13,0-.07,0A.17.17,0,0,0,32.07,162.89Z"/><path class="cls-1" d="M159.13,148.15l-.72.46-.48.3c0,.15,0,.29.13.37l.51-.68c-.17.39.05,1,.64.66.25-.8-.36-.13-.34-.64l.57.34A.47.47,0,0,0,159.13,148.15Z"/><path class="cls-1" d="M161,136.49a.28.28,0,0,1,0-.34c0-.18,0-.35,0-.53-1.34-.77-2.74-.06-4.13-.51.25.11.24-.14.35-.28-.75-.56-1.46-.25-2.17.06.23-.27.47-.29.58-.55-1-.42-.84.32-2.05.17.47-.29.47-.54.22-.77a.79.79,0,0,1-.71.55c1.64-1.62-.87-1.32.3-2.66-.23.39-2.28.54-2.13,1.53l.36,0c-.2.56-.51.17-.83.08s-.48,0-.14,0a.34.34,0,0,1,.14,0c.19,0,.41-.07.46-.18-1.81,0-3.15-1.3-5.06-1.55.24-.14,1.08-.19.71-.55-1.57-1-3-.42-4.9-.66.46-1.29,1.91.61,2.49-.55a34.48,34.48,0,0,0-6.19-1c.06-2.12-2.24,0-2.9-2-.13.67-.83.66-1.5.42,0,0,0,0,0,0l-.09-.05a4.18,4.18,0,0,1-.87-.46l.87.46.1,0c.43-.42-.28-.71.06-1-.81.33-2.59,0-2.08-1.24-.58,1.13-1.25-.52-2,.15a1.62,1.62,0,0,1,.33.71l-.51-.55a.65.65,0,0,1,.18-.16c-.6-.69-1.69-.28-2.51-1,.09.87-1.05.05-1.49.28.11,0,.34-.07.33-.19-.08-.74-1.26.25-1.67-.29-.16-.35.27-.69-.11-.86-.17.53-1.77.75-2.12,0,.25.07.32-.21.53-.38a11.76,11.76,0,0,1-4-.59,8.19,8.19,0,0,0-4.06-.29l.64-.85c-1.43-1.5-1.35,1.34-2.61,1-3.42-1-7.06-2.74-10.63-2.25-.27.26.14.35.16.75-.3-.13-.36-.93-.79-.45l.08.52c-1.59-1.4-4.6.87-5.83-1.21-1.51.88-2.68-.52-4.47.89-.63-.41.62-.94-.19-1l-1.67.94.09-.08c-.76.81-1.9.55-3.12.21s-2.52-.74-3.49,0l.08-.09a.63.63,0,0,0-.83-.53c-.08.27.17.36.42.62a13.73,13.73,0,0,1-3.61,1.38c.49-.66-.64-.32-.85-1-.27.56.36.7-.35,1.28A4.33,4.33,0,0,1,76,122c-.57,0-1.13-.06-1.65,0-.19.75-.74.74-.5,1.51a7.59,7.59,0,0,0-1.56.79,11,11,0,0,1-1.76.88l-.15-.24c0,1.08-1.5.15-1.54.8-.11-.34,0-.55-.17-.79l-.54.62c.19-.43,0-1.39-.66-1.21-.28.92.38.36.34,1l-.59-.76c-.41.31,0,1.31.62,1.31a11.89,11.89,0,0,0-2.09,1.32c-.19.14-.39.26-.58.39.9.55,1.78,1,2.9,1.64-.2.42-1.78-1.22-2.09-.92,1.75,1.16,3.58,2.32,5.61,3.49.27,1,2,1.1,2.89,2.35,0-.26.65.08,1.29.53h0l.09.07c.31.21.63.44.86.63l-.86-.63-.1-.07c-.32,0,.35.47.09.45.69.21,2.37,1.25,2.07,1.57.38-.25,1.21.84,1.85.89a2,2,0,0,1-.4-.48l.54.49a.34.34,0,0,1-.14,0c.64.6,1.61.93,2.45,1.62-.19-.42,1,.45,1.38.56-.1,0-.32-.13-.29-.07.16.36,1.17.47,1.62.9.19.23-.18.17.19.43a3.84,3.84,0,0,1,2.05,1c-.24-.14-.3-.06-.48-.08,1.33.57,2.61,1.32,3.94,2,.66.35,1.32.7,2,1a21.77,21.77,0,0,0,2.08.8l-.61.07c1.49,1.15,1.3.05,2.6.69a55.64,55.64,0,0,0,11.07,4.46c.3,0-.13-.16-.13-.3.31.14.33.42.82.37l0-.19a12.91,12.91,0,0,0,3.24.93,7.35,7.35,0,0,1,2.91.9c1.7.09,2.81.68,4.9.55.62.24-.78.19.08.35.64,0,1.28,0,1.92-.05l-.1,0a9.43,9.43,0,0,1,3.39.3,12.38,12.38,0,0,0,3.75.24l-.1,0c-.05.12.42.27.8.23.13-.08-.12-.13-.35-.23,1-.07,1.65-.16,2.22-.22s1.09-.1,1.9-.15c-.69.21.66.12.74.36.42-.18-.26-.24.68-.42,1.35-.13,2.6-.08,3.74-.11.43-.27,1-.27,1-.54a16.92,16.92,0,0,0,1.93-.38c.61-.15,1.27-.26,2.16-.48l.07.08c.4-.46,1.59-.25,1.87-.53,0,.13-.19.23-.12.3l.78-.32c-.35.2-.49.57.2.42.63-.41-.24-.1.05-.38l.3.24c.51-.21.54-.6-.11-.47,1.76-.61,3.44-1.32,5-2l-.08.26a12.77,12.77,0,0,1,2.52-1c0-.07.15-.26,0-.26.86-.73.25.25,1.19-.55-.23.2-.55.4-.54.53.63-.41,1.28-.8,1.9-1.23a4.23,4.23,0,0,0,2.22-.83c0-.09-.31-.06-.53,0l.49-.36.59.08c.21-.23.41-.46.61-.71l0-.06.15-.09-.12.14.17.25c.52-.4.55-.86,1-1.11l.07,0c.13-1.72.22-3.45.22-5.21C161.05,138.36,161,137.42,161,136.49Z"/><path class="cls-1" d="M36.52,149.38a3.91,3.91,0,0,1,.56-.58c-.36,0-.77.27-.84.07C36.1,149,36.27,149.24,36.52,149.38Z"/><path class="cls-1" d="M30.76,149c0,.07,0,.13-.06.2l.09-.13Z"/><path class="cls-1" d="M31.57,112.1a15.11,15.11,0,0,1-2.48.33,68.8,68.8,0,0,0-3.45,43.37c.2-.55.62-1.11.74-1.61.09.23-.1.42-.12.7.28,0,.81.39.9,0-.63-1.62.65-3,1.2-4.32.64.32,1.88-.19,3.13.07-.1-.27-.34-.81-.59-1.33l-.25,0s0-.09,0-.13c-.17.25-.24.4-.15.38-.86,0-.38-.38-1-.88.31-.33.72-1.22,1.25-.9a1.84,1.84,0,0,1,.65-.4.59.59,0,0,1,.28-.5V147a.88.88,0,0,0,.27.08c.84-.43.76-2.17.85-3.08.27,1.22,1,.64,1.52,1.14A7.44,7.44,0,0,0,33,146.48a.69.69,0,0,1,.47.2c1.22-.2.6-1.69,1.95-2.36a.53.53,0,0,0,.25.51c.49-.22.37-1,.12-1.35a1.38,1.38,0,0,0,1.86-.61c-.11-.75-.36-.89.27-1.45L38,142c1-.42,0-1.11.89-1.41-.37.09,0,.49.23.39.51-1,.34-1.15.15-2.4l.47.66c.29-1,.8-2.84,1.57-2.07-1.37-1,.81-2,1.4-2.48-.16.22,0,.51.14.66.43-1.93,2.41-2.26,3.64-3.35l1,.75c.61-.61-.75-2.6,0-3.17l.11.67a10.63,10.63,0,0,1,3-2.27l.48.66c.15-.59.64-1,.81-1.56,1.05.46,1.74-.44,2.62-1.32a4.09,4.09,0,0,1,2.63-1.54c-.11-.15-.18-.31,0-.33a2.08,2.08,0,0,0-.61-.33l-.1.31-.31.16.36-.48c-.42-.1-.48.18-1.17-.54-.11,0-.2-.11,0,0l0,0c.08,0,.18.07.16,0a2.87,2.87,0,0,0-.69-.49c1,.65,0-.59,1.05.31,0-.34-.84-.67-1.14-1-.68-.22-.31.31-.68.24.06-.07-.17-.23-.43-.46l.14.37a4.34,4.34,0,0,0-.78-.46l.52.24a7.65,7.65,0,0,0-2.08-1.63c.29.08.88.23.33-.26-1.08-.52-.18-.23-.65-.74-1-.59-.39.22-1.79-.82-.16-.1-.08.11.05.26l.19.14a.44.44,0,0,1-.19-.14c-1-.69-1.59-.9-2.5-1.61.41.29.7.57.06.31.35,0-.74-.59-1.08-.91l-.16,0c-.25-.28.1-.14.38,0,0,0,.1,0,.26.06s-.11,0-.26-.06.05.11.24.2c.54.18.57-.29-.2-.75s-.9,0-.81.16c-1.08-.72-1.3,0-2.32-.73a4.83,4.83,0,0,1-.65-.56,4.43,4.43,0,0,0-1.09-.7c-.52.08,1,.57.4.6a3.42,3.42,0,0,0-2.11-.86c-.41,0-.82-.09-1.25-.17a12.44,12.44,0,0,1-1.3-.38l.3-.27a12.25,12.25,0,0,0-1.36-.25l.61.29c-.44,0-1.45-.25-1.09-.43a4.51,4.51,0,0,1-2.14-.11c1,.09,0,0,.74-.08a3.49,3.49,0,0,0-1.86,0C32.25,112.25,31.86,112.09,31.57,112.1Zm8.72,2.16.59.17-.8-.21Zm-7.88-1.81c-.06.15.44.19-.06.25Z"/><path class="cls-1" d="M31.49,148.15c-.28.34-.53.64-.7.88l.12.25C31.57,149.19,31.56,148.69,31.49,148.15Z"/><path class="cls-1" d="M156.43,150a.54.54,0,0,1,.07-.29,5.94,5.94,0,0,1-1.53.47l.1.52c-.37.18-.79.41-1.17.57a1.51,1.51,0,0,1-1,.12l.17-.06c-.08-.39-.76.31-1.27.43-.34.19-.61.58-.27.52-2.11.63-5.16,1.88-6.62,1.75-.52.18-1,.37-1.48.56L142,155a12.73,12.73,0,0,1-3.14.66l0-.06c-.8,0-2.41.05-2.44-.37-1.67.31-2.72.9-4.76.81l.43-.18a4.81,4.81,0,0,0-1.54.24c-.18,0-.05-.09,0-.15-.49-.12-.77.12-1.16.15l.16-.14a12,12,0,0,0-3,0c-.55,0-1.12.1-1.68.11a14.35,14.35,0,0,1-1.63-.08c.39,0,.19-.19,0-.27-.88.4-3.23.15-4.1.09l.56-.11c-1.73.08-1.39-.69-3.1-.61l.92.4c-.67-.17-1.26-.16-1.13.07-.77-.27,0-.34-1.22-.61,0-.14.87.08.51-.17l-1.56-.66h0c1.08.48-.91.17-.2.55-.91-.34.29-.42.2-.55l-.11,0,.11,0a2.22,2.22,0,0,0-.78-.16c0,.6-1.36-.23-.65.49a21.57,21.57,0,0,1-3.2-.87,24.84,24.84,0,0,0-3-.75c-.63-.8-3.83-1.2-3.39-1.86a7.11,7.11,0,0,0-2.74-.54,2,2,0,0,0,.73.19A7.08,7.08,0,0,1,99,150a14,14,0,0,0,2.59.34c-1-.29-2.45-.52-3-.68l-.1-.45c-.91-.08-.55-.56-1.5-.56l.11.17c-1.46-.64-1.64-.3-3-.9l.12-.11c-.44-.27-1.28-.28-1.58-.8l.88.4c0-.28-.6-.7-.84-1-1-.38-.52.24-1,0-.08-.33,0-.14.44-.2a15.34,15.34,0,0,0-3.35-1.15c0-.06,0-.08,0-.08-1-.58-2.16-.74-2.7-1.27l.22.08c-.65-.78-2.33-.92-2.18-1.57-.33-.33.86.55.4-.09-1.11-.9-1.07,0-2-.83.14.11.11,0,.19,0L80,139.89l.08.11-.26-.22.19.1a7,7,0,0,0-2-1.52,6.92,6.92,0,0,1-2-1.69c.25.42-.43,0-.48.08s.08,0,0-.08c-.42-.3-.58-.17-.79-.21a.16.16,0,0,1,0,.07,1,1,0,0,1-.36-.28.51.51,0,0,0,.32.21c-.24-.39-1.27-.65-1.42-.9-.08.1-.4-.16-.77-.42.83.4.4-.06.86,0-1.08-.84-1.62-.42-2.71-1.33l-.49-.66c-.35.21-1.33-.68-1.39-.55a.44.44,0,0,1,.07.2c-.07-.12-.08-.17-.07-.2-.13-.24-.38-.5-.22-.62-.51-.26-1.08-.92-1.4-.88l.4.41c-1.33-1.15-2.5-1.34-3.43-2.34l.36-.44a2,2,0,0,0-.6-.49l-.18.1-.07-.24c-.11-.06-.21-.13-.32-.18l-.12.11a2.2,2.2,0,0,1,.25.17l-.31-.12-.13.12.88.54c-.78-.3-.7-.31-.57.07a2.89,2.89,0,0,1-.61-.41,2,2,0,0,1-1.43.38c.08.16.08.55.3.65-.38,1.23-.65-.81-1.06.56.09-.35.31-.63.16-1-.44.58-.85,1.19-1.27,1.78a1.85,1.85,0,0,0-2.37.35.7.7,0,0,0,.74.27l.12-.2a.17.17,0,0,1-.12.2c-.11.16-.21.34-.31.51l-1-.6-.09,1.24.12.16-.14.08,0-.24-.54-.7c-.37.5.13,1.55-.3,1.78-1.78.64-1.66.21-3.2.36,1,1.41-1.64,1.24-1.1,2.41a5,5,0,0,0-2.8,1.42,25.71,25.71,0,0,1-2.6,2.28l0-.24c-1.26.09.08,1.68-.9,2.17v-.36c-1.59.29-2.7,2.55-3,4,0-.36-.48-.65-.73-.31,0,.48,1.09.58.36.88,0-.24-.36-.4-.48-.29l.12,1.09c-1.68.95-3.63,2.14-4.53,3.92-.46.07-.52-.33-.68-.59-.89,1.26-1.35,2.88-2.12,4l-.84-.52c-.44.52.88,1.28-.36,1.4-.23.07.33-.48.15-1-1.45.56.21,1.23-.69,2.16l-.64-1c-1.14.36-.27,1.25,0,1.94.13,1.9-2.29-.57-2.72,1.54.24.57.69.42.93,1-1.05.87-.54,1.47-1.58,2.36a1.86,1.86,0,0,1-.68-.26c.12.35.24.71.37,1.06a3.73,3.73,0,0,1,1.91-.61c-.44-.17,0-.38,0-.73.37-.17.8-.44,1.22-.69a5.41,5.41,0,0,1,1.27-.52l-.07.34c1.51-1.18,2.43-2.27,3.66-2.65,0-.13.16.34,0,.51.63-.83,2.29.06,2.08-1l-.34.08a8.17,8.17,0,0,0,1.26-.62c.41-.25.81-.54,1.27-.78l1.36-.79a7.23,7.23,0,0,1,1.43-.57c.6.48-1.11.33-.52.93a7.73,7.73,0,0,0,2-.49,8.54,8.54,0,0,1,2.11-.33c-.23.11-.17.17-.28.22,1.48.21-.22-.62,1-.62,0,.3,0,.37.44.51l.33-.5a.63.63,0,0,1-.1.61,2,2,0,0,1,1.32-.48c.53-.07,1-.07,1.26-.38.11.16-.2.71,0,.94a1.9,1.9,0,0,0,1.52-.26c0-.31.27-.29.58-.22a1.2,1.2,0,0,1,.82.08,1.9,1.9,0,0,1-.82-.08,2.16,2.16,0,0,0-.58.22h0c.43.43,1.51.47,1.28.52,1.12.29.2-.32,1.11-.62l-.9-.35h1.64l-.67.24c.72.28,1.53-.11,2.4,0l-.35-.4,1-.09c0,.71,1.23.33.58,1.07,1.74.65,3.06-.1,4.71.18-.28-.06-.2.11-.28.21a2.83,2.83,0,0,0,2.21-.16c-.16.2-.4.22-.44.41,1.12.24.76-.26,2-.21-.4.22-.33.39,0,.54,0-.27.33-.39.57-.42-1.23,1.2,1.26.86.43,1.84.12-.28,2.16-.46,1.74-1.14l-.36,0c.05-.39.47-.14.82-.09s.49,0,.14,0h-.14c-.19,0-.4.07-.42.15,1.85-.07,3.56.78,5.59.88-.2.11-1,.17-.57.41,1.88.65,3.17.19,5.18.28-.11.91-2.12-.35-2.39.47a56.9,56.9,0,0,0,6.63.48c.51,1.48,2.32-.06,3.52,1.24,0-.46.69-.48,1.45-.34h0l.11,0a7.12,7.12,0,0,1,1,.27l-1-.27-.12,0c-.33.31.47.47.2.69.75-.28,2.71-.08,2.48.76.32-.79,1.43.31,2.09-.2a1.49,1.49,0,0,1-.52-.46l.67.35a.53.53,0,0,1-.14.12c.8.45,1.84.12,2.86.54-.3-.58,1.09-.11,1.51-.27-.11,0-.35.06-.3.15.26.5,1.28-.23,1.84.12.25.23-.13.48.31.58.06-.36,1.72-.62,2.26-.1-.28,0-.3.16-.49.29a23.82,23.82,0,0,1,4.38.13c.74.06,1.47.12,2.21.13a10.92,10.92,0,0,0,2.2-.26l-.53.62c1.8.87,1.22-1,2.64-.88,3.87.33,8,1,11.77.1.25-.21-.19-.21-.27-.47.34.05.5.56.9.15l-.15-.32a6.46,6.46,0,0,0,3.3-.32c1.16-.3,2.25-.6,3,0,1.5-.85,2.87-.3,4.59-1.63.7.12-.55.77.31.61.56-.34,1.11-.67,1.64-1.06l-.08.08c.69-.78,1.9-.9,3.2-1a6.42,6.42,0,0,0,3.55-1.11l-.07.08c0,.24.59.32.91.1.05-.2-.21-.19-.5-.29l1.85-1.25c.48-.31.93-.55,1.63-.94-.46.62.71,0,1,.4.23-.47-.45-.35.27-1a20.62,20.62,0,0,1,3.48-1.32c.17-.6.75-.79.49-1.27a10.51,10.51,0,0,0,1.53-1.15c.46-.39,1-.76,1.7-1.3l.07.06,0,0,0,0ZM43.51,155.58l.15-.5.58.18Zm35.42-16c-.54-.23-.29-.48,0-.34Zm17.92,9.35a10.53,10.53,0,0,1,1,.53A1.39,1.39,0,0,1,96.85,148.89Z"/><path class="cls-1" d="M158.9,154l-1.07,1.15a9.07,9.07,0,0,1-2.59,2.05l0-.12c-.78.28-2.32.85-2.72.1-1.36,1-1.85,2.52-3.87,3.1l.26-.49c-.54.08-1.12.81-1.26,1s-.12-.15-.15-.26c-.56,0-.63.49-1,.72l0-.32a6.28,6.28,0,0,0-2.74,1.19c-.48.3-1,.64-1.47.91a8.24,8.24,0,0,1-1.53.63c.34-.21,0-.44-.16-.52-.5,1.17-2.83,1.77-3.64,2.17l.42-.5c-1.5,1.06-1.71-.55-3.18.51l1.09.26c-.72,0-1.24.37-1,.73-.87-.09-.27-.64-1.49-.47-.11-.25.82-.36.34-.61l-1.79-.32h0c1.25.27-.7.84.16,1.15-1-.1,0-1-.16-1.15l-.13,0,.12,0c-.07-.06-.28,0-.79.16.39,1.12-1.35.36-.29,1.3a14.75,14.75,0,0,1-3.35.37,10,10,0,0,0-3,.55c-1-1.05-4,.41-4-1.11a4.07,4.07,0,0,0-2.71,1c.23.1.52-.1.75-.19-.28.38-1.66.55-2.24.54a9,9,0,0,0,2.5-1.31c-1,.2-2.45.85-3,1l-.28-.75c-.86.57-.74-.6-1.6.15l.17.22c-1.6,0-1.63.73-3.14.77l.07-.3c-.51-.13-1.3.55-1.78-.15h1c-.08-.53-.82-.79-1.14-1.07-1,.1-.4.86-.92.9-.19-.51,0-.26.34-.74a8.71,8.71,0,0,0-3.58.78.24.24,0,0,1,0-.19c-1.19-.16-2.33.58-3,.1l.24-.05c-.88-.82-2.56.43-2.6-.85-.42-.29,1,.19.37-.52-1.35-.58-1.07.91-2.26.39.16.06.12,0,.19-.12-.9-.09-2.11-.14-3.12-.18a.69.69,0,0,1,.11.13l-.32-.13h.22a3.7,3.7,0,0,0-2.42-.8,3.7,3.7,0,0,1-2.5-1c.36.49-.44.41-.47.6,0,0,.08-.1,0-.18-.5-.12-.64.25-.86.38l.06.08c-.24,0-.28-.06-.44-.13.17.12.29.11.38.05-.34-.44-1.47.1-1.68-.19-.06.26-.45.11-.9,0,1-.11.4-.49.89-.81-1.31-.4-1.77.83-3.12.32l-.66-.66c-.32.71-1.54.12-1.57.41A.83.83,0,0,1,81,164a.47.47,0,0,1-.12-.27c-.19-.28-.51-.49-.37-.85-.59.05-1.34-.51-1.67-.13l.51.32c-1.65-.67-2.92.16-4.12-.64l.28-1.1c-.77-.65-1.76.23-2.36-.61.18.43.26.33-.38.57.31.15,1,0,1.54.14l-1.33.38,1.9.11c-.89.25-.8.16-.59.68-1.2.1-1.08-.81-2.24-.62-.35-.24.14-.55-.25-.87-1,.18-1.62-1.21-2.43-.78-.19-.16.4,0,.4-.22-.63,0-1.06-.17-1.31.12l.5.24c-.45-.13-.63.3-1.44-.15-.56.14-1,.63-.42.76-.24,0-.66-.39-.41-.68-1.36-.3-.9,1-2.1.24-.12,0-.23,0,0,0l0,0c.1,0,.2,0,.17-.13a1.48,1.48,0,0,0-.82-.18c1.18.15-.18-1,1.15-.48,0-.62-1-.34-1.41-.66-.75.27-.25.84-.64,1.06,0-.18-.23-.24-.54-.38l.23.51a2.61,2.61,0,0,0-.9-.06l.59-.07c-.58-.19-1.37-1.1-2.5-.84.31-.14.94-.41.27-.76-1.21.1-.24-.23-.84-.68-1.18-.09-.33.76-2,.22-.18,0,0,.26.11.41a1.19,1.19,0,0,1,.22.08c-.06,0-.14,0-.22-.08-1.13-.36-1.8-.14-2.89-.59.48.16.84.38.16.51.32-.35-.88-.42-1.3-.69l-.13.22c-.33-.27,0-.34.34-.4,0-.06.09-.11.26-.12s-.1.09-.26.12.08.16.29.15c.57-.14.46-1-.44-1.18-1,.14-.86.76-.71,1-1.25-.35-1.22,1-2.38.6a3.12,3.12,0,0,1-.79-.49,2.67,2.67,0,0,0-1.26-.48c-.42.54,1.09.34.61.81a1.89,1.89,0,0,0-2.22-.05,7.72,7.72,0,0,1-1.14.5,3.05,3.05,0,0,1-1.29.09l.09-.68a5.4,5.4,0,0,0-1.3.3l.7.19c-.37.24-1.37.34-1.2-.2-.75.82-1,.6-1.93.75.92-.28.05.08.58-.47-1.07,0-1.07.32-1.67.75,0-.26-.47-.41-.73-.28-.45.67-1.54,1.09-2.31,1.7l-.08-.17c-1.3.95-3.24,1.07-4.38,2.34a.23.23,0,0,0,.12,0h0c.78.22-.84,1-1.11,1.51-.17-.07-.36-.27-.59-.12.29.49-.36.58-.41.93-.57.14-.31-.6-1.1-.07a.38.38,0,0,0-.16.36l.07.18a.4.4,0,0,0,.1.12H29a68.72,68.72,0,0,0,130.72-12.64C159.4,153.42,159.14,153.72,158.9,154ZM32.49,162.8c.28-.11.57-.33.64-.13Zm7.61-3-.14-.48C40,159.6,40.52,159.49,40.1,159.77Zm7.43-1.33.2-.08.58-.14Zm45.41,7,.06.62C92.39,166.16,92.58,165.51,92.94,165.45Zm20.39,1.78c.23-.08.69.15,1.15.19A.85.85,0,0,1,113.33,167.23Z"/><polygon points="171.32 137.65 168.64 144 167.64 148.69 167.81 154.87 168.81 157.72 170.98 160.73 172.66 167.25 175.17 169.59 179.51 167.75 177.34 154.37 171.32 137.65"/><polygon points="366.29 128.96 362.44 142.83 368.96 147.18 373.81 139.66 372.98 130.96 366.29 128.96"/><path d="M449.73,118.76,440.2,140s1.34,9.2,1.17,9.7,3.68,7.19,3.68,7.19l2.84-1s3.68-17.56,3.68-18.06,5.35-11.37,5.35-12.37-.33-5.18-.33-5.18l-5-2.17Z"/><path class="cls-1" d="M376.49,250.18l-3.85,7s-2.34,7.86-2.34,8.36.33,8,.33,8l4.85,3.34s4.35.84,4.35-.84.67-15,.67-15l2.51-9.87-2.84-2.84Z"/><polygon class="cls-1" points="260.11 256.37 258.1 262.89 258.27 267.57 258.27 270.25 259.27 272.93 262.78 280.12 265.96 280.12 265.13 269.75 265.13 259.55 263.12 255.2 260.11 256.37"/><path class="cls-1" d="M484.63,346.22l-1,1.06.78,1.35s0,2.36-.05,2.63-.33,2.9-.11,3,7.45,1.37,7.45,1.37l2.08-2.19-5.26-4.11Z"/></svg>