<svg width="31" height="42" viewBox="0 0 31 42" fill="none" xmlns="http://www.w3.org/2000/svg">
<path d="M22.7263 15.2728C22.7263 19.4887 19.2918 22.9091 15.0551 22.9091C10.8178 22.9091 7.38384 19.4887 7.38384 15.2728C7.38384 11.0557 10.8184 7.63656 15.0551 7.63656C19.2927 7.63625 22.7263 11.0554 22.7263 15.2728ZM30.6855 15.2728C30.6855 6.83771 23.8168 0 15.3428 0C6.86937 0 0 6.83771 0 15.2728C0 18.9815 1.3293 22.3819 3.53827 25.027L15.356 42L27.3466 24.7794C27.7772 24.2429 28.1717 23.6775 28.5275 23.0831L28.6488 22.91H28.6289C29.9346 20.6621 30.6855 18.056 30.6855 15.2728Z" fill="#8C0571"/>
<circle cx="15" cy="15" r="8" fill="#70025A"/>
<path d="M16.11 16.381V12.244C16.11 12.1227 16.1147 11.9897 16.124 11.845C16.1333 11.7003 16.1473 11.5533 16.166 11.404L12.512 16.381H16.11ZM18.721 16.381V17.095C18.721 17.1697 18.6977 17.2327 18.651 17.284C18.609 17.3353 18.5413 17.361 18.448 17.361H17.202V20H16.11V17.361H11.658C11.5647 17.361 11.483 17.3353 11.413 17.284C11.3477 17.228 11.3057 17.1603 11.287 17.081L11.161 16.444L16.04 9.969H17.202V16.381H18.721Z" fill="white"/>
</svg>
