<svg width="31" height="42" viewBox="0 0 31 42" fill="none" xmlns="http://www.w3.org/2000/svg">
<path d="M22.7263 15.2728C22.7263 19.4887 19.2918 22.9091 15.0551 22.9091C10.8178 22.9091 7.38384 19.4887 7.38384 15.2728C7.38384 11.0557 10.8184 7.63656 15.0551 7.63656C19.2927 7.63625 22.7263 11.0554 22.7263 15.2728ZM30.6855 15.2728C30.6855 6.83771 23.8168 0 15.3428 0C6.86937 0 0 6.83771 0 15.2728C0 18.9815 1.3293 22.3819 3.53827 25.027L15.356 42L27.3466 24.7794C27.7772 24.2429 28.1717 23.6775 28.5275 23.0831L28.6488 22.91H28.6289C29.9346 20.6621 30.6855 18.056 30.6855 15.2728Z" fill="#8C0571"/>
<circle cx="15" cy="15" r="8" fill="#70025A"/>
<path d="M12.981 12.916C12.981 13.2333 13.0253 13.518 13.114 13.77C13.2073 14.0173 13.338 14.2273 13.506 14.4C13.6787 14.5727 13.8863 14.7033 14.129 14.792C14.3763 14.8807 14.6517 14.925 14.955 14.925C15.291 14.925 15.5873 14.8713 15.844 14.764C16.1053 14.652 16.3247 14.505 16.502 14.323C16.6793 14.141 16.8147 13.931 16.908 13.693C17.0013 13.455 17.048 13.2077 17.048 12.951C17.048 12.6383 16.9967 12.356 16.894 12.104C16.796 11.8473 16.6583 11.6303 16.481 11.453C16.3037 11.2757 16.0913 11.1403 15.844 11.047C15.6013 10.949 15.333 10.9 15.039 10.9C14.731 10.9 14.451 10.9513 14.199 11.054C13.947 11.152 13.73 11.2897 13.548 11.467C13.366 11.6443 13.226 11.8567 13.128 12.104C13.03 12.3513 12.981 12.622 12.981 12.916ZM15.893 16.003C15.9957 15.8677 16.0913 15.7393 16.18 15.618C16.2687 15.4967 16.3527 15.3753 16.432 15.254C16.1753 15.4593 15.886 15.6157 15.564 15.723C15.242 15.8303 14.9013 15.884 14.542 15.884C14.164 15.884 13.8047 15.821 13.464 15.695C13.128 15.569 12.8317 15.3847 12.575 15.142C12.3183 14.8947 12.113 14.5937 11.959 14.239C11.8097 13.8797 11.735 13.469 11.735 13.007C11.735 12.5683 11.8167 12.1577 11.98 11.775C12.1433 11.3923 12.372 11.0587 12.666 10.774C12.96 10.4893 13.31 10.2653 13.716 10.102C14.122 9.93867 14.5677 9.857 15.053 9.857C15.5337 9.857 15.97 9.93633 16.362 10.095C16.754 10.2537 17.09 10.4753 17.37 10.76C17.65 11.0447 17.8647 11.3853 18.014 11.782C18.168 12.1787 18.245 12.6173 18.245 13.098C18.245 13.3873 18.217 13.6627 18.161 13.924C18.1097 14.1807 18.0327 14.435 17.93 14.687C17.832 14.9343 17.7107 15.1817 17.566 15.429C17.4213 15.6717 17.258 15.9213 17.076 16.178L14.633 19.706C14.5723 19.7947 14.486 19.867 14.374 19.923C14.262 19.9743 14.1337 20 13.989 20H12.841L15.893 16.003Z" fill="white"/>
</svg>
